G04 #@! TF.FileFunction,Legend,Bot*
%FSLAX46Y46*%
G04 Gerber Fmt 4.6, Leading zero omitted, Abs format (unit mm)*
G04 Created by KiCad (PCBNEW 4.0.2+e4-6225~38~ubuntu14.04.1-stable) date Sat Jul  9 19:21:58 2016*
%MOMM*%
G01*
G04 APERTURE LIST*
%ADD10C,0.150000*%
%ADD11C,0.175000*%
G04 APERTURE END LIST*
D10*
D11*
X17557070Y26934643D02*
X17328499Y26934643D01*
X17214213Y26877500D01*
X17099927Y26763214D01*
X17042785Y26534643D01*
X17042785Y26134643D01*
X17099927Y25906071D01*
X17214213Y25791786D01*
X17328499Y25734643D01*
X17557070Y25734643D01*
X17671356Y25791786D01*
X17785642Y25906071D01*
X17842785Y26134643D01*
X17842785Y26534643D01*
X17785642Y26763214D01*
X17671356Y26877500D01*
X17557070Y26934643D01*
X16528499Y26534643D02*
X16528499Y25334643D01*
X16528499Y26477500D02*
X16414213Y26534643D01*
X16185642Y26534643D01*
X16071356Y26477500D01*
X16014213Y26420357D01*
X15957070Y26306071D01*
X15957070Y25963214D01*
X16014213Y25848929D01*
X16071356Y25791786D01*
X16185642Y25734643D01*
X16414213Y25734643D01*
X16528499Y25791786D01*
X14985642Y25791786D02*
X15099928Y25734643D01*
X15328499Y25734643D01*
X15442785Y25791786D01*
X15499928Y25906071D01*
X15499928Y26363214D01*
X15442785Y26477500D01*
X15328499Y26534643D01*
X15099928Y26534643D01*
X14985642Y26477500D01*
X14928499Y26363214D01*
X14928499Y26248929D01*
X15499928Y26134643D01*
X14414214Y26534643D02*
X14414214Y25734643D01*
X14414214Y26420357D02*
X14357071Y26477500D01*
X14242785Y26534643D01*
X14071357Y26534643D01*
X13957071Y26477500D01*
X13899928Y26363214D01*
X13899928Y25734643D01*
X13328500Y25734643D02*
X13328500Y26934643D01*
X13328500Y26363214D02*
X12642785Y26363214D01*
X12642785Y25734643D02*
X12642785Y26934643D01*
X11557071Y26534643D02*
X11557071Y25734643D01*
X12071357Y26534643D02*
X12071357Y25906071D01*
X12014214Y25791786D01*
X11899928Y25734643D01*
X11728500Y25734643D01*
X11614214Y25791786D01*
X11557071Y25848929D01*
X10985643Y25734643D02*
X10985643Y26534643D01*
X10985643Y26420357D02*
X10928500Y26477500D01*
X10814214Y26534643D01*
X10642786Y26534643D01*
X10528500Y26477500D01*
X10471357Y26363214D01*
X10471357Y25734643D01*
X10471357Y26363214D02*
X10414214Y26477500D01*
X10299928Y26534643D01*
X10128500Y26534643D01*
X10014214Y26477500D01*
X9957071Y26363214D01*
X9957071Y25734643D01*
X9385643Y25734643D02*
X9385643Y26534643D01*
X9385643Y26934643D02*
X9442786Y26877500D01*
X9385643Y26820357D01*
X9328500Y26877500D01*
X9385643Y26934643D01*
X9385643Y26820357D01*
X8299928Y25734643D02*
X8299928Y26934643D01*
X8299928Y25791786D02*
X8414214Y25734643D01*
X8642785Y25734643D01*
X8757071Y25791786D01*
X8814214Y25848929D01*
X8871357Y25963214D01*
X8871357Y26306071D01*
X8814214Y26420357D01*
X8757071Y26477500D01*
X8642785Y26534643D01*
X8414214Y26534643D01*
X8299928Y26477500D01*
X7557071Y25734643D02*
X7671357Y25791786D01*
X7728500Y25848929D01*
X7785643Y25963214D01*
X7785643Y26306071D01*
X7728500Y26420357D01*
X7671357Y26477500D01*
X7557071Y26534643D01*
X7385643Y26534643D01*
X7271357Y26477500D01*
X7214214Y26420357D01*
X7157071Y26306071D01*
X7157071Y25963214D01*
X7214214Y25848929D01*
X7271357Y25791786D01*
X7385643Y25734643D01*
X7557071Y25734643D01*
X6642786Y25734643D02*
X6642786Y26534643D01*
X6642786Y26306071D02*
X6585643Y26420357D01*
X6528500Y26477500D01*
X6414214Y26534643D01*
X6299929Y26534643D01*
X17985642Y23936786D02*
X17814213Y23879643D01*
X17528499Y23879643D01*
X17414213Y23936786D01*
X17357070Y23993929D01*
X17299927Y24108214D01*
X17299927Y24222500D01*
X17357070Y24336786D01*
X17414213Y24393929D01*
X17528499Y24451071D01*
X17757070Y24508214D01*
X17871356Y24565357D01*
X17928499Y24622500D01*
X17985642Y24736786D01*
X17985642Y24851071D01*
X17928499Y24965357D01*
X17871356Y25022500D01*
X17757070Y25079643D01*
X17471356Y25079643D01*
X17299927Y25022500D01*
X16328499Y23936786D02*
X16442785Y23879643D01*
X16671356Y23879643D01*
X16785642Y23936786D01*
X16842785Y24051071D01*
X16842785Y24508214D01*
X16785642Y24622500D01*
X16671356Y24679643D01*
X16442785Y24679643D01*
X16328499Y24622500D01*
X16271356Y24508214D01*
X16271356Y24393929D01*
X16842785Y24279643D01*
X15757071Y24679643D02*
X15757071Y23879643D01*
X15757071Y24565357D02*
X15699928Y24622500D01*
X15585642Y24679643D01*
X15414214Y24679643D01*
X15299928Y24622500D01*
X15242785Y24508214D01*
X15242785Y23879643D01*
X14728500Y23936786D02*
X14614214Y23879643D01*
X14385642Y23879643D01*
X14271357Y23936786D01*
X14214214Y24051071D01*
X14214214Y24108214D01*
X14271357Y24222500D01*
X14385642Y24279643D01*
X14557071Y24279643D01*
X14671357Y24336786D01*
X14728500Y24451071D01*
X14728500Y24508214D01*
X14671357Y24622500D01*
X14557071Y24679643D01*
X14385642Y24679643D01*
X14271357Y24622500D01*
X13528499Y23879643D02*
X13642785Y23936786D01*
X13699928Y23993929D01*
X13757071Y24108214D01*
X13757071Y24451071D01*
X13699928Y24565357D01*
X13642785Y24622500D01*
X13528499Y24679643D01*
X13357071Y24679643D01*
X13242785Y24622500D01*
X13185642Y24565357D01*
X13128499Y24451071D01*
X13128499Y24108214D01*
X13185642Y23993929D01*
X13242785Y23936786D01*
X13357071Y23879643D01*
X13528499Y23879643D01*
X12614214Y23879643D02*
X12614214Y24679643D01*
X12614214Y24451071D02*
X12557071Y24565357D01*
X12499928Y24622500D01*
X12385642Y24679643D01*
X12271357Y24679643D01*
X10557071Y24508214D02*
X10385642Y24451071D01*
X10328499Y24393929D01*
X10271356Y24279643D01*
X10271356Y24108214D01*
X10328499Y23993929D01*
X10385642Y23936786D01*
X10499928Y23879643D01*
X10957071Y23879643D01*
X10957071Y25079643D01*
X10557071Y25079643D01*
X10442785Y25022500D01*
X10385642Y24965357D01*
X10328499Y24851071D01*
X10328499Y24736786D01*
X10385642Y24622500D01*
X10442785Y24565357D01*
X10557071Y24508214D01*
X10957071Y24508214D01*
X9585642Y23879643D02*
X9699928Y23936786D01*
X9757071Y23993929D01*
X9814214Y24108214D01*
X9814214Y24451071D01*
X9757071Y24565357D01*
X9699928Y24622500D01*
X9585642Y24679643D01*
X9414214Y24679643D01*
X9299928Y24622500D01*
X9242785Y24565357D01*
X9185642Y24451071D01*
X9185642Y24108214D01*
X9242785Y23993929D01*
X9299928Y23936786D01*
X9414214Y23879643D01*
X9585642Y23879643D01*
X8157071Y23879643D02*
X8157071Y24508214D01*
X8214214Y24622500D01*
X8328500Y24679643D01*
X8557071Y24679643D01*
X8671357Y24622500D01*
X8157071Y23936786D02*
X8271357Y23879643D01*
X8557071Y23879643D01*
X8671357Y23936786D01*
X8728500Y24051071D01*
X8728500Y24165357D01*
X8671357Y24279643D01*
X8557071Y24336786D01*
X8271357Y24336786D01*
X8157071Y24393929D01*
X7585643Y23879643D02*
X7585643Y24679643D01*
X7585643Y24451071D02*
X7528500Y24565357D01*
X7471357Y24622500D01*
X7357071Y24679643D01*
X7242786Y24679643D01*
X6328500Y23879643D02*
X6328500Y25079643D01*
X6328500Y23936786D02*
X6442786Y23879643D01*
X6671357Y23879643D01*
X6785643Y23936786D01*
X6842786Y23993929D01*
X6899929Y24108214D01*
X6899929Y24451071D01*
X6842786Y24565357D01*
X6785643Y24622500D01*
X6671357Y24679643D01*
X6442786Y24679643D01*
X6328500Y24622500D01*
X13842785Y22824643D02*
X13557071Y22024643D01*
X13271357Y22824643D01*
X12585642Y23224643D02*
X12471357Y23224643D01*
X12357071Y23167500D01*
X12299928Y23110357D01*
X12242785Y22996071D01*
X12185642Y22767500D01*
X12185642Y22481786D01*
X12242785Y22253214D01*
X12299928Y22138929D01*
X12357071Y22081786D01*
X12471357Y22024643D01*
X12585642Y22024643D01*
X12699928Y22081786D01*
X12757071Y22138929D01*
X12814214Y22253214D01*
X12871357Y22481786D01*
X12871357Y22767500D01*
X12814214Y22996071D01*
X12757071Y23110357D01*
X12699928Y23167500D01*
X12585642Y23224643D01*
X11671357Y22138929D02*
X11614214Y22081786D01*
X11671357Y22024643D01*
X11728500Y22081786D01*
X11671357Y22138929D01*
X11671357Y22024643D01*
X10585642Y23224643D02*
X10814213Y23224643D01*
X10928499Y23167500D01*
X10985642Y23110357D01*
X11099928Y22938929D01*
X11157071Y22710357D01*
X11157071Y22253214D01*
X11099928Y22138929D01*
X11042785Y22081786D01*
X10928499Y22024643D01*
X10699928Y22024643D01*
X10585642Y22081786D01*
X10528499Y22138929D01*
X10471356Y22253214D01*
X10471356Y22538929D01*
X10528499Y22653214D01*
X10585642Y22710357D01*
X10699928Y22767500D01*
X10928499Y22767500D01*
X11042785Y22710357D01*
X11099928Y22653214D01*
X11157071Y22538929D01*
D10*
X31296000Y24716000D02*
G75*
G03X31296000Y24716000I-100000J0D01*
G01*
X31746000Y24966000D02*
X31246000Y24966000D01*
X31746000Y27866000D02*
X31746000Y24966000D01*
X31246000Y27866000D02*
X31746000Y27866000D01*
X31246000Y24966000D02*
X31246000Y27866000D01*
X35976000Y26557000D02*
X37176000Y26557000D01*
X37176000Y28307000D02*
X35976000Y28307000D01*
X35976000Y28589000D02*
X37176000Y28589000D01*
X37176000Y30339000D02*
X35976000Y30339000D01*
X20080000Y21301000D02*
X20080000Y20101000D01*
X21830000Y20101000D02*
X21830000Y21301000D01*
X35976000Y24525000D02*
X37176000Y24525000D01*
X37176000Y26275000D02*
X35976000Y26275000D01*
X33944000Y16905000D02*
X35144000Y16905000D01*
X35144000Y18655000D02*
X33944000Y18655000D01*
X33944000Y18937000D02*
X35144000Y18937000D01*
X35144000Y20687000D02*
X33944000Y20687000D01*
X33400905Y24550619D02*
X33400905Y23741095D01*
X33353286Y23645857D01*
X33305667Y23598238D01*
X33210429Y23550619D01*
X33019952Y23550619D01*
X32924714Y23598238D01*
X32877095Y23645857D01*
X32829476Y23741095D01*
X32829476Y24550619D01*
X32400905Y24455381D02*
X32353286Y24503000D01*
X32258048Y24550619D01*
X32019952Y24550619D01*
X31924714Y24503000D01*
X31877095Y24455381D01*
X31829476Y24360143D01*
X31829476Y24264905D01*
X31877095Y24122048D01*
X32448524Y23550619D01*
X31829476Y23550619D01*
X36806166Y27138357D02*
X36853785Y27090738D01*
X36996642Y27043119D01*
X37091880Y27043119D01*
X37234738Y27090738D01*
X37329976Y27185976D01*
X37377595Y27281214D01*
X37425214Y27471690D01*
X37425214Y27614548D01*
X37377595Y27805024D01*
X37329976Y27900262D01*
X37234738Y27995500D01*
X37091880Y28043119D01*
X36996642Y28043119D01*
X36853785Y27995500D01*
X36806166Y27947881D01*
X35853785Y27043119D02*
X36425214Y27043119D01*
X36139500Y27043119D02*
X36139500Y28043119D01*
X36234738Y27900262D01*
X36329976Y27805024D01*
X36425214Y27757405D01*
X36679166Y30694357D02*
X36726785Y30646738D01*
X36869642Y30599119D01*
X36964880Y30599119D01*
X37107738Y30646738D01*
X37202976Y30741976D01*
X37250595Y30837214D01*
X37298214Y31027690D01*
X37298214Y31170548D01*
X37250595Y31361024D01*
X37202976Y31456262D01*
X37107738Y31551500D01*
X36964880Y31599119D01*
X36869642Y31599119D01*
X36726785Y31551500D01*
X36679166Y31503881D01*
X36298214Y31503881D02*
X36250595Y31551500D01*
X36155357Y31599119D01*
X35917261Y31599119D01*
X35822023Y31551500D01*
X35774404Y31503881D01*
X35726785Y31408643D01*
X35726785Y31313405D01*
X35774404Y31170548D01*
X36345833Y30599119D01*
X35726785Y30599119D01*
X19089643Y19470666D02*
X19137262Y19518285D01*
X19184881Y19661142D01*
X19184881Y19756380D01*
X19137262Y19899238D01*
X19042024Y19994476D01*
X18946786Y20042095D01*
X18756310Y20089714D01*
X18613452Y20089714D01*
X18422976Y20042095D01*
X18327738Y19994476D01*
X18232500Y19899238D01*
X18184881Y19756380D01*
X18184881Y19661142D01*
X18232500Y19518285D01*
X18280119Y19470666D01*
X18184881Y19137333D02*
X18184881Y18518285D01*
X18565833Y18851619D01*
X18565833Y18708761D01*
X18613452Y18613523D01*
X18661071Y18565904D01*
X18756310Y18518285D01*
X18994405Y18518285D01*
X19089643Y18565904D01*
X19137262Y18613523D01*
X19184881Y18708761D01*
X19184881Y18994476D01*
X19137262Y19089714D01*
X19089643Y19137333D01*
X36615666Y23169619D02*
X36949000Y23645810D01*
X37187095Y23169619D02*
X37187095Y24169619D01*
X36806142Y24169619D01*
X36710904Y24122000D01*
X36663285Y24074381D01*
X36615666Y23979143D01*
X36615666Y23836286D01*
X36663285Y23741048D01*
X36710904Y23693429D01*
X36806142Y23645810D01*
X37187095Y23645810D01*
X36234714Y24074381D02*
X36187095Y24122000D01*
X36091857Y24169619D01*
X35853761Y24169619D01*
X35758523Y24122000D01*
X35710904Y24074381D01*
X35663285Y23979143D01*
X35663285Y23883905D01*
X35710904Y23741048D01*
X36282333Y23169619D01*
X35663285Y23169619D01*
X34774166Y15644857D02*
X34821785Y15597238D01*
X34964642Y15549619D01*
X35059880Y15549619D01*
X35202738Y15597238D01*
X35297976Y15692476D01*
X35345595Y15787714D01*
X35393214Y15978190D01*
X35393214Y16121048D01*
X35345595Y16311524D01*
X35297976Y16406762D01*
X35202738Y16502000D01*
X35059880Y16549619D01*
X34964642Y16549619D01*
X34821785Y16502000D01*
X34774166Y16454381D01*
X33917023Y16216286D02*
X33917023Y15549619D01*
X34155119Y16597238D02*
X34393214Y15882952D01*
X33774166Y15882952D01*
X34710666Y21296357D02*
X34758285Y21248738D01*
X34901142Y21201119D01*
X34996380Y21201119D01*
X35139238Y21248738D01*
X35234476Y21343976D01*
X35282095Y21439214D01*
X35329714Y21629690D01*
X35329714Y21772548D01*
X35282095Y21963024D01*
X35234476Y22058262D01*
X35139238Y22153500D01*
X34996380Y22201119D01*
X34901142Y22201119D01*
X34758285Y22153500D01*
X34710666Y22105881D01*
X33853523Y22201119D02*
X34044000Y22201119D01*
X34139238Y22153500D01*
X34186857Y22105881D01*
X34282095Y21963024D01*
X34329714Y21772548D01*
X34329714Y21391595D01*
X34282095Y21296357D01*
X34234476Y21248738D01*
X34139238Y21201119D01*
X33948761Y21201119D01*
X33853523Y21248738D01*
X33805904Y21296357D01*
X33758285Y21391595D01*
X33758285Y21629690D01*
X33805904Y21724929D01*
X33853523Y21772548D01*
X33948761Y21820167D01*
X34139238Y21820167D01*
X34234476Y21772548D01*
X34282095Y21724929D01*
X34329714Y21629690D01*
M02*
