G04 #@! TF.FileFunction,Copper,L1,Top,Signal*
%FSLAX46Y46*%
G04 Gerber Fmt 4.6, Leading zero omitted, Abs format (unit mm)*
G04 Created by KiCad (PCBNEW 4.0.2+e4-6225~38~ubuntu14.04.1-stable) date Sat Jul  9 19:21:58 2016*
%MOMM*%
G01*
G04 APERTURE LIST*
%ADD10C,0.150000*%
%ADD11R,1.198880X1.699260*%
%ADD12O,1.198880X1.699260*%
%ADD13R,1.800860X0.800100*%
%ADD14C,0.800000*%
%ADD15R,0.500380X2.301240*%
%ADD16R,1.998980X2.499360*%
%ADD17R,1.524000X1.524000*%
%ADD18C,1.524000*%
%ADD19C,2.499360*%
%ADD20R,2.199640X1.524000*%
%ADD21O,2.199640X1.524000*%
%ADD22R,1.600000X0.550000*%
%ADD23R,0.550000X1.600000*%
%ADD24R,3.599180X1.600200*%
%ADD25R,1.300000X1.500000*%
%ADD26R,1.500000X1.300000*%
%ADD27C,1.501140*%
%ADD28C,0.600000*%
%ADD29C,0.400000*%
%ADD30C,0.250000*%
G04 APERTURE END LIST*
D10*
D11*
X17701260Y3175000D03*
D12*
X19700240Y3175000D03*
X21701760Y3175000D03*
X23700740Y3175000D03*
D11*
X11064240Y3175000D03*
D12*
X13065760Y3175000D03*
D13*
X6372860Y7554000D03*
X6372860Y5654000D03*
X9375140Y6604000D03*
X13357860Y7554000D03*
X13357860Y5654000D03*
X16360140Y6604000D03*
X8912860Y11999000D03*
X8912860Y10099000D03*
X11915140Y11049000D03*
D14*
X1872000Y21380000D03*
X3145500Y21390400D03*
X4415500Y21390400D03*
X5685500Y21390400D03*
X6955500Y21390400D03*
X8225500Y21390400D03*
X9495500Y21390400D03*
X10765500Y21390400D03*
D15*
X32689800Y7005320D03*
X33489900Y7005320D03*
X34290000Y7005320D03*
X35090100Y7005320D03*
X35890200Y7005320D03*
D16*
X29839920Y6906260D03*
X29839920Y1407160D03*
X38740080Y6906260D03*
X38740080Y1407160D03*
D17*
X35560000Y38100000D03*
D18*
X38100000Y38100000D03*
X35560000Y35560000D03*
X38100000Y35560000D03*
X35560000Y33020000D03*
X38100000Y33020000D03*
D19*
X38608000Y14605000D03*
X38608000Y10795000D03*
D20*
X35052000Y11430000D03*
D21*
X35052000Y13970000D03*
D18*
X2900000Y9192000D03*
X2900000Y12192000D03*
X2900000Y15192000D03*
X3400000Y5942000D03*
X3400000Y18442000D03*
D11*
X2319020Y3175000D03*
D12*
X4318000Y3175000D03*
X6316980Y3175000D03*
D22*
X24443000Y18409000D03*
X24443000Y19209000D03*
X24443000Y20009000D03*
X24443000Y20809000D03*
X24443000Y21609000D03*
X24443000Y22409000D03*
X24443000Y23209000D03*
X24443000Y24009000D03*
D23*
X22993000Y25459000D03*
X22193000Y25459000D03*
X21393000Y25459000D03*
X20593000Y25459000D03*
X19793000Y25459000D03*
X18993000Y25459000D03*
X18193000Y25459000D03*
X17393000Y25459000D03*
D22*
X15943000Y24009000D03*
X15943000Y23209000D03*
X15943000Y22409000D03*
X15943000Y21609000D03*
X15943000Y20809000D03*
X15943000Y20009000D03*
X15943000Y19209000D03*
X15943000Y18409000D03*
D23*
X17393000Y16959000D03*
X18193000Y16959000D03*
X18993000Y16959000D03*
X19793000Y16959000D03*
X20593000Y16959000D03*
X21393000Y16959000D03*
X22193000Y16959000D03*
X22993000Y16959000D03*
D24*
X12275820Y16637000D03*
X6774180Y16637000D03*
D25*
X38354000Y20240000D03*
X38354000Y22940000D03*
D26*
X22479000Y7239000D03*
X19779000Y7239000D03*
D25*
X36068000Y22940000D03*
X36068000Y20240000D03*
X38354000Y28274000D03*
X38354000Y25574000D03*
D26*
X19859000Y9969500D03*
X22559000Y9969500D03*
D25*
X36068000Y25574000D03*
X36068000Y28274000D03*
D18*
X30480000Y29464000D03*
X27940000Y29464000D03*
X25400000Y29464000D03*
X22860000Y29464000D03*
X20320000Y29464000D03*
X17780000Y29464000D03*
D27*
X30480000Y16355060D03*
X30480000Y21236940D03*
D20*
X25654000Y13589000D03*
D21*
X25654000Y11049000D03*
D28*
X31369000Y9144000D03*
X33528000Y24130000D03*
X11176000Y6032500D03*
X33655000Y21971000D03*
X36639500Y2222500D03*
X35877500Y9080500D03*
X29464000Y9842500D03*
X5778500Y6604000D03*
X9525000Y16637000D03*
X22669500Y19050000D03*
X17843500Y20637500D03*
X20510500Y34544000D03*
X25590500Y26098500D03*
X32194500Y13906500D03*
X24063956Y26863044D03*
X20828000Y23495000D03*
X17780000Y23622000D03*
X18796000Y23622000D03*
X19367500Y22986996D03*
X28194000Y25338020D03*
X22733000Y22479000D03*
D29*
X38354000Y20240000D02*
X38354000Y17272000D01*
X38354000Y17272000D02*
X36766500Y15684500D01*
X36766500Y15684500D02*
X33591500Y15684500D01*
X33591500Y15684500D02*
X33210500Y15303500D01*
X33210500Y15303500D02*
X33210500Y11493500D01*
X33210500Y11493500D02*
X33274000Y11430000D01*
X33274000Y11430000D02*
X35052000Y11430000D01*
X38100000Y38100000D02*
X39624000Y38100000D01*
X39624000Y38100000D02*
X39624000Y20574000D01*
X39624000Y20574000D02*
X39290000Y20240000D01*
X39290000Y20240000D02*
X38354000Y20240000D01*
X31369000Y9144000D02*
X32613600Y9144000D01*
X32613600Y9144000D02*
X32689800Y9067800D01*
X36977000Y21717000D02*
X38354000Y20340000D01*
X38354000Y20340000D02*
X38354000Y20240000D01*
X35170998Y21717000D02*
X36977000Y21717000D01*
X34671000Y22987000D02*
X34671000Y22216998D01*
X34671000Y22216998D02*
X35170998Y21717000D01*
X33528000Y24130000D02*
X34671000Y22987000D01*
X32689800Y7905750D02*
X32689800Y7005320D01*
X32689800Y7005320D02*
X32689800Y9067800D01*
X32689800Y9067800D02*
X35052000Y11430000D01*
X3145500Y21390400D02*
X3145500Y20857500D01*
X10223500Y16637000D02*
X12275820Y16637000D01*
X6731000Y20129500D02*
X10223500Y16637000D01*
X3873500Y20129500D02*
X6731000Y20129500D01*
X3145500Y20857500D02*
X3873500Y20129500D01*
X13357860Y5654000D02*
X11554500Y5654000D01*
X11554500Y5654000D02*
X11176000Y6032500D01*
X36068000Y20240000D02*
X35386000Y20240000D01*
X35386000Y20240000D02*
X33655000Y21971000D01*
X38740080Y1407160D02*
X37454840Y1407160D01*
X37454840Y1407160D02*
X36639500Y2222500D01*
X35890200Y7005320D02*
X35890200Y9067800D01*
X35890200Y9067800D02*
X35877500Y9080500D01*
X38740080Y1407160D02*
X38740080Y6906260D01*
X29839920Y1407160D02*
X38740080Y1407160D01*
X29839920Y6906260D02*
X29839920Y9466580D01*
X29839920Y9466580D02*
X29464000Y9842500D01*
X6372860Y5654000D02*
X6372860Y6009640D01*
X6372860Y6009640D02*
X5778500Y6604000D01*
X8912860Y11999000D02*
X8912860Y14273530D01*
X11276330Y16637000D02*
X12275820Y16637000D01*
X8912860Y14273530D02*
X11276330Y16637000D01*
X12275820Y16637000D02*
X9525000Y16637000D01*
X23243000Y20009000D02*
X23243000Y19623500D01*
X23243000Y19623500D02*
X22669500Y19050000D01*
X22987000Y21463000D02*
X23133000Y21609000D01*
X23133000Y21609000D02*
X24443000Y21609000D01*
X22987000Y20265000D02*
X22987000Y21463000D01*
X24443000Y20009000D02*
X23243000Y20009000D01*
X23243000Y20009000D02*
X22987000Y20265000D01*
X15943000Y20809000D02*
X17672000Y20809000D01*
X17672000Y20809000D02*
X17843500Y20637500D01*
X15036000Y34544000D02*
X20086236Y34544000D01*
X20086236Y34544000D02*
X20510500Y34544000D01*
X1872000Y21380000D02*
X15036000Y34544000D01*
X8912860Y10099000D02*
X8412480Y10099000D01*
X8412480Y10099000D02*
X6774180Y11737300D01*
X6774180Y11737300D02*
X6774180Y15436900D01*
X6774180Y15436900D02*
X6774180Y16637000D01*
X1872000Y21380000D02*
X1872000Y17432000D01*
X2667000Y16637000D02*
X6774180Y16637000D01*
X1872000Y17432000D02*
X2667000Y16637000D01*
X27160499Y24528501D02*
X25890499Y25798501D01*
X29700499Y24528501D02*
X27160499Y24528501D01*
X32194500Y13906500D02*
X32194500Y22034500D01*
X25890499Y25798501D02*
X25590500Y26098500D01*
X32194500Y22034500D02*
X29700499Y24528501D01*
X2900000Y9192000D02*
X889000Y7181000D01*
X889000Y7181000D02*
X889000Y2222500D01*
X889000Y2222500D02*
X2222500Y889000D01*
X2222500Y889000D02*
X26924000Y889000D01*
X26924000Y889000D02*
X28194000Y2159000D01*
X28194000Y2159000D02*
X28194000Y3224579D01*
X28194000Y3224579D02*
X28271421Y3302000D01*
X28271421Y3302000D02*
X32766000Y3302000D01*
X32766000Y3302000D02*
X34720481Y5256481D01*
X34720481Y5256481D02*
X36307981Y5256481D01*
X36307981Y5256481D02*
X36957000Y5905500D01*
X36957000Y5905500D02*
X36957000Y9906000D01*
X36957000Y9906000D02*
X36830000Y9930180D01*
X36830000Y9930180D02*
X36830000Y12427000D01*
X36830000Y12427000D02*
X35389820Y13970000D01*
X35389820Y13970000D02*
X35052000Y13970000D01*
X35052000Y13970000D02*
X37973000Y13970000D01*
X37973000Y13970000D02*
X38608000Y14605000D01*
D30*
X38354000Y25574000D02*
X38354000Y24574000D01*
X38354000Y24574000D02*
X38354000Y22940000D01*
X36068000Y22940000D02*
X36068000Y23940000D01*
X36068000Y23940000D02*
X36068000Y25574000D01*
X21393000Y16959000D02*
X21393000Y15909000D01*
X21393000Y15909000D02*
X21382999Y15898999D01*
X21382999Y15898999D02*
X21382999Y15350499D01*
X21018500Y14986000D02*
X21018500Y8599500D01*
X21382999Y15350499D02*
X21018500Y14986000D01*
X21018500Y8599500D02*
X22379000Y7239000D01*
X22379000Y7239000D02*
X22479000Y7239000D01*
X31569112Y27760522D02*
X27800964Y27760522D01*
X27800964Y27760522D02*
X27785454Y27745012D01*
X32131000Y28322410D02*
X31569112Y27760522D01*
X32131000Y31242000D02*
X32131000Y28322410D01*
X32385000Y31496000D02*
X32131000Y31242000D01*
X27785454Y27745012D02*
X24945924Y27745012D01*
X36576000Y31496000D02*
X32385000Y31496000D01*
X38100000Y33020000D02*
X36576000Y31496000D01*
X24363955Y27163043D02*
X24063956Y26863044D01*
X24945924Y27745012D02*
X24363955Y27163043D01*
X20593000Y16959000D02*
X20593000Y18307000D01*
X20828000Y23495000D02*
X20828000Y18542000D01*
X20593000Y18307000D02*
X20828000Y18542000D01*
X19050000Y30734000D02*
X17780000Y29464000D01*
X21590000Y30734000D02*
X19050000Y30734000D01*
X21590000Y28448000D02*
X21590000Y30734000D01*
X27599054Y28195023D02*
X21842977Y28195023D01*
X27614564Y28210533D02*
X27599054Y28195023D01*
X31680989Y31428400D02*
X31680989Y28508809D01*
X35560000Y32004000D02*
X32256589Y32004000D01*
X32256589Y32004000D02*
X31680989Y31428400D01*
X21842977Y28195023D02*
X21590000Y28448000D01*
X31680989Y28508809D02*
X31382713Y28210533D01*
X31382713Y28210533D02*
X27614564Y28210533D01*
X35560000Y33020000D02*
X35560000Y32004000D01*
X9969500Y26670000D02*
X16182000Y26670000D01*
X8255000Y22630900D02*
X8255000Y24955500D01*
X9495500Y21390400D02*
X8255000Y22630900D01*
X16182000Y26670000D02*
X17393000Y25459000D01*
X8255000Y24955500D02*
X9969500Y26670000D01*
X17393000Y24009000D02*
X17393000Y25459000D01*
X17780000Y23622000D02*
X17393000Y24009000D01*
X7804989Y21810911D02*
X7804989Y25141900D01*
X18193000Y26509000D02*
X18193000Y25459000D01*
X8225500Y21390400D02*
X7804989Y21810911D01*
X7804989Y25141900D02*
X9783100Y27120011D01*
X9783100Y27120011D02*
X17581989Y27120011D01*
X17581989Y27120011D02*
X18193000Y26509000D01*
X18193000Y24225000D02*
X18193000Y25459000D01*
X18796000Y23622000D02*
X18193000Y24225000D01*
X22860000Y29464000D02*
X22860000Y30734000D01*
X34798000Y34798000D02*
X35560000Y35560000D01*
X26924000Y34798000D02*
X34798000Y34798000D01*
X22860000Y30734000D02*
X26924000Y34798000D01*
X18943236Y22986996D02*
X19367500Y22986996D01*
X17145004Y22986996D02*
X18943236Y22986996D01*
X17074801Y23057199D02*
X17145004Y22986996D01*
X15943000Y24009000D02*
X16756602Y24009000D01*
X17074801Y23690801D02*
X17074801Y23057199D01*
X16756602Y24009000D02*
X17074801Y23690801D01*
X25400000Y29464000D02*
X25400000Y32575500D01*
X25400000Y32575500D02*
X27114500Y34290000D01*
X27114500Y34290000D02*
X36830000Y34290000D01*
X36830000Y34290000D02*
X38100000Y35560000D01*
X6955500Y21390400D02*
X6955500Y20730500D01*
X7366000Y20320000D02*
X12700000Y20320000D01*
X6955500Y20730500D02*
X7366000Y20320000D01*
X12700000Y20320000D02*
X12700000Y24009000D01*
X12700000Y24009000D02*
X15943000Y24009000D01*
X5685500Y21956085D02*
X5685500Y21390400D01*
X9596700Y27570022D02*
X5685500Y23658822D01*
X18993000Y26509000D02*
X17931978Y27570022D01*
X5685500Y23658822D02*
X5685500Y21956085D01*
X18993000Y25459000D02*
X18993000Y26509000D01*
X17931978Y27570022D02*
X9596700Y27570022D01*
X17883977Y14871801D02*
X18193000Y15180823D01*
X18193000Y15180823D02*
X18193000Y15909000D01*
X17883977Y12168977D02*
X17883977Y14871801D01*
X14674011Y8959011D02*
X17883977Y12168977D01*
X11367677Y8959011D02*
X14674011Y8959011D01*
X10392656Y7983989D02*
X11367677Y8959011D01*
X7523290Y7554000D02*
X7953279Y7983989D01*
X18193000Y15909000D02*
X18193000Y16959000D01*
X6372860Y7554000D02*
X7523290Y7554000D01*
X7953279Y7983989D02*
X10392656Y7983989D01*
X13915200Y3175000D02*
X13065760Y3175000D01*
X14077477Y3175000D02*
X13915200Y3175000D01*
X16360140Y5457663D02*
X14077477Y3175000D01*
X16360140Y6604000D02*
X16360140Y5457663D01*
X28493999Y25638019D02*
X28194000Y25338020D01*
X36832499Y26652499D02*
X29508479Y26652499D01*
X38354000Y28174000D02*
X36832499Y26652499D01*
X38354000Y28274000D02*
X38354000Y28174000D01*
X29508479Y26652499D02*
X28493999Y25638019D01*
X14860411Y8509000D02*
X18333988Y11982577D01*
X8419636Y7533978D02*
X10579056Y7533978D01*
X18333988Y14685401D02*
X18993000Y15344413D01*
X7874000Y4699000D02*
X7874000Y6988342D01*
X5591810Y4699000D02*
X7874000Y4699000D01*
X4318000Y3175000D02*
X4318000Y3425190D01*
X11554078Y8509000D02*
X14860411Y8509000D01*
X18333988Y11982577D02*
X18333988Y14685401D01*
X10579056Y7533978D02*
X11554078Y8509000D01*
X18993000Y15344413D02*
X18993000Y16959000D01*
X4318000Y3425190D02*
X5591810Y4699000D01*
X7874000Y6988342D02*
X8419636Y7533978D01*
X22993000Y16959000D02*
X23518000Y16959000D01*
X23518000Y16959000D02*
X25654000Y14823000D01*
X25654000Y14823000D02*
X25654000Y14601000D01*
X25654000Y14601000D02*
X25654000Y13589000D01*
X9410300Y28020033D02*
X4415500Y23025233D01*
X18281967Y28020033D02*
X9410300Y28020033D01*
X19793000Y26509000D02*
X18281967Y28020033D01*
X4415500Y23025233D02*
X4415500Y21956085D01*
X19793000Y25459000D02*
X19793000Y26509000D01*
X4415500Y21956085D02*
X4415500Y21390400D01*
X19779000Y7239000D02*
X19779000Y9889500D01*
X19779000Y9889500D02*
X19859000Y9969500D01*
X19859000Y7319000D02*
X19779000Y7239000D01*
X17701260Y3175000D02*
X17701260Y5261260D01*
X17701260Y5261260D02*
X19679000Y7239000D01*
X19679000Y7239000D02*
X19779000Y7239000D01*
X17701260Y3175000D02*
X17701260Y2924810D01*
X17701260Y3175000D02*
X17701260Y3425190D01*
D29*
X24443000Y20809000D02*
X26905000Y20809000D01*
X26905000Y20809000D02*
X26924000Y20828000D01*
X26924000Y19211990D02*
X26924000Y20828000D01*
X26924000Y20828000D02*
X26924000Y22098000D01*
X27559000Y2372542D02*
X27559000Y9207500D01*
X27559000Y9207500D02*
X27559000Y18576990D01*
X23709000Y9969500D02*
X24471000Y9207500D01*
X22559000Y9969500D02*
X23709000Y9969500D01*
X24471000Y9207500D02*
X27559000Y9207500D01*
X27559000Y18576990D02*
X26924000Y19211990D01*
X26725698Y1539240D02*
X27559000Y2372542D01*
X11064240Y1539240D02*
X26725698Y1539240D01*
X4699000Y9144000D02*
X4699000Y8509000D01*
X4699000Y8509000D02*
X4064000Y7874000D01*
X4064000Y7874000D02*
X2794000Y7874000D01*
X2794000Y7874000D02*
X1524000Y6604000D01*
X1524000Y6604000D02*
X1524000Y5334000D01*
X1524000Y5334000D02*
X2319020Y4538980D01*
X2319020Y4538980D02*
X2319020Y3175000D01*
X4699000Y11938000D02*
X4699000Y9144000D01*
X5334000Y9144000D02*
X4699000Y9144000D01*
X11915140Y11049000D02*
X11915140Y10248950D01*
X11915140Y10248950D02*
X10810190Y9144000D01*
X10810190Y9144000D02*
X5334000Y9144000D01*
X4699000Y11938000D02*
X3154000Y11938000D01*
X11049000Y1524000D02*
X11064240Y1539240D01*
X11064240Y1539240D02*
X11064240Y3175000D01*
X2720390Y1524000D02*
X11049000Y1524000D01*
X2319020Y3175000D02*
X2319020Y1925370D01*
X2319020Y1925370D02*
X2720390Y1524000D01*
X22733000Y22479000D02*
X24373000Y22479000D01*
X24373000Y22479000D02*
X24443000Y22409000D01*
X3154000Y11938000D02*
X2900000Y12192000D01*
X26670000Y22352000D02*
X24500000Y22352000D01*
X26924000Y22098000D02*
X26670000Y22352000D01*
X26924000Y22098000D02*
X26924000Y22098000D01*
X24500000Y22352000D02*
X24443000Y22409000D01*
D30*
X23518000Y25459000D02*
X22993000Y25459000D01*
X27987364Y27310511D02*
X27971854Y27295001D01*
X32719000Y28274000D02*
X31755512Y27310511D01*
X27971854Y27295001D02*
X25420917Y27295001D01*
X36068000Y28274000D02*
X32719000Y28274000D01*
X23584916Y25459000D02*
X23518000Y25459000D01*
X25420917Y27295001D02*
X23584916Y25459000D01*
X31755512Y27310511D02*
X27987364Y27310511D01*
X19700240Y3175000D02*
X19700240Y3190240D01*
X19700240Y3190240D02*
X22479000Y5969000D01*
X22479000Y5969000D02*
X23876000Y5969000D01*
X23876000Y5969000D02*
X23876000Y8636000D01*
X23876000Y8636000D02*
X21844000Y8636000D01*
X21844000Y8636000D02*
X21483999Y8996001D01*
X21483999Y8996001D02*
X21483999Y14689499D01*
X21483999Y14689499D02*
X22193000Y15398500D01*
X22193000Y15398500D02*
X22193000Y16959000D01*
X19700240Y3175000D02*
X19700240Y2924810D01*
X24443000Y23209000D02*
X28099000Y23209000D01*
X28099000Y23209000D02*
X28448000Y22860000D01*
X28448000Y22860000D02*
X28448000Y17018000D01*
X28448000Y17018000D02*
X29110940Y16355060D01*
X29110940Y16355060D02*
X30480000Y16355060D01*
X25493000Y24009000D02*
X24443000Y24009000D01*
X25516011Y23985989D02*
X25493000Y24009000D01*
X28344011Y23985989D02*
X25516011Y23985989D01*
X30480000Y21850000D02*
X28344011Y23985989D01*
X20320000Y29464000D02*
X20320000Y27940000D01*
X20593000Y27667000D02*
X20593000Y25459000D01*
X20320000Y27940000D02*
X20593000Y27667000D01*
X18783999Y11796177D02*
X18783999Y14499001D01*
X19793000Y15508002D02*
X19793000Y15909000D01*
X19793000Y15909000D02*
X19793000Y16959000D01*
X18783999Y14499001D02*
X19793000Y15508002D01*
X14541822Y7554000D02*
X18783999Y11796177D01*
X13357860Y7554000D02*
X14541822Y7554000D01*
X7166420Y3175000D02*
X6316980Y3175000D01*
X9375140Y5383720D02*
X7166420Y3175000D01*
X9375140Y6604000D02*
X9375140Y5383720D01*
M02*
