M48
;DRILL file {KiCad 4.0.2+e4-6225~38~ubuntu14.04.1-stable} date Sat Jul  9 19:24:24 2016
;FORMAT={-:-/ absolute / metric / decimal}
FMAT,2
METRIC,TZ
T1C0.400
T2C0.701
T3C0.800
T4C0.900
T5C1.000
T6C1.001
T7C1.016
T8C1.200
%
G90
G05
M71
T1
X5.778Y6.604
X9.525Y16.637
X11.176Y6.032
X17.78Y23.622
X17.843Y20.637
X18.796Y23.622
X19.367Y22.987
X20.511Y34.544
X20.828Y23.495
X22.669Y19.05
X22.733Y22.479
X24.064Y26.863
X25.59Y26.098
X28.194Y25.338
X29.464Y9.842
X31.369Y9.144
X32.194Y13.906
X33.528Y24.13
X33.655Y21.971
X35.877Y9.08
X36.639Y2.222
T2
X2.319Y3.175
X4.318Y3.175
X6.317Y3.175
X11.064Y3.175
X13.066Y3.175
X17.701Y3.175
X19.7Y3.175
X21.702Y3.175
X23.701Y3.175
T3
X30.48Y21.237
X30.48Y16.355
T4
X2.9Y15.192
X2.9Y12.192
X2.9Y9.192
T5
X17.78Y29.464
X20.32Y29.464
X22.86Y29.464
X25.4Y29.464
X27.94Y29.464
X30.48Y29.464
T6
X25.654Y13.589
X25.654Y11.049
X35.052Y13.97
X35.052Y11.43
X38.608Y14.605
X38.608Y10.795
T7
X35.56Y38.1
X35.56Y35.56
X35.56Y33.02
X38.1Y38.1
X38.1Y35.56
X38.1Y33.02
T8
X3.4Y18.442
X3.4Y5.942
T0
M30
