M48
METRIC,TZ
T1C0.400
T2C0.701
T3C0.762
T4C0.900
T5C1.001
T6C1.016
T7C1.200
T8C0.899
%
G90
G05
T1
X3.683Y23.241
X7.47Y31.74
X7.498Y29.718
X8.297Y29.749
X8.382Y32.19
X9.152Y29.719
X9.936Y16.645
X15.367Y22.352
X15.748Y24.13
X15.938Y18.86
X21.717Y14.986
X22.616Y25.884
X22.733Y8.89
X22.86Y33.919
X23.114Y31.75
X23.241Y27.305
X23.368Y33.02
X27.559Y21.59
X29.845Y20.066
X31.877Y2.667
X32.639Y11.684
X32.893Y15.05
X37.592Y26.924
T2
X2.334Y5.461
X4.333Y5.461
X6.335Y5.461
X8.334Y5.461
X14.003Y5.461
X16.002Y5.461
X18.001Y5.461
X23.764Y5.461
X25.766Y5.461
T3
X17.907Y37.973
X20.447Y37.973
X22.987Y37.973
X25.527Y37.973
T4
X6.964Y16.843
X6.964Y13.843
X6.964Y10.843
T5
X29.464Y12.954
X29.464Y10.414
X34.925Y18.415
X37.465Y18.415
X38.1Y14.859
X38.1Y11.049
T6
X34.798Y37.846
X34.798Y35.306
X34.798Y32.766
X37.338Y37.846
X37.338Y35.306
X37.338Y32.766
T7
X7.464Y20.093
X7.464Y7.593
T8
X32.09Y4.407
X36.49Y4.407
T0
M30
