G04 #@! TF.FileFunction,Copper,L2,Bot,Signal*
%FSLAX46Y46*%
G04 Gerber Fmt 4.6, Leading zero omitted, Abs format (unit mm)*
G04 Created by KiCad (PCBNEW 0.201512031508+6343~38~ubuntu14.04.1-stable) date Do 07 Jan 2016 08:44:42 CET*
%MOMM*%
G01*
G04 APERTURE LIST*
%ADD10C,0.150000*%
%ADD11C,1.524000*%
%ADD12R,1.524000X1.524000*%
%ADD13C,2.499360*%
%ADD14R,1.198880X1.699260*%
%ADD15O,1.198880X1.699260*%
%ADD16R,1.524000X2.199640*%
%ADD17O,1.524000X2.199640*%
%ADD18R,2.199640X1.524000*%
%ADD19O,2.199640X1.524000*%
%ADD20C,0.600000*%
%ADD21C,0.400000*%
%ADD22C,0.250000*%
%ADD23C,0.254000*%
G04 APERTURE END LIST*
D10*
D11*
X25527000Y37973000D03*
X22987000Y37973000D03*
X20447000Y37973000D03*
X17907000Y37973000D03*
D12*
X34798000Y37846000D03*
D11*
X37338000Y37846000D03*
X34798000Y35306000D03*
X37338000Y35306000D03*
X34798000Y32766000D03*
X37338000Y32766000D03*
D13*
X38100000Y14859000D03*
X38100000Y11049000D03*
D14*
X2334260Y5461000D03*
D15*
X4333240Y5461000D03*
X6334760Y5461000D03*
X8333740Y5461000D03*
D14*
X14003020Y5461000D03*
D15*
X16002000Y5461000D03*
X18000980Y5461000D03*
D14*
X23764240Y5461000D03*
D15*
X25765760Y5461000D03*
D16*
X34925000Y18415000D03*
D17*
X37465000Y18415000D03*
D18*
X29464000Y10414000D03*
D19*
X29464000Y12954000D03*
D11*
X6964000Y10843000D03*
X6964000Y13843000D03*
X6964000Y16843000D03*
X7464000Y7593000D03*
X7464000Y20093000D03*
D20*
X32893000Y15049500D03*
X32639000Y11684000D03*
X29845000Y20066000D03*
X21717000Y14986000D03*
X22733000Y8890000D03*
X15938500Y18859500D03*
X37592000Y26924000D03*
X31877000Y2667000D03*
X27559000Y21590000D03*
X15748000Y24130000D03*
X3683000Y23241000D03*
X22860000Y33918980D03*
X23368000Y33020000D03*
X9151975Y29719340D03*
X8297434Y29748711D03*
X8382000Y32190031D03*
X7498016Y29717896D03*
X7469966Y31740020D03*
X23114000Y31750000D03*
X23241000Y27305000D03*
X9936500Y16645002D03*
X15367000Y22352000D03*
X22615980Y25883634D03*
D21*
X32639000Y11684000D02*
X32639000Y14795500D01*
X32639000Y14795500D02*
X32893000Y15049500D01*
X21717000Y14986000D02*
X26797000Y20066000D01*
X26797000Y20066000D02*
X29845000Y20066000D01*
D22*
X22860000Y38100000D02*
X22860000Y33918980D01*
X9151975Y29719340D02*
X9151975Y33020000D01*
X9151975Y33020000D02*
X22943736Y33020000D01*
X22943736Y33020000D02*
X23368000Y33020000D01*
X8382000Y29833277D02*
X8297434Y29748711D01*
X8382000Y32190031D02*
X8382000Y29833277D01*
X7469966Y29745946D02*
X7498016Y29717896D01*
X7469966Y31740020D02*
X7469966Y29745946D01*
X17907000Y37973000D02*
X19304000Y39370000D01*
X19304000Y39370000D02*
X27178000Y39370000D01*
X27178000Y39370000D02*
X27178000Y27305000D01*
X27178000Y27305000D02*
X18000980Y18127980D01*
X18000980Y18127980D02*
X18000980Y5461000D01*
X4333240Y5461000D02*
X4333240Y2651760D01*
X4333240Y2651760D02*
X4699000Y2286000D01*
X4699000Y2286000D02*
X15748000Y2286000D01*
X15748000Y2286000D02*
X16002000Y2540000D01*
X16002000Y2540000D02*
X16002000Y5461000D01*
X23241000Y27305000D02*
X23241000Y31623000D01*
X23241000Y31623000D02*
X23114000Y31750000D01*
D21*
X6964000Y13843000D02*
X9766002Y16645002D01*
X9766002Y16645002D02*
X9936500Y16645002D01*
X22615980Y25883634D02*
X18898634Y25883634D01*
X18898634Y25883634D02*
X15367000Y22352000D01*
X22813999Y25862001D02*
X22637613Y25862001D01*
X23113998Y26162000D02*
X22813999Y25862001D01*
X25400000Y38100000D02*
X25400000Y28448002D01*
X22637613Y25862001D02*
X22615980Y25883634D01*
X25400000Y28448002D02*
X23113998Y26162000D01*
D23*
G36*
X17116697Y39158010D02*
X16723371Y38765370D01*
X16510243Y38252100D01*
X16509758Y37696339D01*
X16721990Y37182697D01*
X17114630Y36789371D01*
X17627900Y36576243D01*
X18183661Y36575758D01*
X18697303Y36787990D01*
X19090629Y37180630D01*
X19176949Y37388512D01*
X19261990Y37182697D01*
X19654630Y36789371D01*
X20167900Y36576243D01*
X20723661Y36575758D01*
X21237303Y36787990D01*
X21630629Y37180630D01*
X21716949Y37388512D01*
X21801990Y37182697D01*
X22100000Y36884166D01*
X22100000Y34481443D01*
X22067808Y34449307D01*
X21925162Y34105779D01*
X21924878Y33780000D01*
X9151975Y33780000D01*
X8861136Y33722148D01*
X8614574Y33557401D01*
X8449827Y33310839D01*
X8412862Y33125005D01*
X8196833Y33125193D01*
X7853057Y32983148D01*
X7589808Y32720358D01*
X7570946Y32674933D01*
X7284799Y32675182D01*
X6941023Y32533137D01*
X6677774Y32270347D01*
X6535128Y31926819D01*
X6534804Y31554853D01*
X6676849Y31211077D01*
X6709966Y31177902D01*
X6709966Y30252358D01*
X6705824Y30248223D01*
X6563178Y29904695D01*
X6562854Y29532729D01*
X6704899Y29188953D01*
X6967689Y28925704D01*
X7311217Y28783058D01*
X7683183Y28782734D01*
X7935025Y28886793D01*
X8110635Y28813873D01*
X8482601Y28813549D01*
X8689422Y28899006D01*
X8965176Y28784502D01*
X9337142Y28784178D01*
X9680918Y28926223D01*
X9944167Y29189013D01*
X10086813Y29532541D01*
X10087137Y29904507D01*
X9945092Y30248283D01*
X9911975Y30281458D01*
X9911975Y32260000D01*
X22313367Y32260000D01*
X22179162Y31936799D01*
X22178838Y31564833D01*
X22320883Y31221057D01*
X22481000Y31060660D01*
X22481000Y27867463D01*
X22448808Y27835327D01*
X22306162Y27491799D01*
X22305838Y27119833D01*
X22430310Y26818588D01*
X22188402Y26718634D01*
X18898634Y26718634D01*
X18579094Y26655074D01*
X18308200Y26474068D01*
X15078667Y23244535D01*
X14838057Y23145117D01*
X14574808Y22882327D01*
X14432162Y22538799D01*
X14431838Y22166833D01*
X14573883Y21823057D01*
X14836673Y21559808D01*
X15180201Y21417162D01*
X15552167Y21416838D01*
X15895943Y21558883D01*
X16159192Y21821673D01*
X16259778Y22063910D01*
X19244502Y25048634D01*
X22188746Y25048634D01*
X22429181Y24948796D01*
X22801147Y24948472D01*
X23144923Y25090517D01*
X23168102Y25113656D01*
X23404433Y25271567D01*
X25990434Y27857568D01*
X26090380Y28007148D01*
X26171439Y28128461D01*
X26235000Y28448002D01*
X26235000Y36753983D01*
X26317303Y36787990D01*
X26418000Y36888511D01*
X26418000Y27619802D01*
X17463579Y18665381D01*
X17298832Y18418819D01*
X17240980Y18127980D01*
X17240980Y6688582D01*
X17128099Y6613157D01*
X17001490Y6423673D01*
X16874881Y6613157D01*
X16474400Y6880750D01*
X16002000Y6974716D01*
X15529600Y6880750D01*
X15152375Y6628696D01*
X15066550Y6762071D01*
X14854350Y6907061D01*
X14602460Y6958070D01*
X13403580Y6958070D01*
X13168263Y6913792D01*
X12952139Y6774720D01*
X12807149Y6562520D01*
X12756140Y6310630D01*
X12756140Y4611370D01*
X12800418Y4376053D01*
X12939490Y4159929D01*
X13151690Y4014939D01*
X13403580Y3963930D01*
X14602460Y3963930D01*
X14837777Y4008208D01*
X15053901Y4147280D01*
X15153267Y4292708D01*
X15242000Y4233418D01*
X15242000Y3046000D01*
X5093240Y3046000D01*
X5093240Y4233418D01*
X5206121Y4308843D01*
X5336318Y4503696D01*
X5505803Y4279432D01*
X5925327Y4033101D01*
X6017239Y4017905D01*
X6207760Y4142643D01*
X6207760Y5334000D01*
X6187760Y5334000D01*
X6187760Y5588000D01*
X6207760Y5588000D01*
X6207760Y5608000D01*
X6461760Y5608000D01*
X6461760Y5588000D01*
X6481760Y5588000D01*
X6481760Y5334000D01*
X6461760Y5334000D01*
X6461760Y4142643D01*
X6652281Y4017905D01*
X6744193Y4033101D01*
X7163717Y4279432D01*
X7331854Y4501912D01*
X7460859Y4308843D01*
X7861340Y4041250D01*
X8333740Y3947284D01*
X8806140Y4041250D01*
X9206621Y4308843D01*
X9474214Y4709324D01*
X9568180Y5181724D01*
X9568180Y5740276D01*
X9474214Y6212676D01*
X9206621Y6613157D01*
X8806140Y6880750D01*
X8690453Y6903762D01*
X8860757Y7313900D01*
X8861242Y7869661D01*
X8649010Y8383303D01*
X8256370Y8776629D01*
X7743100Y8989757D01*
X7187339Y8990242D01*
X6673697Y8778010D01*
X6280371Y8385370D01*
X6067243Y7872100D01*
X6066758Y7316339D01*
X6219931Y6945630D01*
X6207758Y6945630D01*
X6207758Y6779358D01*
X6017239Y6904095D01*
X5925327Y6888899D01*
X5505803Y6642568D01*
X5336318Y6418304D01*
X5206121Y6613157D01*
X4805640Y6880750D01*
X4333240Y6974716D01*
X3860840Y6880750D01*
X3483615Y6628696D01*
X3397790Y6762071D01*
X3185590Y6907061D01*
X2933700Y6958070D01*
X1734820Y6958070D01*
X1499503Y6913792D01*
X1283379Y6774720D01*
X1138389Y6562520D01*
X1087380Y6310630D01*
X1087380Y4611370D01*
X1131658Y4376053D01*
X1270730Y4159929D01*
X1482930Y4014939D01*
X1734820Y3963930D01*
X2933700Y3963930D01*
X3169017Y4008208D01*
X3385141Y4147280D01*
X3484507Y4292708D01*
X3573240Y4233418D01*
X3573240Y2651760D01*
X3631092Y2360921D01*
X3795839Y2114359D01*
X4161599Y1748599D01*
X4408161Y1583852D01*
X4699000Y1526000D01*
X15748000Y1526000D01*
X16038839Y1583852D01*
X16285401Y1748599D01*
X16539401Y2002599D01*
X16704148Y2249160D01*
X16762000Y2540000D01*
X16762000Y4233418D01*
X16874881Y4308843D01*
X17001490Y4498327D01*
X17128099Y4308843D01*
X17528580Y4041250D01*
X18000980Y3947284D01*
X18473380Y4041250D01*
X18873861Y4308843D01*
X19141454Y4709324D01*
X19235420Y5181724D01*
X19235420Y5740276D01*
X19141454Y6212676D01*
X19076004Y6310630D01*
X22517360Y6310630D01*
X22517360Y4611370D01*
X22561638Y4376053D01*
X22700710Y4159929D01*
X22912910Y4014939D01*
X23164800Y3963930D01*
X24363680Y3963930D01*
X24598997Y4008208D01*
X24815121Y4147280D01*
X24915284Y4293873D01*
X25293360Y4041250D01*
X25765760Y3947284D01*
X26238160Y4041250D01*
X26463937Y4192110D01*
X31005592Y4192110D01*
X31170362Y3793337D01*
X31475193Y3487974D01*
X31873677Y3322509D01*
X32305150Y3322132D01*
X32703923Y3486902D01*
X33009286Y3791733D01*
X33174751Y4190217D01*
X33174752Y4192110D01*
X35404872Y4192110D01*
X35569642Y3793337D01*
X35874473Y3487974D01*
X36272957Y3322509D01*
X36704430Y3322132D01*
X37103203Y3486902D01*
X37408566Y3791733D01*
X37574031Y4190217D01*
X37574408Y4621690D01*
X37409638Y5020463D01*
X37104807Y5325826D01*
X36706323Y5491291D01*
X36274850Y5491668D01*
X35876077Y5326898D01*
X35570714Y5022067D01*
X35405249Y4623583D01*
X35404872Y4192110D01*
X33174752Y4192110D01*
X33175128Y4621690D01*
X33010358Y5020463D01*
X32705527Y5325826D01*
X32307043Y5491291D01*
X31875570Y5491668D01*
X31476797Y5326898D01*
X31171434Y5022067D01*
X31005969Y4623583D01*
X31005592Y4192110D01*
X26463937Y4192110D01*
X26638641Y4308843D01*
X26906234Y4709324D01*
X27000200Y5181724D01*
X27000200Y5740276D01*
X26906234Y6212676D01*
X26638641Y6613157D01*
X26238160Y6880750D01*
X25765760Y6974716D01*
X25293360Y6880750D01*
X24914358Y6627509D01*
X24827770Y6762071D01*
X24615570Y6907061D01*
X24363680Y6958070D01*
X23164800Y6958070D01*
X22929483Y6913792D01*
X22713359Y6774720D01*
X22568369Y6562520D01*
X22517360Y6310630D01*
X19076004Y6310630D01*
X18873861Y6613157D01*
X18760980Y6688582D01*
X18760980Y11176000D01*
X27716740Y11176000D01*
X27716740Y9652000D01*
X27761018Y9416683D01*
X27900090Y9200559D01*
X28112290Y9055569D01*
X28364180Y9004560D01*
X30563820Y9004560D01*
X30799137Y9048838D01*
X31015261Y9187910D01*
X31160251Y9400110D01*
X31211260Y9652000D01*
X31211260Y11176000D01*
X31166982Y11411317D01*
X31110667Y11498833D01*
X31703838Y11498833D01*
X31845883Y11155057D01*
X32108673Y10891808D01*
X32452201Y10749162D01*
X32824167Y10748838D01*
X33167943Y10890883D01*
X33431192Y11153673D01*
X33522313Y11373117D01*
X36205929Y11373117D01*
X36226072Y10623616D01*
X36474141Y10024725D01*
X36766911Y9895517D01*
X37920395Y11049000D01*
X36766911Y12202483D01*
X36474141Y12073275D01*
X36205929Y11373117D01*
X33522313Y11373117D01*
X33573838Y11497201D01*
X33574162Y11869167D01*
X33474000Y12111578D01*
X33474000Y14308349D01*
X33685192Y14519173D01*
X33827838Y14862701D01*
X33828162Y15234667D01*
X33686117Y15578443D01*
X33423327Y15841692D01*
X33079799Y15984338D01*
X32707833Y15984662D01*
X32364057Y15842617D01*
X32100808Y15579827D01*
X31973887Y15274169D01*
X31867561Y15115041D01*
X31804000Y14795500D01*
X31804000Y12111234D01*
X31704162Y11870799D01*
X31703838Y11498833D01*
X31110667Y11498833D01*
X31027910Y11627441D01*
X30815710Y11772431D01*
X30586133Y11818921D01*
X30879450Y12055974D01*
X31141080Y12536723D01*
X31156040Y12610930D01*
X31033540Y12827000D01*
X29591000Y12827000D01*
X29591000Y12807000D01*
X29337000Y12807000D01*
X29337000Y12827000D01*
X27894460Y12827000D01*
X27771960Y12610930D01*
X27786920Y12536723D01*
X28048550Y12055974D01*
X28341546Y11819181D01*
X28128863Y11779162D01*
X27912739Y11640090D01*
X27767749Y11427890D01*
X27716740Y11176000D01*
X18760980Y11176000D01*
X18760980Y13297070D01*
X27771960Y13297070D01*
X27894460Y13081000D01*
X29337000Y13081000D01*
X29337000Y14351000D01*
X29591000Y14351000D01*
X29591000Y13081000D01*
X31033540Y13081000D01*
X31156040Y13297070D01*
X31141080Y13371277D01*
X30879450Y13852026D01*
X30453761Y14196059D01*
X29928820Y14351000D01*
X29591000Y14351000D01*
X29337000Y14351000D01*
X28999180Y14351000D01*
X28474239Y14196059D01*
X28048550Y13852026D01*
X27786920Y13371277D01*
X27771960Y13297070D01*
X18760980Y13297070D01*
X18760980Y14800833D01*
X20781838Y14800833D01*
X20923883Y14457057D01*
X21186673Y14193808D01*
X21530201Y14051162D01*
X21902167Y14050838D01*
X22245943Y14192883D01*
X22509192Y14455673D01*
X22609778Y14697910D01*
X27142868Y19231000D01*
X29417766Y19231000D01*
X29658201Y19131162D01*
X30030167Y19130838D01*
X30373943Y19272883D01*
X30637192Y19535673D01*
X30779838Y19879201D01*
X30780162Y20251167D01*
X30638117Y20594943D01*
X30375327Y20858192D01*
X30031799Y21000838D01*
X29659833Y21001162D01*
X29417422Y20901000D01*
X26797000Y20901000D01*
X26477459Y20837439D01*
X26206566Y20656434D01*
X21428667Y15878535D01*
X21188057Y15779117D01*
X20924808Y15516327D01*
X20782162Y15172799D01*
X20781838Y14800833D01*
X18760980Y14800833D01*
X18760980Y17813178D01*
X27715401Y26767599D01*
X27880148Y27014161D01*
X27938000Y27305000D01*
X27938000Y35029339D01*
X33400758Y35029339D01*
X33612990Y34515697D01*
X34005630Y34122371D01*
X34213512Y34036051D01*
X34007697Y33951010D01*
X33614371Y33558370D01*
X33401243Y33045100D01*
X33400758Y32489339D01*
X33612990Y31975697D01*
X34005630Y31582371D01*
X34518900Y31369243D01*
X35074661Y31368758D01*
X35588303Y31580990D01*
X35981629Y31973630D01*
X36067949Y32181512D01*
X36152990Y31975697D01*
X36545630Y31582371D01*
X37058900Y31369243D01*
X37614661Y31368758D01*
X38128303Y31580990D01*
X38521629Y31973630D01*
X38734757Y32486900D01*
X38735242Y33042661D01*
X38523010Y33556303D01*
X38130370Y33949629D01*
X37922488Y34035949D01*
X38128303Y34120990D01*
X38521629Y34513630D01*
X38734757Y35026900D01*
X38735242Y35582661D01*
X38523010Y36096303D01*
X38130370Y36489629D01*
X37922488Y36575949D01*
X38128303Y36660990D01*
X38521629Y37053630D01*
X38734757Y37566900D01*
X38735242Y38122661D01*
X38523010Y38636303D01*
X38130370Y39029629D01*
X37617100Y39242757D01*
X37061339Y39243242D01*
X36547697Y39031010D01*
X36195000Y38678928D01*
X36195000Y38734309D01*
X36098327Y38967698D01*
X35919699Y39146327D01*
X35686310Y39243000D01*
X35083750Y39243000D01*
X34925000Y39084250D01*
X34925000Y37973000D01*
X34945000Y37973000D01*
X34945000Y37719000D01*
X34925000Y37719000D01*
X34925000Y37699000D01*
X34671000Y37699000D01*
X34671000Y37719000D01*
X33559750Y37719000D01*
X33401000Y37560250D01*
X33401000Y36957691D01*
X33497673Y36724302D01*
X33676301Y36545673D01*
X33909690Y36449000D01*
X33965614Y36449000D01*
X33614371Y36098370D01*
X33401243Y35585100D01*
X33400758Y35029339D01*
X27938000Y35029339D01*
X27938000Y38734309D01*
X33401000Y38734309D01*
X33401000Y38131750D01*
X33559750Y37973000D01*
X34671000Y37973000D01*
X34671000Y39084250D01*
X34512250Y39243000D01*
X33909690Y39243000D01*
X33676301Y39146327D01*
X33497673Y38967698D01*
X33401000Y38734309D01*
X27938000Y38734309D01*
X27938000Y39290000D01*
X39290000Y39290000D01*
X39290000Y16334590D01*
X39168979Y16455822D01*
X38476531Y16743352D01*
X37955737Y16743806D01*
X37999609Y16752533D01*
X38452828Y17055365D01*
X38755660Y17508584D01*
X38862000Y18043193D01*
X38862000Y18786807D01*
X38755660Y19321416D01*
X38452828Y19774635D01*
X37999609Y20077467D01*
X37465000Y20183807D01*
X36930391Y20077467D01*
X36477172Y19774635D01*
X36327657Y19550870D01*
X36290162Y19750137D01*
X36151090Y19966261D01*
X35938890Y20111251D01*
X35687000Y20162260D01*
X34163000Y20162260D01*
X33927683Y20117982D01*
X33711559Y19978910D01*
X33566569Y19766710D01*
X33515560Y19514820D01*
X33515560Y17315180D01*
X33559838Y17079863D01*
X33698910Y16863739D01*
X33911110Y16718749D01*
X34163000Y16667740D01*
X35687000Y16667740D01*
X35922317Y16712018D01*
X36138441Y16851090D01*
X36283431Y17063290D01*
X36327260Y17279724D01*
X36477172Y17055365D01*
X36930391Y16752533D01*
X37465000Y16646193D01*
X37513270Y16655794D01*
X37033809Y16457686D01*
X36503178Y15927979D01*
X36215648Y15235531D01*
X36214994Y14485759D01*
X36501314Y13792809D01*
X37031021Y13262178D01*
X37723469Y12974648D01*
X38473241Y12973994D01*
X39166191Y13260314D01*
X39290000Y13383907D01*
X39290000Y12418608D01*
X39253482Y12382090D01*
X39124275Y12674859D01*
X38424117Y12943071D01*
X37674616Y12922928D01*
X37075725Y12674859D01*
X36946517Y12382089D01*
X38100000Y11228605D01*
X38114142Y11242748D01*
X38293748Y11063142D01*
X38279605Y11049000D01*
X38293748Y11034858D01*
X38114142Y10855252D01*
X38100000Y10869395D01*
X36946517Y9715911D01*
X37075725Y9423141D01*
X37775883Y9154929D01*
X38525384Y9175072D01*
X39124275Y9423141D01*
X39253482Y9715910D01*
X39290000Y9679392D01*
X39290000Y710000D01*
X710000Y710000D01*
X710000Y10566339D01*
X5566758Y10566339D01*
X5778990Y10052697D01*
X6171630Y9659371D01*
X6684900Y9446243D01*
X7240661Y9445758D01*
X7754303Y9657990D01*
X8147629Y10050630D01*
X8360757Y10563900D01*
X8361242Y11119661D01*
X8149010Y11633303D01*
X7756370Y12026629D01*
X7243100Y12239757D01*
X6687339Y12240242D01*
X6173697Y12028010D01*
X5780371Y11635370D01*
X5567243Y11122100D01*
X5566758Y10566339D01*
X710000Y10566339D01*
X710000Y13566339D01*
X5566758Y13566339D01*
X5778990Y13052697D01*
X6171630Y12659371D01*
X6684900Y12446243D01*
X7240661Y12445758D01*
X7754303Y12657990D01*
X8147629Y13050630D01*
X8360757Y13563900D01*
X8361189Y14059321D01*
X10011804Y15709936D01*
X10121667Y15709840D01*
X10465443Y15851885D01*
X10728692Y16114675D01*
X10871338Y16458203D01*
X10871662Y16830169D01*
X10729617Y17173945D01*
X10466827Y17437194D01*
X10123299Y17579840D01*
X9751333Y17580164D01*
X9407557Y17438119D01*
X9263128Y17293942D01*
X9175568Y17235436D01*
X8260945Y16320813D01*
X8373144Y16635302D01*
X8345362Y17190368D01*
X8186397Y17574143D01*
X7944213Y17643608D01*
X7143605Y16843000D01*
X7157748Y16828857D01*
X6978143Y16649252D01*
X6964000Y16663395D01*
X6163392Y15862787D01*
X6232857Y15620603D01*
X6756302Y15433856D01*
X7311368Y15461638D01*
X7465694Y15525562D01*
X7179944Y15239812D01*
X6687339Y15240242D01*
X6173697Y15028010D01*
X5780371Y14635370D01*
X5567243Y14122100D01*
X5566758Y13566339D01*
X710000Y13566339D01*
X710000Y17050698D01*
X5554856Y17050698D01*
X5582638Y16495632D01*
X5741603Y16111857D01*
X5983787Y16042392D01*
X6784395Y16843000D01*
X5983787Y17643608D01*
X5741603Y17574143D01*
X5554856Y17050698D01*
X710000Y17050698D01*
X710000Y17823213D01*
X6163392Y17823213D01*
X6964000Y17022605D01*
X7764608Y17823213D01*
X7695143Y18065397D01*
X7171698Y18252144D01*
X6616632Y18224362D01*
X6232857Y18065397D01*
X6163392Y17823213D01*
X710000Y17823213D01*
X710000Y19816339D01*
X6066758Y19816339D01*
X6278990Y19302697D01*
X6671630Y18909371D01*
X7184900Y18696243D01*
X7740661Y18695758D01*
X8254303Y18907990D01*
X8647629Y19300630D01*
X8860757Y19813900D01*
X8861242Y20369661D01*
X8649010Y20883303D01*
X8256370Y21276629D01*
X7743100Y21489757D01*
X7187339Y21490242D01*
X6673697Y21278010D01*
X6280371Y20885370D01*
X6067243Y20372100D01*
X6066758Y19816339D01*
X710000Y19816339D01*
X710000Y39290000D01*
X17436138Y39290000D01*
X17116697Y39158010D01*
X17116697Y39158010D01*
G37*
X17116697Y39158010D02*
X16723371Y38765370D01*
X16510243Y38252100D01*
X16509758Y37696339D01*
X16721990Y37182697D01*
X17114630Y36789371D01*
X17627900Y36576243D01*
X18183661Y36575758D01*
X18697303Y36787990D01*
X19090629Y37180630D01*
X19176949Y37388512D01*
X19261990Y37182697D01*
X19654630Y36789371D01*
X20167900Y36576243D01*
X20723661Y36575758D01*
X21237303Y36787990D01*
X21630629Y37180630D01*
X21716949Y37388512D01*
X21801990Y37182697D01*
X22100000Y36884166D01*
X22100000Y34481443D01*
X22067808Y34449307D01*
X21925162Y34105779D01*
X21924878Y33780000D01*
X9151975Y33780000D01*
X8861136Y33722148D01*
X8614574Y33557401D01*
X8449827Y33310839D01*
X8412862Y33125005D01*
X8196833Y33125193D01*
X7853057Y32983148D01*
X7589808Y32720358D01*
X7570946Y32674933D01*
X7284799Y32675182D01*
X6941023Y32533137D01*
X6677774Y32270347D01*
X6535128Y31926819D01*
X6534804Y31554853D01*
X6676849Y31211077D01*
X6709966Y31177902D01*
X6709966Y30252358D01*
X6705824Y30248223D01*
X6563178Y29904695D01*
X6562854Y29532729D01*
X6704899Y29188953D01*
X6967689Y28925704D01*
X7311217Y28783058D01*
X7683183Y28782734D01*
X7935025Y28886793D01*
X8110635Y28813873D01*
X8482601Y28813549D01*
X8689422Y28899006D01*
X8965176Y28784502D01*
X9337142Y28784178D01*
X9680918Y28926223D01*
X9944167Y29189013D01*
X10086813Y29532541D01*
X10087137Y29904507D01*
X9945092Y30248283D01*
X9911975Y30281458D01*
X9911975Y32260000D01*
X22313367Y32260000D01*
X22179162Y31936799D01*
X22178838Y31564833D01*
X22320883Y31221057D01*
X22481000Y31060660D01*
X22481000Y27867463D01*
X22448808Y27835327D01*
X22306162Y27491799D01*
X22305838Y27119833D01*
X22430310Y26818588D01*
X22188402Y26718634D01*
X18898634Y26718634D01*
X18579094Y26655074D01*
X18308200Y26474068D01*
X15078667Y23244535D01*
X14838057Y23145117D01*
X14574808Y22882327D01*
X14432162Y22538799D01*
X14431838Y22166833D01*
X14573883Y21823057D01*
X14836673Y21559808D01*
X15180201Y21417162D01*
X15552167Y21416838D01*
X15895943Y21558883D01*
X16159192Y21821673D01*
X16259778Y22063910D01*
X19244502Y25048634D01*
X22188746Y25048634D01*
X22429181Y24948796D01*
X22801147Y24948472D01*
X23144923Y25090517D01*
X23168102Y25113656D01*
X23404433Y25271567D01*
X25990434Y27857568D01*
X26090380Y28007148D01*
X26171439Y28128461D01*
X26235000Y28448002D01*
X26235000Y36753983D01*
X26317303Y36787990D01*
X26418000Y36888511D01*
X26418000Y27619802D01*
X17463579Y18665381D01*
X17298832Y18418819D01*
X17240980Y18127980D01*
X17240980Y6688582D01*
X17128099Y6613157D01*
X17001490Y6423673D01*
X16874881Y6613157D01*
X16474400Y6880750D01*
X16002000Y6974716D01*
X15529600Y6880750D01*
X15152375Y6628696D01*
X15066550Y6762071D01*
X14854350Y6907061D01*
X14602460Y6958070D01*
X13403580Y6958070D01*
X13168263Y6913792D01*
X12952139Y6774720D01*
X12807149Y6562520D01*
X12756140Y6310630D01*
X12756140Y4611370D01*
X12800418Y4376053D01*
X12939490Y4159929D01*
X13151690Y4014939D01*
X13403580Y3963930D01*
X14602460Y3963930D01*
X14837777Y4008208D01*
X15053901Y4147280D01*
X15153267Y4292708D01*
X15242000Y4233418D01*
X15242000Y3046000D01*
X5093240Y3046000D01*
X5093240Y4233418D01*
X5206121Y4308843D01*
X5336318Y4503696D01*
X5505803Y4279432D01*
X5925327Y4033101D01*
X6017239Y4017905D01*
X6207760Y4142643D01*
X6207760Y5334000D01*
X6187760Y5334000D01*
X6187760Y5588000D01*
X6207760Y5588000D01*
X6207760Y5608000D01*
X6461760Y5608000D01*
X6461760Y5588000D01*
X6481760Y5588000D01*
X6481760Y5334000D01*
X6461760Y5334000D01*
X6461760Y4142643D01*
X6652281Y4017905D01*
X6744193Y4033101D01*
X7163717Y4279432D01*
X7331854Y4501912D01*
X7460859Y4308843D01*
X7861340Y4041250D01*
X8333740Y3947284D01*
X8806140Y4041250D01*
X9206621Y4308843D01*
X9474214Y4709324D01*
X9568180Y5181724D01*
X9568180Y5740276D01*
X9474214Y6212676D01*
X9206621Y6613157D01*
X8806140Y6880750D01*
X8690453Y6903762D01*
X8860757Y7313900D01*
X8861242Y7869661D01*
X8649010Y8383303D01*
X8256370Y8776629D01*
X7743100Y8989757D01*
X7187339Y8990242D01*
X6673697Y8778010D01*
X6280371Y8385370D01*
X6067243Y7872100D01*
X6066758Y7316339D01*
X6219931Y6945630D01*
X6207758Y6945630D01*
X6207758Y6779358D01*
X6017239Y6904095D01*
X5925327Y6888899D01*
X5505803Y6642568D01*
X5336318Y6418304D01*
X5206121Y6613157D01*
X4805640Y6880750D01*
X4333240Y6974716D01*
X3860840Y6880750D01*
X3483615Y6628696D01*
X3397790Y6762071D01*
X3185590Y6907061D01*
X2933700Y6958070D01*
X1734820Y6958070D01*
X1499503Y6913792D01*
X1283379Y6774720D01*
X1138389Y6562520D01*
X1087380Y6310630D01*
X1087380Y4611370D01*
X1131658Y4376053D01*
X1270730Y4159929D01*
X1482930Y4014939D01*
X1734820Y3963930D01*
X2933700Y3963930D01*
X3169017Y4008208D01*
X3385141Y4147280D01*
X3484507Y4292708D01*
X3573240Y4233418D01*
X3573240Y2651760D01*
X3631092Y2360921D01*
X3795839Y2114359D01*
X4161599Y1748599D01*
X4408161Y1583852D01*
X4699000Y1526000D01*
X15748000Y1526000D01*
X16038839Y1583852D01*
X16285401Y1748599D01*
X16539401Y2002599D01*
X16704148Y2249160D01*
X16762000Y2540000D01*
X16762000Y4233418D01*
X16874881Y4308843D01*
X17001490Y4498327D01*
X17128099Y4308843D01*
X17528580Y4041250D01*
X18000980Y3947284D01*
X18473380Y4041250D01*
X18873861Y4308843D01*
X19141454Y4709324D01*
X19235420Y5181724D01*
X19235420Y5740276D01*
X19141454Y6212676D01*
X19076004Y6310630D01*
X22517360Y6310630D01*
X22517360Y4611370D01*
X22561638Y4376053D01*
X22700710Y4159929D01*
X22912910Y4014939D01*
X23164800Y3963930D01*
X24363680Y3963930D01*
X24598997Y4008208D01*
X24815121Y4147280D01*
X24915284Y4293873D01*
X25293360Y4041250D01*
X25765760Y3947284D01*
X26238160Y4041250D01*
X26463937Y4192110D01*
X31005592Y4192110D01*
X31170362Y3793337D01*
X31475193Y3487974D01*
X31873677Y3322509D01*
X32305150Y3322132D01*
X32703923Y3486902D01*
X33009286Y3791733D01*
X33174751Y4190217D01*
X33174752Y4192110D01*
X35404872Y4192110D01*
X35569642Y3793337D01*
X35874473Y3487974D01*
X36272957Y3322509D01*
X36704430Y3322132D01*
X37103203Y3486902D01*
X37408566Y3791733D01*
X37574031Y4190217D01*
X37574408Y4621690D01*
X37409638Y5020463D01*
X37104807Y5325826D01*
X36706323Y5491291D01*
X36274850Y5491668D01*
X35876077Y5326898D01*
X35570714Y5022067D01*
X35405249Y4623583D01*
X35404872Y4192110D01*
X33174752Y4192110D01*
X33175128Y4621690D01*
X33010358Y5020463D01*
X32705527Y5325826D01*
X32307043Y5491291D01*
X31875570Y5491668D01*
X31476797Y5326898D01*
X31171434Y5022067D01*
X31005969Y4623583D01*
X31005592Y4192110D01*
X26463937Y4192110D01*
X26638641Y4308843D01*
X26906234Y4709324D01*
X27000200Y5181724D01*
X27000200Y5740276D01*
X26906234Y6212676D01*
X26638641Y6613157D01*
X26238160Y6880750D01*
X25765760Y6974716D01*
X25293360Y6880750D01*
X24914358Y6627509D01*
X24827770Y6762071D01*
X24615570Y6907061D01*
X24363680Y6958070D01*
X23164800Y6958070D01*
X22929483Y6913792D01*
X22713359Y6774720D01*
X22568369Y6562520D01*
X22517360Y6310630D01*
X19076004Y6310630D01*
X18873861Y6613157D01*
X18760980Y6688582D01*
X18760980Y11176000D01*
X27716740Y11176000D01*
X27716740Y9652000D01*
X27761018Y9416683D01*
X27900090Y9200559D01*
X28112290Y9055569D01*
X28364180Y9004560D01*
X30563820Y9004560D01*
X30799137Y9048838D01*
X31015261Y9187910D01*
X31160251Y9400110D01*
X31211260Y9652000D01*
X31211260Y11176000D01*
X31166982Y11411317D01*
X31110667Y11498833D01*
X31703838Y11498833D01*
X31845883Y11155057D01*
X32108673Y10891808D01*
X32452201Y10749162D01*
X32824167Y10748838D01*
X33167943Y10890883D01*
X33431192Y11153673D01*
X33522313Y11373117D01*
X36205929Y11373117D01*
X36226072Y10623616D01*
X36474141Y10024725D01*
X36766911Y9895517D01*
X37920395Y11049000D01*
X36766911Y12202483D01*
X36474141Y12073275D01*
X36205929Y11373117D01*
X33522313Y11373117D01*
X33573838Y11497201D01*
X33574162Y11869167D01*
X33474000Y12111578D01*
X33474000Y14308349D01*
X33685192Y14519173D01*
X33827838Y14862701D01*
X33828162Y15234667D01*
X33686117Y15578443D01*
X33423327Y15841692D01*
X33079799Y15984338D01*
X32707833Y15984662D01*
X32364057Y15842617D01*
X32100808Y15579827D01*
X31973887Y15274169D01*
X31867561Y15115041D01*
X31804000Y14795500D01*
X31804000Y12111234D01*
X31704162Y11870799D01*
X31703838Y11498833D01*
X31110667Y11498833D01*
X31027910Y11627441D01*
X30815710Y11772431D01*
X30586133Y11818921D01*
X30879450Y12055974D01*
X31141080Y12536723D01*
X31156040Y12610930D01*
X31033540Y12827000D01*
X29591000Y12827000D01*
X29591000Y12807000D01*
X29337000Y12807000D01*
X29337000Y12827000D01*
X27894460Y12827000D01*
X27771960Y12610930D01*
X27786920Y12536723D01*
X28048550Y12055974D01*
X28341546Y11819181D01*
X28128863Y11779162D01*
X27912739Y11640090D01*
X27767749Y11427890D01*
X27716740Y11176000D01*
X18760980Y11176000D01*
X18760980Y13297070D01*
X27771960Y13297070D01*
X27894460Y13081000D01*
X29337000Y13081000D01*
X29337000Y14351000D01*
X29591000Y14351000D01*
X29591000Y13081000D01*
X31033540Y13081000D01*
X31156040Y13297070D01*
X31141080Y13371277D01*
X30879450Y13852026D01*
X30453761Y14196059D01*
X29928820Y14351000D01*
X29591000Y14351000D01*
X29337000Y14351000D01*
X28999180Y14351000D01*
X28474239Y14196059D01*
X28048550Y13852026D01*
X27786920Y13371277D01*
X27771960Y13297070D01*
X18760980Y13297070D01*
X18760980Y14800833D01*
X20781838Y14800833D01*
X20923883Y14457057D01*
X21186673Y14193808D01*
X21530201Y14051162D01*
X21902167Y14050838D01*
X22245943Y14192883D01*
X22509192Y14455673D01*
X22609778Y14697910D01*
X27142868Y19231000D01*
X29417766Y19231000D01*
X29658201Y19131162D01*
X30030167Y19130838D01*
X30373943Y19272883D01*
X30637192Y19535673D01*
X30779838Y19879201D01*
X30780162Y20251167D01*
X30638117Y20594943D01*
X30375327Y20858192D01*
X30031799Y21000838D01*
X29659833Y21001162D01*
X29417422Y20901000D01*
X26797000Y20901000D01*
X26477459Y20837439D01*
X26206566Y20656434D01*
X21428667Y15878535D01*
X21188057Y15779117D01*
X20924808Y15516327D01*
X20782162Y15172799D01*
X20781838Y14800833D01*
X18760980Y14800833D01*
X18760980Y17813178D01*
X27715401Y26767599D01*
X27880148Y27014161D01*
X27938000Y27305000D01*
X27938000Y35029339D01*
X33400758Y35029339D01*
X33612990Y34515697D01*
X34005630Y34122371D01*
X34213512Y34036051D01*
X34007697Y33951010D01*
X33614371Y33558370D01*
X33401243Y33045100D01*
X33400758Y32489339D01*
X33612990Y31975697D01*
X34005630Y31582371D01*
X34518900Y31369243D01*
X35074661Y31368758D01*
X35588303Y31580990D01*
X35981629Y31973630D01*
X36067949Y32181512D01*
X36152990Y31975697D01*
X36545630Y31582371D01*
X37058900Y31369243D01*
X37614661Y31368758D01*
X38128303Y31580990D01*
X38521629Y31973630D01*
X38734757Y32486900D01*
X38735242Y33042661D01*
X38523010Y33556303D01*
X38130370Y33949629D01*
X37922488Y34035949D01*
X38128303Y34120990D01*
X38521629Y34513630D01*
X38734757Y35026900D01*
X38735242Y35582661D01*
X38523010Y36096303D01*
X38130370Y36489629D01*
X37922488Y36575949D01*
X38128303Y36660990D01*
X38521629Y37053630D01*
X38734757Y37566900D01*
X38735242Y38122661D01*
X38523010Y38636303D01*
X38130370Y39029629D01*
X37617100Y39242757D01*
X37061339Y39243242D01*
X36547697Y39031010D01*
X36195000Y38678928D01*
X36195000Y38734309D01*
X36098327Y38967698D01*
X35919699Y39146327D01*
X35686310Y39243000D01*
X35083750Y39243000D01*
X34925000Y39084250D01*
X34925000Y37973000D01*
X34945000Y37973000D01*
X34945000Y37719000D01*
X34925000Y37719000D01*
X34925000Y37699000D01*
X34671000Y37699000D01*
X34671000Y37719000D01*
X33559750Y37719000D01*
X33401000Y37560250D01*
X33401000Y36957691D01*
X33497673Y36724302D01*
X33676301Y36545673D01*
X33909690Y36449000D01*
X33965614Y36449000D01*
X33614371Y36098370D01*
X33401243Y35585100D01*
X33400758Y35029339D01*
X27938000Y35029339D01*
X27938000Y38734309D01*
X33401000Y38734309D01*
X33401000Y38131750D01*
X33559750Y37973000D01*
X34671000Y37973000D01*
X34671000Y39084250D01*
X34512250Y39243000D01*
X33909690Y39243000D01*
X33676301Y39146327D01*
X33497673Y38967698D01*
X33401000Y38734309D01*
X27938000Y38734309D01*
X27938000Y39290000D01*
X39290000Y39290000D01*
X39290000Y16334590D01*
X39168979Y16455822D01*
X38476531Y16743352D01*
X37955737Y16743806D01*
X37999609Y16752533D01*
X38452828Y17055365D01*
X38755660Y17508584D01*
X38862000Y18043193D01*
X38862000Y18786807D01*
X38755660Y19321416D01*
X38452828Y19774635D01*
X37999609Y20077467D01*
X37465000Y20183807D01*
X36930391Y20077467D01*
X36477172Y19774635D01*
X36327657Y19550870D01*
X36290162Y19750137D01*
X36151090Y19966261D01*
X35938890Y20111251D01*
X35687000Y20162260D01*
X34163000Y20162260D01*
X33927683Y20117982D01*
X33711559Y19978910D01*
X33566569Y19766710D01*
X33515560Y19514820D01*
X33515560Y17315180D01*
X33559838Y17079863D01*
X33698910Y16863739D01*
X33911110Y16718749D01*
X34163000Y16667740D01*
X35687000Y16667740D01*
X35922317Y16712018D01*
X36138441Y16851090D01*
X36283431Y17063290D01*
X36327260Y17279724D01*
X36477172Y17055365D01*
X36930391Y16752533D01*
X37465000Y16646193D01*
X37513270Y16655794D01*
X37033809Y16457686D01*
X36503178Y15927979D01*
X36215648Y15235531D01*
X36214994Y14485759D01*
X36501314Y13792809D01*
X37031021Y13262178D01*
X37723469Y12974648D01*
X38473241Y12973994D01*
X39166191Y13260314D01*
X39290000Y13383907D01*
X39290000Y12418608D01*
X39253482Y12382090D01*
X39124275Y12674859D01*
X38424117Y12943071D01*
X37674616Y12922928D01*
X37075725Y12674859D01*
X36946517Y12382089D01*
X38100000Y11228605D01*
X38114142Y11242748D01*
X38293748Y11063142D01*
X38279605Y11049000D01*
X38293748Y11034858D01*
X38114142Y10855252D01*
X38100000Y10869395D01*
X36946517Y9715911D01*
X37075725Y9423141D01*
X37775883Y9154929D01*
X38525384Y9175072D01*
X39124275Y9423141D01*
X39253482Y9715910D01*
X39290000Y9679392D01*
X39290000Y710000D01*
X710000Y710000D01*
X710000Y10566339D01*
X5566758Y10566339D01*
X5778990Y10052697D01*
X6171630Y9659371D01*
X6684900Y9446243D01*
X7240661Y9445758D01*
X7754303Y9657990D01*
X8147629Y10050630D01*
X8360757Y10563900D01*
X8361242Y11119661D01*
X8149010Y11633303D01*
X7756370Y12026629D01*
X7243100Y12239757D01*
X6687339Y12240242D01*
X6173697Y12028010D01*
X5780371Y11635370D01*
X5567243Y11122100D01*
X5566758Y10566339D01*
X710000Y10566339D01*
X710000Y13566339D01*
X5566758Y13566339D01*
X5778990Y13052697D01*
X6171630Y12659371D01*
X6684900Y12446243D01*
X7240661Y12445758D01*
X7754303Y12657990D01*
X8147629Y13050630D01*
X8360757Y13563900D01*
X8361189Y14059321D01*
X10011804Y15709936D01*
X10121667Y15709840D01*
X10465443Y15851885D01*
X10728692Y16114675D01*
X10871338Y16458203D01*
X10871662Y16830169D01*
X10729617Y17173945D01*
X10466827Y17437194D01*
X10123299Y17579840D01*
X9751333Y17580164D01*
X9407557Y17438119D01*
X9263128Y17293942D01*
X9175568Y17235436D01*
X8260945Y16320813D01*
X8373144Y16635302D01*
X8345362Y17190368D01*
X8186397Y17574143D01*
X7944213Y17643608D01*
X7143605Y16843000D01*
X7157748Y16828857D01*
X6978143Y16649252D01*
X6964000Y16663395D01*
X6163392Y15862787D01*
X6232857Y15620603D01*
X6756302Y15433856D01*
X7311368Y15461638D01*
X7465694Y15525562D01*
X7179944Y15239812D01*
X6687339Y15240242D01*
X6173697Y15028010D01*
X5780371Y14635370D01*
X5567243Y14122100D01*
X5566758Y13566339D01*
X710000Y13566339D01*
X710000Y17050698D01*
X5554856Y17050698D01*
X5582638Y16495632D01*
X5741603Y16111857D01*
X5983787Y16042392D01*
X6784395Y16843000D01*
X5983787Y17643608D01*
X5741603Y17574143D01*
X5554856Y17050698D01*
X710000Y17050698D01*
X710000Y17823213D01*
X6163392Y17823213D01*
X6964000Y17022605D01*
X7764608Y17823213D01*
X7695143Y18065397D01*
X7171698Y18252144D01*
X6616632Y18224362D01*
X6232857Y18065397D01*
X6163392Y17823213D01*
X710000Y17823213D01*
X710000Y19816339D01*
X6066758Y19816339D01*
X6278990Y19302697D01*
X6671630Y18909371D01*
X7184900Y18696243D01*
X7740661Y18695758D01*
X8254303Y18907990D01*
X8647629Y19300630D01*
X8860757Y19813900D01*
X8861242Y20369661D01*
X8649010Y20883303D01*
X8256370Y21276629D01*
X7743100Y21489757D01*
X7187339Y21490242D01*
X6673697Y21278010D01*
X6280371Y20885370D01*
X6067243Y20372100D01*
X6066758Y19816339D01*
X710000Y19816339D01*
X710000Y39290000D01*
X17436138Y39290000D01*
X17116697Y39158010D01*
M02*
