M48
METRIC,TZ
T1C0.400
T2C0.701
T3C0.762
T4C0.899
T5C1.001
T6C1.016
%
G90
G05
T1
X3.683Y13.97
X5.842Y16.002
X7.366Y31.242
X7.366Y29.718
X8.382Y32.004
X8.382Y29.718
X9.398Y32.766
X9.398Y29.718
X9.398Y12.7
X10.922Y11.176
X12.192Y18.034
X13.97Y33.782
X13.97Y29.718
X14.478Y24.638
X14.732Y21.082
X14.986Y25.908
X17.018Y20.066
X17.526Y34.036
X17.78Y29.21
X18.161Y26.67
X20.32Y24.003
X21.336Y34.036
X22.225Y10.922
X22.86Y34.544
X23.622Y23.368
X25.019Y19.558
X25.146Y33.02
X29.718Y9.144
X30.988Y12.573
X36.322Y26.797
T2
X3.081Y5.08
X5.08Y5.08
X7.079Y5.08
X12.969Y5.08
X14.971Y5.08
X20.861Y5.08
X22.86Y5.08
X24.859Y5.08
T3
X17.907Y37.973
X20.447Y37.973
X22.987Y37.973
X25.527Y37.973
T4
X32.09Y4.661
X36.49Y4.661
T5
X37.211Y17.526
X37.211Y13.716
T6
X34.544Y38.1
X34.544Y35.56
X34.544Y33.02
X37.084Y38.1
X37.084Y35.56
X37.084Y33.02
T0
M30
