G04 #@! TF.FileFunction,Copper,L2,Bot,Signal*
%FSLAX46Y46*%
G04 Gerber Fmt 4.6, Leading zero omitted, Abs format (unit mm)*
G04 Created by KiCad (PCBNEW 0.201503230816+5530~22~ubuntu14.04.1-product) date Mi 02 Sep 2015 16:53:48 CEST*
%MOMM*%
G01*
G04 APERTURE LIST*
%ADD10C,0.150000*%
%ADD11R,1.524000X1.524000*%
%ADD12C,1.524000*%
%ADD13R,1.198880X1.699260*%
%ADD14O,1.198880X1.699260*%
%ADD15C,2.499360*%
%ADD16C,0.600000*%
%ADD17C,0.400000*%
%ADD18C,0.250000*%
%ADD19C,0.254000*%
G04 APERTURE END LIST*
D10*
D11*
X34544000Y38100000D03*
D12*
X37084000Y38100000D03*
X34544000Y35560000D03*
X37084000Y35560000D03*
X34544000Y33020000D03*
X37084000Y33020000D03*
D13*
X3081020Y5080000D03*
D14*
X5080000Y5080000D03*
X7078980Y5080000D03*
D13*
X20861020Y5080000D03*
D14*
X22860000Y5080000D03*
X24858980Y5080000D03*
D13*
X12969240Y5080000D03*
D14*
X14970760Y5080000D03*
D15*
X37211000Y17526000D03*
X37211000Y13716000D03*
D12*
X25527000Y37973000D03*
X22987000Y37973000D03*
X20447000Y37973000D03*
X17907000Y37973000D03*
D16*
X14986000Y25908000D03*
X5842000Y16002000D03*
X12192000Y18034000D03*
X29718000Y9144000D03*
X17018000Y20066000D03*
X36322000Y26797000D03*
X30988000Y12573000D03*
X25019000Y19558000D03*
X3683000Y13970000D03*
X22225000Y10922000D03*
X10922000Y11176000D03*
X9398000Y12700000D03*
X25146000Y33020000D03*
X20320000Y24003000D03*
X17780000Y29210000D03*
X22860000Y34544000D03*
X21336000Y34036000D03*
X9398000Y32766000D03*
X17526000Y34036000D03*
X9398000Y29718000D03*
X8382000Y32004000D03*
X8382000Y29718000D03*
X7366000Y29718000D03*
X7366000Y31242000D03*
X18161000Y26670000D03*
X23622000Y23368000D03*
X14732000Y21082000D03*
X14478000Y24638000D03*
X13970000Y33782000D03*
X13970000Y29718000D03*
D17*
X10922000Y11176000D02*
X9398000Y12700000D01*
X25146000Y33020000D02*
X25400000Y33274000D01*
X25400000Y33274000D02*
X25400000Y38100000D01*
X20320000Y28702000D02*
X20320000Y24003000D01*
X18288000Y28702000D02*
X20320000Y28702000D01*
X17780000Y29210000D02*
X18288000Y28702000D01*
D18*
X22860000Y34544000D02*
X22860000Y38100000D01*
X17526000Y34036000D02*
X21336000Y34036000D01*
X9398000Y32512000D02*
X9398000Y29718000D01*
X8382000Y29718000D02*
X8382000Y32004000D01*
X7366000Y31242000D02*
X7366000Y29718000D01*
X18161000Y26670000D02*
X19177000Y25654000D01*
X19177000Y25654000D02*
X19177000Y23495000D01*
X19177000Y23495000D02*
X19304000Y23368000D01*
X19304000Y23368000D02*
X23622000Y23368000D01*
X24858980Y5080000D02*
X24858980Y5621020D01*
X14732000Y21082000D02*
X14478000Y21336000D01*
X14478000Y21336000D02*
X14478000Y24638000D01*
X13970000Y33528000D02*
X13970000Y33782000D01*
X13970000Y29718000D02*
X13970000Y33528000D01*
D19*
G36*
X39290000Y710000D02*
X39105071Y710000D01*
X39105071Y13391883D01*
X39096006Y13729183D01*
X39096006Y17899241D01*
X38809686Y18592191D01*
X38279979Y19122822D01*
X37587531Y19410352D01*
X36837759Y19411006D01*
X36144809Y19124686D01*
X35614178Y18594979D01*
X35326648Y17902531D01*
X35325994Y17152759D01*
X35612314Y16459809D01*
X36142021Y15929178D01*
X36834469Y15641648D01*
X37584241Y15640994D01*
X38277191Y15927314D01*
X38807822Y16457021D01*
X39095352Y17149469D01*
X39096006Y17899241D01*
X39096006Y13729183D01*
X39084928Y14141384D01*
X38836859Y14740275D01*
X38544089Y14869483D01*
X38364483Y14689878D01*
X38364483Y15049089D01*
X38235275Y15341859D01*
X37535117Y15610071D01*
X36785616Y15589928D01*
X36186725Y15341859D01*
X36057517Y15049089D01*
X37211000Y13895605D01*
X38364483Y15049089D01*
X38364483Y14689878D01*
X37390605Y13716000D01*
X38544089Y12562517D01*
X38836859Y12691725D01*
X39105071Y13391883D01*
X39105071Y710000D01*
X38364483Y710000D01*
X38364483Y12382911D01*
X37211000Y13536395D01*
X37031395Y13356790D01*
X37031395Y13716000D01*
X35877911Y14869483D01*
X35585141Y14740275D01*
X35316929Y14040117D01*
X35337072Y13290616D01*
X35585141Y12691725D01*
X35877911Y12562517D01*
X37031395Y13716000D01*
X37031395Y13356790D01*
X36057517Y12382911D01*
X36186725Y12090141D01*
X36886883Y11821929D01*
X37636384Y11842072D01*
X38235275Y12090141D01*
X38364483Y12382911D01*
X38364483Y710000D01*
X37574408Y710000D01*
X37574408Y4875690D01*
X37409638Y5274463D01*
X37104807Y5579826D01*
X36706323Y5745291D01*
X36274850Y5745668D01*
X35876077Y5580898D01*
X35570714Y5276067D01*
X35405249Y4877583D01*
X35404872Y4446110D01*
X35569642Y4047337D01*
X35874473Y3741974D01*
X36272957Y3576509D01*
X36704430Y3576132D01*
X37103203Y3740902D01*
X37408566Y4045733D01*
X37574031Y4444217D01*
X37574408Y4875690D01*
X37574408Y710000D01*
X33175128Y710000D01*
X33175128Y4875690D01*
X33010358Y5274463D01*
X32705527Y5579826D01*
X32307043Y5745291D01*
X31875570Y5745668D01*
X31476797Y5580898D01*
X31171434Y5276067D01*
X31005969Y4877583D01*
X31005592Y4446110D01*
X31170362Y4047337D01*
X31475193Y3741974D01*
X31873677Y3576509D01*
X32305150Y3576132D01*
X32703923Y3740902D01*
X33009286Y4045733D01*
X33174751Y4444217D01*
X33175128Y4875690D01*
X33175128Y710000D01*
X26093420Y710000D01*
X26093420Y4800724D01*
X26093420Y5359276D01*
X25999454Y5831676D01*
X25731861Y6232157D01*
X25331380Y6499750D01*
X24858980Y6593716D01*
X24557162Y6533681D01*
X24557162Y23553167D01*
X24415117Y23896943D01*
X24152327Y24160192D01*
X23808799Y24302838D01*
X23436833Y24303162D01*
X23093057Y24161117D01*
X23059882Y24128000D01*
X21255109Y24128000D01*
X21255162Y24188167D01*
X21155000Y24430579D01*
X21155000Y28702000D01*
X21091439Y29021541D01*
X20910434Y29292434D01*
X20639541Y29473439D01*
X20320000Y29537000D01*
X18656557Y29537000D01*
X18573117Y29738943D01*
X18310327Y30002192D01*
X17966799Y30144838D01*
X17594833Y30145162D01*
X17251057Y30003117D01*
X16987808Y29740327D01*
X16845162Y29396799D01*
X16844838Y29024833D01*
X16986883Y28681057D01*
X17249673Y28417808D01*
X17491909Y28317223D01*
X17697565Y28111566D01*
X17697566Y28111566D01*
X17833012Y28021064D01*
X17968459Y27930561D01*
X17968460Y27930561D01*
X18288000Y27867000D01*
X19485000Y27867000D01*
X19485000Y26420802D01*
X19096122Y26809680D01*
X19096162Y26855167D01*
X18954117Y27198943D01*
X18691327Y27462192D01*
X18347799Y27604838D01*
X17975833Y27605162D01*
X17632057Y27463117D01*
X17368808Y27200327D01*
X17226162Y26856799D01*
X17225838Y26484833D01*
X17367883Y26141057D01*
X17630673Y25877808D01*
X17974201Y25735162D01*
X18021076Y25735122D01*
X18417000Y25339198D01*
X18417000Y23495000D01*
X18474852Y23204161D01*
X18639599Y22957599D01*
X18766599Y22830599D01*
X19013161Y22665852D01*
X19304000Y22608000D01*
X23059537Y22608000D01*
X23091673Y22575808D01*
X23435201Y22433162D01*
X23807167Y22432838D01*
X24150943Y22574883D01*
X24414192Y22837673D01*
X24556838Y23181201D01*
X24557162Y23553167D01*
X24557162Y6533681D01*
X24386580Y6499750D01*
X23986099Y6232157D01*
X23859490Y6042674D01*
X23732881Y6232157D01*
X23332400Y6499750D01*
X22860000Y6593716D01*
X22387600Y6499750D01*
X22010834Y6248004D01*
X21921133Y6384557D01*
X21710100Y6527007D01*
X21460460Y6577070D01*
X20261580Y6577070D01*
X20019457Y6530093D01*
X19806653Y6390303D01*
X19664203Y6179270D01*
X19614140Y5929630D01*
X19614140Y4230370D01*
X19661117Y3988247D01*
X19800907Y3775443D01*
X20011940Y3632993D01*
X20261580Y3582930D01*
X21460460Y3582930D01*
X21702583Y3629907D01*
X21915387Y3769697D01*
X22011252Y3911718D01*
X22387600Y3660250D01*
X22860000Y3566284D01*
X23332400Y3660250D01*
X23732881Y3927843D01*
X23859490Y4117327D01*
X23986099Y3927843D01*
X24386580Y3660250D01*
X24858980Y3566284D01*
X25331380Y3660250D01*
X25731861Y3927843D01*
X25999454Y4328324D01*
X26093420Y4800724D01*
X26093420Y710000D01*
X16205200Y710000D01*
X16205200Y4800724D01*
X16205200Y5359276D01*
X16111234Y5831676D01*
X15843641Y6232157D01*
X15667162Y6350077D01*
X15667162Y21267167D01*
X15525117Y21610943D01*
X15262327Y21874192D01*
X15238000Y21884294D01*
X15238000Y24075538D01*
X15270192Y24107673D01*
X15412838Y24451201D01*
X15413162Y24823167D01*
X15271117Y25166943D01*
X15008327Y25430192D01*
X14905162Y25473031D01*
X14905162Y29903167D01*
X14763117Y30246943D01*
X14730000Y30280118D01*
X14730000Y33219538D01*
X14762192Y33251673D01*
X14904838Y33595201D01*
X14905162Y33967167D01*
X14763117Y34310943D01*
X14500327Y34574192D01*
X14156799Y34716838D01*
X13784833Y34717162D01*
X13441057Y34575117D01*
X13177808Y34312327D01*
X13035162Y33968799D01*
X13034838Y33596833D01*
X13176883Y33253057D01*
X13210000Y33219883D01*
X13210000Y30280463D01*
X13177808Y30248327D01*
X13035162Y29904799D01*
X13034838Y29532833D01*
X13176883Y29189057D01*
X13439673Y28925808D01*
X13783201Y28783162D01*
X14155167Y28782838D01*
X14498943Y28924883D01*
X14762192Y29187673D01*
X14904838Y29531201D01*
X14905162Y29903167D01*
X14905162Y25473031D01*
X14664799Y25572838D01*
X14292833Y25573162D01*
X13949057Y25431117D01*
X13685808Y25168327D01*
X13543162Y24824799D01*
X13542838Y24452833D01*
X13684883Y24109057D01*
X13718000Y24075883D01*
X13718000Y21336000D01*
X13775852Y21045161D01*
X13796939Y21013601D01*
X13796838Y20896833D01*
X13938883Y20553057D01*
X14201673Y20289808D01*
X14545201Y20147162D01*
X14917167Y20146838D01*
X15260943Y20288883D01*
X15524192Y20551673D01*
X15666838Y20895201D01*
X15667162Y21267167D01*
X15667162Y6350077D01*
X15443160Y6499750D01*
X14970760Y6593716D01*
X14498360Y6499750D01*
X14119829Y6246824D01*
X14029353Y6384557D01*
X13818320Y6527007D01*
X13568680Y6577070D01*
X12369800Y6577070D01*
X12127677Y6530093D01*
X11914873Y6390303D01*
X11857162Y6304807D01*
X11857162Y11361167D01*
X11715117Y11704943D01*
X11452327Y11968192D01*
X11210089Y12068779D01*
X10333162Y12945706D01*
X10333162Y29903167D01*
X10191117Y30246943D01*
X10158000Y30280118D01*
X10158000Y32203538D01*
X10190192Y32235673D01*
X10332838Y32579201D01*
X10333162Y32951167D01*
X10191117Y33294943D01*
X9928327Y33558192D01*
X9584799Y33700838D01*
X9212833Y33701162D01*
X8869057Y33559117D01*
X8605808Y33296327D01*
X8463162Y32952799D01*
X8463149Y32938931D01*
X8196833Y32939162D01*
X7853057Y32797117D01*
X7589808Y32534327D01*
X7447162Y32190799D01*
X7447149Y32176931D01*
X7180833Y32177162D01*
X6837057Y32035117D01*
X6573808Y31772327D01*
X6431162Y31428799D01*
X6430838Y31056833D01*
X6572883Y30713057D01*
X6606000Y30679883D01*
X6606000Y30280463D01*
X6573808Y30248327D01*
X6431162Y29904799D01*
X6430838Y29532833D01*
X6572883Y29189057D01*
X6835673Y28925808D01*
X7179201Y28783162D01*
X7551167Y28782838D01*
X7874371Y28916383D01*
X8195201Y28783162D01*
X8567167Y28782838D01*
X8890371Y28916383D01*
X9211201Y28783162D01*
X9583167Y28782838D01*
X9926943Y28924883D01*
X10190192Y29187673D01*
X10332838Y29531201D01*
X10333162Y29903167D01*
X10333162Y12945706D01*
X10290534Y12988334D01*
X10191117Y13228943D01*
X9928327Y13492192D01*
X9584799Y13634838D01*
X9212833Y13635162D01*
X8869057Y13493117D01*
X8605808Y13230327D01*
X8463162Y12886799D01*
X8462838Y12514833D01*
X8604883Y12171057D01*
X8867673Y11907808D01*
X9109910Y11807222D01*
X10029465Y10887667D01*
X10128883Y10647057D01*
X10391673Y10383808D01*
X10735201Y10241162D01*
X11107167Y10240838D01*
X11450943Y10382883D01*
X11714192Y10645673D01*
X11856838Y10989201D01*
X11857162Y11361167D01*
X11857162Y6304807D01*
X11772423Y6179270D01*
X11722360Y5929630D01*
X11722360Y4230370D01*
X11769337Y3988247D01*
X11909127Y3775443D01*
X12120160Y3632993D01*
X12369800Y3582930D01*
X13568680Y3582930D01*
X13810803Y3629907D01*
X14023607Y3769697D01*
X14120262Y3912888D01*
X14498360Y3660250D01*
X14970760Y3566284D01*
X15443160Y3660250D01*
X15843641Y3927843D01*
X16111234Y4328324D01*
X16205200Y4800724D01*
X16205200Y710000D01*
X8323725Y710000D01*
X8323725Y4757387D01*
X8323725Y5402613D01*
X8201259Y5873443D01*
X7907937Y6261568D01*
X7488413Y6507899D01*
X7396501Y6523095D01*
X7205980Y6398357D01*
X7205980Y5207000D01*
X8160980Y5207000D01*
X8323725Y5402613D01*
X8323725Y4757387D01*
X8160980Y4953000D01*
X7205980Y4953000D01*
X7205980Y3761643D01*
X7396501Y3636905D01*
X7488413Y3652101D01*
X7907937Y3898432D01*
X8201259Y4286557D01*
X8323725Y4757387D01*
X8323725Y710000D01*
X6951980Y710000D01*
X6951980Y3761643D01*
X6951980Y4953000D01*
X6931980Y4953000D01*
X6931980Y5207000D01*
X6951980Y5207000D01*
X6951980Y6398357D01*
X6761459Y6523095D01*
X6669547Y6507899D01*
X6250023Y6261568D01*
X6081885Y6039088D01*
X5952881Y6232157D01*
X5552400Y6499750D01*
X5080000Y6593716D01*
X4607600Y6499750D01*
X4230834Y6248004D01*
X4141133Y6384557D01*
X3930100Y6527007D01*
X3680460Y6577070D01*
X2481580Y6577070D01*
X2239457Y6530093D01*
X2026653Y6390303D01*
X1884203Y6179270D01*
X1834140Y5929630D01*
X1834140Y4230370D01*
X1881117Y3988247D01*
X2020907Y3775443D01*
X2231940Y3632993D01*
X2481580Y3582930D01*
X3680460Y3582930D01*
X3922583Y3629907D01*
X4135387Y3769697D01*
X4231252Y3911718D01*
X4607600Y3660250D01*
X5080000Y3566284D01*
X5552400Y3660250D01*
X5952881Y3927843D01*
X6081885Y4120913D01*
X6250023Y3898432D01*
X6669547Y3652101D01*
X6761459Y3636905D01*
X6951980Y3761643D01*
X6951980Y710000D01*
X710000Y710000D01*
X710000Y39290000D01*
X17436138Y39290000D01*
X17116697Y39158010D01*
X16723371Y38765370D01*
X16510243Y38252100D01*
X16509758Y37696339D01*
X16721990Y37182697D01*
X17114630Y36789371D01*
X17627900Y36576243D01*
X18183661Y36575758D01*
X18697303Y36787990D01*
X19090629Y37180630D01*
X19176949Y37388513D01*
X19261990Y37182697D01*
X19654630Y36789371D01*
X20167900Y36576243D01*
X20723661Y36575758D01*
X21237303Y36787990D01*
X21630629Y37180630D01*
X21716949Y37388513D01*
X21801990Y37182697D01*
X22100000Y36884167D01*
X22100000Y35106463D01*
X22067808Y35074327D01*
X21936439Y34757958D01*
X21866327Y34828192D01*
X21522799Y34970838D01*
X21150833Y34971162D01*
X20807057Y34829117D01*
X20773882Y34796000D01*
X18088462Y34796000D01*
X18056327Y34828192D01*
X17712799Y34970838D01*
X17340833Y34971162D01*
X16997057Y34829117D01*
X16733808Y34566327D01*
X16591162Y34222799D01*
X16590838Y33850833D01*
X16732883Y33507057D01*
X16995673Y33243808D01*
X17339201Y33101162D01*
X17711167Y33100838D01*
X18054943Y33242883D01*
X18088117Y33276000D01*
X20773537Y33276000D01*
X20805673Y33243808D01*
X21149201Y33101162D01*
X21521167Y33100838D01*
X21864943Y33242883D01*
X22128192Y33505673D01*
X22259560Y33822043D01*
X22329673Y33751808D01*
X22673201Y33609162D01*
X23045167Y33608838D01*
X23388943Y33750883D01*
X23652192Y34013673D01*
X23794838Y34357201D01*
X23795162Y34729167D01*
X23653117Y35072943D01*
X23620000Y35106118D01*
X23620000Y36722994D01*
X23777303Y36787990D01*
X24170629Y37180630D01*
X24256949Y37388513D01*
X24341990Y37182697D01*
X24565000Y36959298D01*
X24565000Y33761151D01*
X24353808Y33550327D01*
X24211162Y33206799D01*
X24210838Y32834833D01*
X24352883Y32491057D01*
X24615673Y32227808D01*
X24959201Y32085162D01*
X25331167Y32084838D01*
X25674943Y32226883D01*
X25938192Y32489673D01*
X26065112Y32795331D01*
X26065113Y32795332D01*
X26171439Y32954459D01*
X26171439Y32954460D01*
X26235000Y33274000D01*
X26235000Y36753984D01*
X26317303Y36787990D01*
X26710629Y37180630D01*
X26923757Y37693900D01*
X26924242Y38249661D01*
X26712010Y38763303D01*
X26319370Y39156629D01*
X25998176Y39290000D01*
X33311974Y39290000D01*
X33243673Y39221698D01*
X33147000Y38988309D01*
X33147000Y38385750D01*
X33305750Y38227000D01*
X34417000Y38227000D01*
X34417000Y38247000D01*
X34671000Y38247000D01*
X34671000Y38227000D01*
X34691000Y38227000D01*
X34691000Y37973000D01*
X34671000Y37973000D01*
X34671000Y37953000D01*
X34417000Y37953000D01*
X34417000Y37973000D01*
X33305750Y37973000D01*
X33147000Y37814250D01*
X33147000Y37211691D01*
X33243673Y36978302D01*
X33422301Y36799673D01*
X33655690Y36703000D01*
X33711613Y36703000D01*
X33360371Y36352370D01*
X33147243Y35839100D01*
X33146758Y35283339D01*
X33358990Y34769697D01*
X33751630Y34376371D01*
X33959512Y34290051D01*
X33753697Y34205010D01*
X33360371Y33812370D01*
X33147243Y33299100D01*
X33146758Y32743339D01*
X33358990Y32229697D01*
X33751630Y31836371D01*
X34264900Y31623243D01*
X34820661Y31622758D01*
X35334303Y31834990D01*
X35727629Y32227630D01*
X35813949Y32435513D01*
X35898990Y32229697D01*
X36291630Y31836371D01*
X36804900Y31623243D01*
X37360661Y31622758D01*
X37874303Y31834990D01*
X38267629Y32227630D01*
X38480757Y32740900D01*
X38481242Y33296661D01*
X38269010Y33810303D01*
X37876370Y34203629D01*
X37668487Y34289950D01*
X37874303Y34374990D01*
X38267629Y34767630D01*
X38480757Y35280900D01*
X38481242Y35836661D01*
X38269010Y36350303D01*
X37876370Y36743629D01*
X37668487Y36829950D01*
X37874303Y36914990D01*
X38267629Y37307630D01*
X38480757Y37820900D01*
X38481242Y38376661D01*
X38269010Y38890303D01*
X37876370Y39283629D01*
X37861026Y39290000D01*
X39290000Y39290000D01*
X39290000Y710000D01*
X39290000Y710000D01*
G37*
X39290000Y710000D02*
X39105071Y710000D01*
X39105071Y13391883D01*
X39096006Y13729183D01*
X39096006Y17899241D01*
X38809686Y18592191D01*
X38279979Y19122822D01*
X37587531Y19410352D01*
X36837759Y19411006D01*
X36144809Y19124686D01*
X35614178Y18594979D01*
X35326648Y17902531D01*
X35325994Y17152759D01*
X35612314Y16459809D01*
X36142021Y15929178D01*
X36834469Y15641648D01*
X37584241Y15640994D01*
X38277191Y15927314D01*
X38807822Y16457021D01*
X39095352Y17149469D01*
X39096006Y17899241D01*
X39096006Y13729183D01*
X39084928Y14141384D01*
X38836859Y14740275D01*
X38544089Y14869483D01*
X38364483Y14689878D01*
X38364483Y15049089D01*
X38235275Y15341859D01*
X37535117Y15610071D01*
X36785616Y15589928D01*
X36186725Y15341859D01*
X36057517Y15049089D01*
X37211000Y13895605D01*
X38364483Y15049089D01*
X38364483Y14689878D01*
X37390605Y13716000D01*
X38544089Y12562517D01*
X38836859Y12691725D01*
X39105071Y13391883D01*
X39105071Y710000D01*
X38364483Y710000D01*
X38364483Y12382911D01*
X37211000Y13536395D01*
X37031395Y13356790D01*
X37031395Y13716000D01*
X35877911Y14869483D01*
X35585141Y14740275D01*
X35316929Y14040117D01*
X35337072Y13290616D01*
X35585141Y12691725D01*
X35877911Y12562517D01*
X37031395Y13716000D01*
X37031395Y13356790D01*
X36057517Y12382911D01*
X36186725Y12090141D01*
X36886883Y11821929D01*
X37636384Y11842072D01*
X38235275Y12090141D01*
X38364483Y12382911D01*
X38364483Y710000D01*
X37574408Y710000D01*
X37574408Y4875690D01*
X37409638Y5274463D01*
X37104807Y5579826D01*
X36706323Y5745291D01*
X36274850Y5745668D01*
X35876077Y5580898D01*
X35570714Y5276067D01*
X35405249Y4877583D01*
X35404872Y4446110D01*
X35569642Y4047337D01*
X35874473Y3741974D01*
X36272957Y3576509D01*
X36704430Y3576132D01*
X37103203Y3740902D01*
X37408566Y4045733D01*
X37574031Y4444217D01*
X37574408Y4875690D01*
X37574408Y710000D01*
X33175128Y710000D01*
X33175128Y4875690D01*
X33010358Y5274463D01*
X32705527Y5579826D01*
X32307043Y5745291D01*
X31875570Y5745668D01*
X31476797Y5580898D01*
X31171434Y5276067D01*
X31005969Y4877583D01*
X31005592Y4446110D01*
X31170362Y4047337D01*
X31475193Y3741974D01*
X31873677Y3576509D01*
X32305150Y3576132D01*
X32703923Y3740902D01*
X33009286Y4045733D01*
X33174751Y4444217D01*
X33175128Y4875690D01*
X33175128Y710000D01*
X26093420Y710000D01*
X26093420Y4800724D01*
X26093420Y5359276D01*
X25999454Y5831676D01*
X25731861Y6232157D01*
X25331380Y6499750D01*
X24858980Y6593716D01*
X24557162Y6533681D01*
X24557162Y23553167D01*
X24415117Y23896943D01*
X24152327Y24160192D01*
X23808799Y24302838D01*
X23436833Y24303162D01*
X23093057Y24161117D01*
X23059882Y24128000D01*
X21255109Y24128000D01*
X21255162Y24188167D01*
X21155000Y24430579D01*
X21155000Y28702000D01*
X21091439Y29021541D01*
X20910434Y29292434D01*
X20639541Y29473439D01*
X20320000Y29537000D01*
X18656557Y29537000D01*
X18573117Y29738943D01*
X18310327Y30002192D01*
X17966799Y30144838D01*
X17594833Y30145162D01*
X17251057Y30003117D01*
X16987808Y29740327D01*
X16845162Y29396799D01*
X16844838Y29024833D01*
X16986883Y28681057D01*
X17249673Y28417808D01*
X17491909Y28317223D01*
X17697565Y28111566D01*
X17697566Y28111566D01*
X17833012Y28021064D01*
X17968459Y27930561D01*
X17968460Y27930561D01*
X18288000Y27867000D01*
X19485000Y27867000D01*
X19485000Y26420802D01*
X19096122Y26809680D01*
X19096162Y26855167D01*
X18954117Y27198943D01*
X18691327Y27462192D01*
X18347799Y27604838D01*
X17975833Y27605162D01*
X17632057Y27463117D01*
X17368808Y27200327D01*
X17226162Y26856799D01*
X17225838Y26484833D01*
X17367883Y26141057D01*
X17630673Y25877808D01*
X17974201Y25735162D01*
X18021076Y25735122D01*
X18417000Y25339198D01*
X18417000Y23495000D01*
X18474852Y23204161D01*
X18639599Y22957599D01*
X18766599Y22830599D01*
X19013161Y22665852D01*
X19304000Y22608000D01*
X23059537Y22608000D01*
X23091673Y22575808D01*
X23435201Y22433162D01*
X23807167Y22432838D01*
X24150943Y22574883D01*
X24414192Y22837673D01*
X24556838Y23181201D01*
X24557162Y23553167D01*
X24557162Y6533681D01*
X24386580Y6499750D01*
X23986099Y6232157D01*
X23859490Y6042674D01*
X23732881Y6232157D01*
X23332400Y6499750D01*
X22860000Y6593716D01*
X22387600Y6499750D01*
X22010834Y6248004D01*
X21921133Y6384557D01*
X21710100Y6527007D01*
X21460460Y6577070D01*
X20261580Y6577070D01*
X20019457Y6530093D01*
X19806653Y6390303D01*
X19664203Y6179270D01*
X19614140Y5929630D01*
X19614140Y4230370D01*
X19661117Y3988247D01*
X19800907Y3775443D01*
X20011940Y3632993D01*
X20261580Y3582930D01*
X21460460Y3582930D01*
X21702583Y3629907D01*
X21915387Y3769697D01*
X22011252Y3911718D01*
X22387600Y3660250D01*
X22860000Y3566284D01*
X23332400Y3660250D01*
X23732881Y3927843D01*
X23859490Y4117327D01*
X23986099Y3927843D01*
X24386580Y3660250D01*
X24858980Y3566284D01*
X25331380Y3660250D01*
X25731861Y3927843D01*
X25999454Y4328324D01*
X26093420Y4800724D01*
X26093420Y710000D01*
X16205200Y710000D01*
X16205200Y4800724D01*
X16205200Y5359276D01*
X16111234Y5831676D01*
X15843641Y6232157D01*
X15667162Y6350077D01*
X15667162Y21267167D01*
X15525117Y21610943D01*
X15262327Y21874192D01*
X15238000Y21884294D01*
X15238000Y24075538D01*
X15270192Y24107673D01*
X15412838Y24451201D01*
X15413162Y24823167D01*
X15271117Y25166943D01*
X15008327Y25430192D01*
X14905162Y25473031D01*
X14905162Y29903167D01*
X14763117Y30246943D01*
X14730000Y30280118D01*
X14730000Y33219538D01*
X14762192Y33251673D01*
X14904838Y33595201D01*
X14905162Y33967167D01*
X14763117Y34310943D01*
X14500327Y34574192D01*
X14156799Y34716838D01*
X13784833Y34717162D01*
X13441057Y34575117D01*
X13177808Y34312327D01*
X13035162Y33968799D01*
X13034838Y33596833D01*
X13176883Y33253057D01*
X13210000Y33219883D01*
X13210000Y30280463D01*
X13177808Y30248327D01*
X13035162Y29904799D01*
X13034838Y29532833D01*
X13176883Y29189057D01*
X13439673Y28925808D01*
X13783201Y28783162D01*
X14155167Y28782838D01*
X14498943Y28924883D01*
X14762192Y29187673D01*
X14904838Y29531201D01*
X14905162Y29903167D01*
X14905162Y25473031D01*
X14664799Y25572838D01*
X14292833Y25573162D01*
X13949057Y25431117D01*
X13685808Y25168327D01*
X13543162Y24824799D01*
X13542838Y24452833D01*
X13684883Y24109057D01*
X13718000Y24075883D01*
X13718000Y21336000D01*
X13775852Y21045161D01*
X13796939Y21013601D01*
X13796838Y20896833D01*
X13938883Y20553057D01*
X14201673Y20289808D01*
X14545201Y20147162D01*
X14917167Y20146838D01*
X15260943Y20288883D01*
X15524192Y20551673D01*
X15666838Y20895201D01*
X15667162Y21267167D01*
X15667162Y6350077D01*
X15443160Y6499750D01*
X14970760Y6593716D01*
X14498360Y6499750D01*
X14119829Y6246824D01*
X14029353Y6384557D01*
X13818320Y6527007D01*
X13568680Y6577070D01*
X12369800Y6577070D01*
X12127677Y6530093D01*
X11914873Y6390303D01*
X11857162Y6304807D01*
X11857162Y11361167D01*
X11715117Y11704943D01*
X11452327Y11968192D01*
X11210089Y12068779D01*
X10333162Y12945706D01*
X10333162Y29903167D01*
X10191117Y30246943D01*
X10158000Y30280118D01*
X10158000Y32203538D01*
X10190192Y32235673D01*
X10332838Y32579201D01*
X10333162Y32951167D01*
X10191117Y33294943D01*
X9928327Y33558192D01*
X9584799Y33700838D01*
X9212833Y33701162D01*
X8869057Y33559117D01*
X8605808Y33296327D01*
X8463162Y32952799D01*
X8463149Y32938931D01*
X8196833Y32939162D01*
X7853057Y32797117D01*
X7589808Y32534327D01*
X7447162Y32190799D01*
X7447149Y32176931D01*
X7180833Y32177162D01*
X6837057Y32035117D01*
X6573808Y31772327D01*
X6431162Y31428799D01*
X6430838Y31056833D01*
X6572883Y30713057D01*
X6606000Y30679883D01*
X6606000Y30280463D01*
X6573808Y30248327D01*
X6431162Y29904799D01*
X6430838Y29532833D01*
X6572883Y29189057D01*
X6835673Y28925808D01*
X7179201Y28783162D01*
X7551167Y28782838D01*
X7874371Y28916383D01*
X8195201Y28783162D01*
X8567167Y28782838D01*
X8890371Y28916383D01*
X9211201Y28783162D01*
X9583167Y28782838D01*
X9926943Y28924883D01*
X10190192Y29187673D01*
X10332838Y29531201D01*
X10333162Y29903167D01*
X10333162Y12945706D01*
X10290534Y12988334D01*
X10191117Y13228943D01*
X9928327Y13492192D01*
X9584799Y13634838D01*
X9212833Y13635162D01*
X8869057Y13493117D01*
X8605808Y13230327D01*
X8463162Y12886799D01*
X8462838Y12514833D01*
X8604883Y12171057D01*
X8867673Y11907808D01*
X9109910Y11807222D01*
X10029465Y10887667D01*
X10128883Y10647057D01*
X10391673Y10383808D01*
X10735201Y10241162D01*
X11107167Y10240838D01*
X11450943Y10382883D01*
X11714192Y10645673D01*
X11856838Y10989201D01*
X11857162Y11361167D01*
X11857162Y6304807D01*
X11772423Y6179270D01*
X11722360Y5929630D01*
X11722360Y4230370D01*
X11769337Y3988247D01*
X11909127Y3775443D01*
X12120160Y3632993D01*
X12369800Y3582930D01*
X13568680Y3582930D01*
X13810803Y3629907D01*
X14023607Y3769697D01*
X14120262Y3912888D01*
X14498360Y3660250D01*
X14970760Y3566284D01*
X15443160Y3660250D01*
X15843641Y3927843D01*
X16111234Y4328324D01*
X16205200Y4800724D01*
X16205200Y710000D01*
X8323725Y710000D01*
X8323725Y4757387D01*
X8323725Y5402613D01*
X8201259Y5873443D01*
X7907937Y6261568D01*
X7488413Y6507899D01*
X7396501Y6523095D01*
X7205980Y6398357D01*
X7205980Y5207000D01*
X8160980Y5207000D01*
X8323725Y5402613D01*
X8323725Y4757387D01*
X8160980Y4953000D01*
X7205980Y4953000D01*
X7205980Y3761643D01*
X7396501Y3636905D01*
X7488413Y3652101D01*
X7907937Y3898432D01*
X8201259Y4286557D01*
X8323725Y4757387D01*
X8323725Y710000D01*
X6951980Y710000D01*
X6951980Y3761643D01*
X6951980Y4953000D01*
X6931980Y4953000D01*
X6931980Y5207000D01*
X6951980Y5207000D01*
X6951980Y6398357D01*
X6761459Y6523095D01*
X6669547Y6507899D01*
X6250023Y6261568D01*
X6081885Y6039088D01*
X5952881Y6232157D01*
X5552400Y6499750D01*
X5080000Y6593716D01*
X4607600Y6499750D01*
X4230834Y6248004D01*
X4141133Y6384557D01*
X3930100Y6527007D01*
X3680460Y6577070D01*
X2481580Y6577070D01*
X2239457Y6530093D01*
X2026653Y6390303D01*
X1884203Y6179270D01*
X1834140Y5929630D01*
X1834140Y4230370D01*
X1881117Y3988247D01*
X2020907Y3775443D01*
X2231940Y3632993D01*
X2481580Y3582930D01*
X3680460Y3582930D01*
X3922583Y3629907D01*
X4135387Y3769697D01*
X4231252Y3911718D01*
X4607600Y3660250D01*
X5080000Y3566284D01*
X5552400Y3660250D01*
X5952881Y3927843D01*
X6081885Y4120913D01*
X6250023Y3898432D01*
X6669547Y3652101D01*
X6761459Y3636905D01*
X6951980Y3761643D01*
X6951980Y710000D01*
X710000Y710000D01*
X710000Y39290000D01*
X17436138Y39290000D01*
X17116697Y39158010D01*
X16723371Y38765370D01*
X16510243Y38252100D01*
X16509758Y37696339D01*
X16721990Y37182697D01*
X17114630Y36789371D01*
X17627900Y36576243D01*
X18183661Y36575758D01*
X18697303Y36787990D01*
X19090629Y37180630D01*
X19176949Y37388513D01*
X19261990Y37182697D01*
X19654630Y36789371D01*
X20167900Y36576243D01*
X20723661Y36575758D01*
X21237303Y36787990D01*
X21630629Y37180630D01*
X21716949Y37388513D01*
X21801990Y37182697D01*
X22100000Y36884167D01*
X22100000Y35106463D01*
X22067808Y35074327D01*
X21936439Y34757958D01*
X21866327Y34828192D01*
X21522799Y34970838D01*
X21150833Y34971162D01*
X20807057Y34829117D01*
X20773882Y34796000D01*
X18088462Y34796000D01*
X18056327Y34828192D01*
X17712799Y34970838D01*
X17340833Y34971162D01*
X16997057Y34829117D01*
X16733808Y34566327D01*
X16591162Y34222799D01*
X16590838Y33850833D01*
X16732883Y33507057D01*
X16995673Y33243808D01*
X17339201Y33101162D01*
X17711167Y33100838D01*
X18054943Y33242883D01*
X18088117Y33276000D01*
X20773537Y33276000D01*
X20805673Y33243808D01*
X21149201Y33101162D01*
X21521167Y33100838D01*
X21864943Y33242883D01*
X22128192Y33505673D01*
X22259560Y33822043D01*
X22329673Y33751808D01*
X22673201Y33609162D01*
X23045167Y33608838D01*
X23388943Y33750883D01*
X23652192Y34013673D01*
X23794838Y34357201D01*
X23795162Y34729167D01*
X23653117Y35072943D01*
X23620000Y35106118D01*
X23620000Y36722994D01*
X23777303Y36787990D01*
X24170629Y37180630D01*
X24256949Y37388513D01*
X24341990Y37182697D01*
X24565000Y36959298D01*
X24565000Y33761151D01*
X24353808Y33550327D01*
X24211162Y33206799D01*
X24210838Y32834833D01*
X24352883Y32491057D01*
X24615673Y32227808D01*
X24959201Y32085162D01*
X25331167Y32084838D01*
X25674943Y32226883D01*
X25938192Y32489673D01*
X26065112Y32795331D01*
X26065113Y32795332D01*
X26171439Y32954459D01*
X26171439Y32954460D01*
X26235000Y33274000D01*
X26235000Y36753984D01*
X26317303Y36787990D01*
X26710629Y37180630D01*
X26923757Y37693900D01*
X26924242Y38249661D01*
X26712010Y38763303D01*
X26319370Y39156629D01*
X25998176Y39290000D01*
X33311974Y39290000D01*
X33243673Y39221698D01*
X33147000Y38988309D01*
X33147000Y38385750D01*
X33305750Y38227000D01*
X34417000Y38227000D01*
X34417000Y38247000D01*
X34671000Y38247000D01*
X34671000Y38227000D01*
X34691000Y38227000D01*
X34691000Y37973000D01*
X34671000Y37973000D01*
X34671000Y37953000D01*
X34417000Y37953000D01*
X34417000Y37973000D01*
X33305750Y37973000D01*
X33147000Y37814250D01*
X33147000Y37211691D01*
X33243673Y36978302D01*
X33422301Y36799673D01*
X33655690Y36703000D01*
X33711613Y36703000D01*
X33360371Y36352370D01*
X33147243Y35839100D01*
X33146758Y35283339D01*
X33358990Y34769697D01*
X33751630Y34376371D01*
X33959512Y34290051D01*
X33753697Y34205010D01*
X33360371Y33812370D01*
X33147243Y33299100D01*
X33146758Y32743339D01*
X33358990Y32229697D01*
X33751630Y31836371D01*
X34264900Y31623243D01*
X34820661Y31622758D01*
X35334303Y31834990D01*
X35727629Y32227630D01*
X35813949Y32435513D01*
X35898990Y32229697D01*
X36291630Y31836371D01*
X36804900Y31623243D01*
X37360661Y31622758D01*
X37874303Y31834990D01*
X38267629Y32227630D01*
X38480757Y32740900D01*
X38481242Y33296661D01*
X38269010Y33810303D01*
X37876370Y34203629D01*
X37668487Y34289950D01*
X37874303Y34374990D01*
X38267629Y34767630D01*
X38480757Y35280900D01*
X38481242Y35836661D01*
X38269010Y36350303D01*
X37876370Y36743629D01*
X37668487Y36829950D01*
X37874303Y36914990D01*
X38267629Y37307630D01*
X38480757Y37820900D01*
X38481242Y38376661D01*
X38269010Y38890303D01*
X37876370Y39283629D01*
X37861026Y39290000D01*
X39290000Y39290000D01*
X39290000Y710000D01*
M02*
