G04 #@! TF.FileFunction,Copper,L1,Top,Signal*
%FSLAX46Y46*%
G04 Gerber Fmt 4.6, Leading zero omitted, Abs format (unit mm)*
G04 Created by KiCad (PCBNEW 0.201503230816+5530~22~ubuntu14.04.1-product) date Mi 02 Sep 2015 16:53:48 CEST*
%MOMM*%
G01*
G04 APERTURE LIST*
%ADD10C,0.150000*%
%ADD11R,2.000000X1.700000*%
%ADD12R,1.500000X0.600000*%
%ADD13R,1.524000X1.524000*%
%ADD14C,1.524000*%
%ADD15R,1.198880X1.699260*%
%ADD16O,1.198880X1.699260*%
%ADD17R,1.800860X0.800100*%
%ADD18R,1.700000X2.000000*%
%ADD19R,0.800100X1.800860*%
%ADD20C,0.800000*%
%ADD21R,0.500380X2.301240*%
%ADD22R,1.998980X2.499360*%
%ADD23C,2.499360*%
%ADD24R,1.300000X0.650000*%
%ADD25C,0.600000*%
%ADD26C,0.400000*%
%ADD27C,0.250000*%
G04 APERTURE END LIST*
D10*
D11*
X25813000Y21590000D03*
X29813000Y21590000D03*
X21050000Y21590000D03*
X17050000Y21590000D03*
X5810000Y17780000D03*
X1810000Y17780000D03*
X37179000Y28575000D03*
X33179000Y28575000D03*
X33179000Y25019000D03*
X37179000Y25019000D03*
D12*
X21750000Y25400000D03*
X21750000Y26670000D03*
X21750000Y27940000D03*
X21750000Y29210000D03*
X21750000Y30480000D03*
X21750000Y31750000D03*
X21750000Y33020000D03*
X16350000Y33020000D03*
X16350000Y31750000D03*
X16350000Y30480000D03*
X16350000Y29210000D03*
X16350000Y27940000D03*
X16350000Y26670000D03*
X16350000Y25400000D03*
D13*
X34544000Y38100000D03*
D14*
X37084000Y38100000D03*
X34544000Y35560000D03*
X37084000Y35560000D03*
X34544000Y33020000D03*
X37084000Y33020000D03*
D15*
X3081020Y5080000D03*
D16*
X5080000Y5080000D03*
X7078980Y5080000D03*
D15*
X20861020Y5080000D03*
D16*
X22860000Y5080000D03*
X24858980Y5080000D03*
D15*
X12969240Y5080000D03*
D16*
X14970760Y5080000D03*
D17*
X24107140Y8702000D03*
X24107140Y10602000D03*
X21104860Y9652000D03*
X5692140Y11369000D03*
X5692140Y13269000D03*
X2689860Y12319000D03*
D11*
X25813000Y28575000D03*
X29813000Y28575000D03*
D18*
X33020000Y12605000D03*
X33020000Y16605000D03*
D11*
X29813000Y25019000D03*
X25813000Y25019000D03*
D18*
X31115000Y33560000D03*
X31115000Y37560000D03*
D19*
X11110000Y18011140D03*
X9210000Y18011140D03*
X10160000Y15008860D03*
D20*
X2380000Y21888000D03*
X3653500Y21898400D03*
X4923500Y21898400D03*
X6193500Y21898400D03*
X7463500Y21898400D03*
X8733500Y21898400D03*
X10003500Y21898400D03*
X11273500Y21898400D03*
D21*
X32689800Y7259320D03*
X33489900Y7259320D03*
X34290000Y7259320D03*
X35090100Y7259320D03*
X35890200Y7259320D03*
D22*
X29839920Y7160260D03*
X29839920Y1661160D03*
X38740080Y7160260D03*
X38740080Y1661160D03*
D23*
X37211000Y17526000D03*
X37211000Y13716000D03*
D11*
X33179000Y21590000D03*
X37179000Y21590000D03*
D24*
X27502000Y17206000D03*
X27502000Y16256000D03*
X27502000Y15306000D03*
X29902000Y15306000D03*
X29902000Y17206000D03*
D14*
X25527000Y37973000D03*
X22987000Y37973000D03*
X20447000Y37973000D03*
X17907000Y37973000D03*
D25*
X14986000Y25908000D03*
X5842000Y16002000D03*
X12192000Y18034000D03*
X29718000Y9144000D03*
X17018000Y20066000D03*
X36322000Y26797000D03*
X30988000Y12573000D03*
X25019000Y19558000D03*
X3683000Y13970000D03*
X22225000Y10922000D03*
X10922000Y11176000D03*
X9398000Y12700000D03*
X25146000Y33020000D03*
X20320000Y24003000D03*
X17780000Y29210000D03*
X22860000Y34544000D03*
X21336000Y34036000D03*
X9398000Y32766000D03*
X17526000Y34036000D03*
X9398000Y29718000D03*
X8382000Y32004000D03*
X8382000Y29718000D03*
X7366000Y29718000D03*
X7366000Y31242000D03*
X18161000Y26670000D03*
X23622000Y23368000D03*
X14732000Y21082000D03*
X14478000Y24638000D03*
X13970000Y33782000D03*
X13970000Y29718000D03*
D26*
X39624000Y36576000D02*
X38100000Y38100000D01*
X39624000Y28194000D02*
X39624000Y36576000D01*
X39624000Y23241000D02*
X39624000Y28194000D01*
X39624000Y15367000D02*
X39624000Y23241000D01*
X39624000Y12446000D02*
X39624000Y15367000D01*
X38354000Y11176000D02*
X39624000Y12446000D01*
X37084000Y38100000D02*
X38100000Y38100000D01*
X32689800Y8559800D02*
X33528000Y9398000D01*
X33528000Y9398000D02*
X37846000Y9398000D01*
X37846000Y9398000D02*
X38354000Y9906000D01*
X38354000Y9906000D02*
X38354000Y10922000D01*
X38354000Y10922000D02*
X38354000Y11176000D01*
X32689800Y7259320D02*
X32689800Y8559800D01*
X39243000Y28575000D02*
X39624000Y28194000D01*
X37179000Y28575000D02*
X39243000Y28575000D01*
X31369000Y23241000D02*
X39624000Y23241000D01*
X29813000Y21685000D02*
X31369000Y23241000D01*
X29813000Y21590000D02*
X29813000Y21685000D01*
X29902000Y15306000D02*
X30287000Y15306000D01*
X31049000Y15306000D02*
X31369000Y14986000D01*
X31369000Y14986000D02*
X34036000Y14986000D01*
X34036000Y14986000D02*
X34671000Y15621000D01*
X34671000Y15621000D02*
X34671000Y18161000D01*
X34671000Y18161000D02*
X32893000Y19939000D01*
X32893000Y19939000D02*
X31464000Y19939000D01*
X31464000Y19939000D02*
X29813000Y21590000D01*
X29902000Y15306000D02*
X31049000Y15306000D01*
X37592000Y13716000D02*
X37338000Y13716000D01*
X37338000Y13716000D02*
X35306000Y15748000D01*
X35306000Y15748000D02*
X35306000Y19463000D01*
X35306000Y19463000D02*
X33179000Y21590000D01*
X16350000Y25400000D02*
X15494000Y25400000D01*
X15494000Y25400000D02*
X14986000Y25908000D01*
X3653500Y21898400D02*
X3653500Y19936500D01*
X3653500Y19936500D02*
X5810000Y17780000D01*
X35890200Y7259320D02*
X38641020Y7259320D01*
X38641020Y7259320D02*
X38740080Y7160260D01*
X29839920Y1661160D02*
X29839920Y7160260D01*
X38740080Y1661160D02*
X29839920Y1661160D01*
X38740080Y1661160D02*
X38740080Y7160260D01*
X5810000Y16034000D02*
X5842000Y16002000D01*
X5810000Y17780000D02*
X5810000Y16034000D01*
X12169140Y18011140D02*
X12192000Y18034000D01*
X11110000Y18011140D02*
X12169140Y18011140D01*
X29839920Y9022080D02*
X29718000Y9144000D01*
X29839920Y7160260D02*
X29839920Y9022080D01*
X17050000Y20098000D02*
X17018000Y20066000D01*
X17050000Y21590000D02*
X17050000Y20098000D01*
X37179000Y25940000D02*
X36322000Y26797000D01*
X37179000Y25019000D02*
X37179000Y25940000D01*
X26289000Y16256000D02*
X25813000Y16732000D01*
X25813000Y16732000D02*
X25813000Y21590000D01*
X27502000Y16256000D02*
X26289000Y16256000D01*
X33179000Y21590000D02*
X33179000Y21304000D01*
X33020000Y12605000D02*
X31020000Y12605000D01*
X31020000Y12605000D02*
X30988000Y12573000D01*
X25019000Y20701000D02*
X25019000Y19558000D01*
X25813000Y21495000D02*
X25019000Y20701000D01*
X25813000Y21590000D02*
X25813000Y21495000D01*
X4384000Y13269000D02*
X3683000Y13970000D01*
X5692140Y13269000D02*
X4384000Y13269000D01*
X23307000Y10602000D02*
X22225000Y10922000D01*
X24107140Y10602000D02*
X23307000Y10602000D01*
X2380000Y21888000D02*
X2380000Y18350000D01*
X2380000Y18350000D02*
X1810000Y17780000D01*
X4843500Y21818400D02*
X4843500Y20910400D01*
X4843500Y20302500D02*
X5588000Y19558000D01*
X5588000Y19558000D02*
X7663140Y19558000D01*
X7663140Y19558000D02*
X9210000Y18011140D01*
X4843500Y20910400D02*
X4843500Y20302500D01*
X4843500Y21818400D02*
X4923500Y21898400D01*
X1810000Y17240000D02*
X1810000Y17780000D01*
X6604000Y14986000D02*
X4064000Y14986000D01*
X4064000Y14986000D02*
X1810000Y17240000D01*
X9210000Y17592000D02*
X6604000Y14986000D01*
X9210000Y18011140D02*
X9210000Y17592000D01*
X28194000Y11176000D02*
X30099000Y11176000D01*
X38862000Y15875000D02*
X37211000Y17526000D01*
X38862000Y12573000D02*
X38862000Y15875000D01*
X36830000Y10541000D02*
X38862000Y12573000D01*
X30734000Y10541000D02*
X36830000Y10541000D01*
X30099000Y11176000D02*
X30734000Y10541000D01*
X28194000Y6604000D02*
X28194000Y11176000D01*
X25146000Y3556000D02*
X28194000Y6604000D01*
X21590000Y3556000D02*
X25146000Y3556000D01*
X20861020Y4284980D02*
X21590000Y3556000D01*
X27502000Y11868000D02*
X27502000Y15306000D01*
X28194000Y11176000D02*
X27502000Y11868000D01*
X37592000Y17526000D02*
X37592000Y21177000D01*
X37592000Y21177000D02*
X37179000Y21590000D01*
X25940000Y37560000D02*
X25400000Y38100000D01*
X31115000Y37560000D02*
X25940000Y37560000D01*
X18034000Y5080000D02*
X16256000Y6858000D01*
X16256000Y6858000D02*
X14747240Y6858000D01*
X14747240Y6858000D02*
X12969240Y5080000D01*
X20861020Y5080000D02*
X18034000Y5080000D01*
X12969240Y9128760D02*
X10922000Y11176000D01*
X9398000Y12700000D02*
X10160000Y13462000D01*
X10160000Y13462000D02*
X10160000Y15008860D01*
X12969240Y5080000D02*
X12969240Y9128760D01*
X21050000Y24700000D02*
X21750000Y25400000D01*
X21050000Y23844000D02*
X21050000Y24700000D01*
X21050000Y21590000D02*
X21050000Y23844000D01*
X20861020Y5080000D02*
X20861020Y4284980D01*
X22860000Y25400000D02*
X23749000Y26289000D01*
X23749000Y26289000D02*
X23749000Y31623000D01*
X23749000Y31623000D02*
X25146000Y33020000D01*
X21750000Y25400000D02*
X22860000Y25400000D01*
X24699000Y15306000D02*
X21050000Y18955000D01*
X27502000Y15306000D02*
X24699000Y15306000D01*
X21050000Y18955000D02*
X21050000Y21590000D01*
X21050000Y23273000D02*
X21050000Y21590000D01*
X20891000Y24003000D02*
X21050000Y23844000D01*
X16350000Y29210000D02*
X17780000Y29210000D01*
X20320000Y24003000D02*
X20891000Y24003000D01*
D27*
X29813000Y28575000D02*
X33433000Y28575000D01*
X29813000Y25019000D02*
X33179000Y25019000D01*
X28924000Y33560000D02*
X25908000Y36576000D01*
X25908000Y36576000D02*
X24384000Y36576000D01*
X24384000Y36576000D02*
X22860000Y38100000D01*
X31115000Y33560000D02*
X28924000Y33560000D01*
X17526000Y27940000D02*
X18542000Y28956000D01*
X18542000Y28956000D02*
X18542000Y32512000D01*
X18542000Y32512000D02*
X20821799Y34791799D01*
X20821799Y34791799D02*
X22612201Y34791799D01*
X22612201Y34791799D02*
X22860000Y34544000D01*
X16350000Y27940000D02*
X17526000Y27940000D01*
X3081020Y5080000D02*
X3081020Y5875020D01*
X13970000Y22477602D02*
X15368398Y23876000D01*
X15368398Y23876000D02*
X17780000Y23876000D01*
X17780000Y23876000D02*
X19558000Y25654000D01*
X19558000Y25654000D02*
X19558000Y29464000D01*
X19558000Y29464000D02*
X20574000Y30480000D01*
X20574000Y30480000D02*
X21750000Y30480000D01*
X13462000Y17272000D02*
X13462000Y21844000D01*
X12700000Y14732000D02*
X12700000Y16256000D01*
X12700000Y16256000D02*
X13462000Y17018000D01*
X13462000Y17018000D02*
X13462000Y17272000D01*
X3081020Y5875020D02*
X8636000Y11430000D01*
X8636000Y11430000D02*
X9398000Y11430000D01*
X9398000Y11430000D02*
X12700000Y14732000D01*
X13462000Y21844000D02*
X13970000Y22352000D01*
X13970000Y22352000D02*
X13970000Y22477602D01*
X31496000Y30480000D02*
X28956000Y30480000D01*
X38354000Y30480000D02*
X38354000Y31750000D01*
X37084000Y30480000D02*
X38354000Y30480000D01*
X31496000Y30480000D02*
X37084000Y30480000D01*
X37084000Y33020000D02*
X38354000Y31750000D01*
X22606000Y29210000D02*
X21750000Y29210000D01*
X23114000Y29718000D02*
X22606000Y29210000D01*
X23114000Y32512000D02*
X23114000Y29718000D01*
X24384000Y33782000D02*
X23114000Y32512000D01*
X25654000Y33782000D02*
X24384000Y33782000D01*
X28956000Y30480000D02*
X25654000Y33782000D01*
X13716000Y22860000D02*
X15240000Y24384000D01*
X12954000Y22098000D02*
X13716000Y22860000D01*
X9398000Y16510000D02*
X12192000Y16510000D01*
X12192000Y16510000D02*
X12954000Y17272000D01*
X12954000Y17272000D02*
X12954000Y22098000D01*
X21750000Y31750000D02*
X20320000Y31750000D01*
X19050000Y30480000D02*
X20320000Y31750000D01*
X19050000Y25908000D02*
X19050000Y30480000D01*
X17526000Y24384000D02*
X19050000Y25908000D01*
X15240000Y24384000D02*
X17526000Y24384000D01*
X9398000Y16510000D02*
X9271000Y16510000D01*
X9271000Y16510000D02*
X7493000Y14732000D01*
X7493000Y14732000D02*
X7493000Y12065000D01*
X7493000Y12065000D02*
X6797000Y11369000D01*
X6797000Y11369000D02*
X5692140Y11369000D01*
X34544000Y32766000D02*
X34544000Y33020000D01*
X21590000Y33020000D02*
X21750000Y33020000D01*
X21336000Y34036000D02*
X21590000Y33020000D01*
X17526000Y34036000D02*
X15240000Y34036000D01*
X15240000Y34036000D02*
X13970000Y32766000D01*
X13970000Y32766000D02*
X9398000Y32766000D01*
X10003500Y21898400D02*
X10003500Y22254500D01*
X9398000Y22860000D02*
X10003500Y22254500D01*
X9398000Y22860000D02*
X9398000Y29718000D01*
X22352000Y33020000D02*
X21750000Y33020000D01*
X25654000Y34544000D02*
X23876000Y34544000D01*
X23876000Y34544000D02*
X22352000Y33020000D01*
X32766000Y30988000D02*
X29210000Y30988000D01*
X34544000Y32766000D02*
X32766000Y30988000D01*
X29210000Y30988000D02*
X26162000Y34036000D01*
X26162000Y34036000D02*
X25654000Y34544000D01*
X33782000Y35560000D02*
X34544000Y35560000D01*
X32315998Y32004000D02*
X32766000Y32454002D01*
X32766000Y32454002D02*
X32766000Y34544000D01*
X32766000Y34544000D02*
X33782000Y35560000D01*
X16350000Y33020000D02*
X17526000Y33020000D01*
X29718000Y32004000D02*
X32258000Y32004000D01*
X25908000Y35814000D02*
X29718000Y32004000D01*
X20320000Y35814000D02*
X25908000Y35814000D01*
X17526000Y33020000D02*
X20320000Y35814000D01*
X32258000Y32004000D02*
X32315998Y32004000D01*
X14224000Y32004000D02*
X8382000Y32004000D01*
X16350000Y33020000D02*
X15240000Y33020000D01*
X15240000Y33020000D02*
X14224000Y32004000D01*
X8382000Y22606000D02*
X8382000Y29718000D01*
X8733500Y22254500D02*
X8382000Y22606000D01*
X8733500Y21898400D02*
X8733500Y22254500D01*
X16350000Y31750000D02*
X15240000Y31750000D01*
X7463500Y29620500D02*
X7463500Y21898400D01*
X7366000Y29718000D02*
X7463500Y29620500D01*
X14732000Y31242000D02*
X7366000Y31242000D01*
X15240000Y31750000D02*
X14732000Y31242000D01*
X16350000Y31750000D02*
X16960002Y31750000D01*
X32258000Y31496000D02*
X32512000Y31496000D01*
X20451803Y35241801D02*
X25843801Y35241801D01*
X25843801Y35241801D02*
X29589602Y31496000D01*
X29589602Y31496000D02*
X32258000Y31496000D01*
X20451803Y35241801D02*
X16960002Y31750000D01*
X33782000Y34290000D02*
X35814000Y34290000D01*
X33274000Y33782000D02*
X33782000Y34290000D01*
X33274000Y32258000D02*
X33274000Y33782000D01*
X32512000Y31496000D02*
X33274000Y32258000D01*
X37084000Y35560000D02*
X35814000Y34290000D01*
X16350000Y30480000D02*
X6604000Y30480000D01*
X6193500Y29307500D02*
X6193500Y21898400D01*
X6604000Y30480000D02*
X6193500Y29307500D01*
X16350000Y30480000D02*
X16764000Y30480000D01*
X21082000Y26670000D02*
X21750000Y26670000D01*
X19558000Y21209000D02*
X19558000Y24130000D01*
X19558000Y21082000D02*
X19558000Y21209000D01*
X19558000Y24130000D02*
X20574000Y25146000D01*
X20574000Y25146000D02*
X20574000Y26162000D01*
X20574000Y26162000D02*
X21082000Y26670000D01*
X19558000Y19304000D02*
X24384000Y14478000D01*
X24384000Y14478000D02*
X25654000Y14478000D01*
X25654000Y14478000D02*
X25908000Y14224000D01*
X25908000Y14224000D02*
X25908000Y11938000D01*
X25908000Y11938000D02*
X25908000Y8636000D01*
X25908000Y8636000D02*
X24107140Y8702000D01*
X19558000Y21209000D02*
X19558000Y19304000D01*
X25273000Y25019000D02*
X25813000Y25019000D01*
X23622000Y23368000D02*
X25273000Y25019000D01*
X16350000Y26670000D02*
X18161000Y26670000D01*
X17780000Y37592000D02*
X17780000Y38100000D01*
X14478000Y20828000D02*
X14732000Y21082000D01*
X14478000Y16256000D02*
X14478000Y17272000D01*
X17780000Y37592000D02*
X13970000Y33782000D01*
X13970000Y25146000D02*
X13970000Y29718000D01*
X14478000Y24638000D02*
X13970000Y25146000D01*
X14478000Y17272000D02*
X14478000Y20828000D01*
X18161000Y12573000D02*
X14478000Y16256000D01*
X21104860Y9652000D02*
X18161000Y12573000D01*
X19685000Y7239000D02*
X22699980Y7239000D01*
X22699980Y7239000D02*
X24858980Y5080000D01*
X14478000Y16256000D02*
X14478000Y12446000D01*
X18034000Y8890000D02*
X14478000Y12446000D01*
X18034000Y8890000D02*
X19685000Y7239000D01*
X14970760Y4048760D02*
X14224000Y3302000D01*
X14224000Y3302000D02*
X2286000Y3302000D01*
X2286000Y3302000D02*
X1524000Y4064000D01*
X1524000Y6223000D02*
X1524000Y6372860D01*
X1524000Y4064000D02*
X1524000Y6223000D01*
X14970760Y5080000D02*
X14970760Y4048760D01*
X1524000Y11430000D02*
X1524000Y6223000D01*
X2413000Y12319000D02*
X1524000Y11430000D01*
X2689860Y12319000D02*
X2413000Y12319000D01*
X5080000Y7112000D02*
X8890000Y10922000D01*
X8890000Y10922000D02*
X9652000Y10922000D01*
X9652000Y10922000D02*
X13150002Y14420002D01*
X13150002Y14420002D02*
X13150002Y14478000D01*
X5080000Y5080000D02*
X5080000Y7112000D01*
X22860000Y5080000D02*
X23114000Y5080000D01*
X22860000Y5334000D02*
X22860000Y5080000D01*
X13150002Y13011998D02*
X19558000Y6604000D01*
X19558000Y6604000D02*
X21590000Y6604000D01*
X21590000Y6604000D02*
X22860000Y5334000D01*
X13150002Y14478000D02*
X13150002Y13011998D01*
X13912002Y21532002D02*
X15748000Y23368000D01*
X15748000Y23368000D02*
X18034000Y23368000D01*
X18034000Y23368000D02*
X20066000Y25400000D01*
X20066000Y25400000D02*
X20066000Y27432000D01*
X20066000Y27432000D02*
X20574000Y27940000D01*
X20574000Y27940000D02*
X21750000Y27940000D01*
X13912002Y16706002D02*
X13912002Y17272000D01*
X13150002Y15944002D02*
X13912002Y16706002D01*
X13150002Y14478000D02*
X13150002Y15944002D01*
X13912002Y17272000D02*
X13912002Y21532002D01*
X27813000Y17517000D02*
X27502000Y17206000D01*
X27813000Y26353000D02*
X27813000Y17517000D01*
X25813000Y28353000D02*
X27813000Y26353000D01*
X25813000Y28575000D02*
X25813000Y28353000D01*
X30503000Y16605000D02*
X29902000Y17206000D01*
X33020000Y16605000D02*
X30503000Y16605000D01*
M02*
