G04 #@! TF.FileFunction,Legend,Top*
%FSLAX46Y46*%
G04 Gerber Fmt 4.6, Leading zero omitted, Abs format (unit mm)*
G04 Created by KiCad (PCBNEW 0.201503230816+5530~22~ubuntu14.04.1-product) date Mi 02 Sep 2015 16:59:24 CEST*
%MOMM*%
G01*
G04 APERTURE LIST*
%ADD10C,0.150000*%
%ADD11C,0.175000*%
%ADD12C,0.381000*%
%ADD13C,0.203200*%
%ADD14C,0.304800*%
G04 APERTURE END LIST*
D10*
D11*
X13494430Y17371143D02*
X13723001Y17371143D01*
X13837287Y17314000D01*
X13951573Y17199714D01*
X14008715Y16971143D01*
X14008715Y16571143D01*
X13951573Y16342571D01*
X13837287Y16228286D01*
X13723001Y16171143D01*
X13494430Y16171143D01*
X13380144Y16228286D01*
X13265858Y16342571D01*
X13208715Y16571143D01*
X13208715Y16971143D01*
X13265858Y17199714D01*
X13380144Y17314000D01*
X13494430Y17371143D01*
X14523001Y16971143D02*
X14523001Y15771143D01*
X14523001Y16914000D02*
X14637287Y16971143D01*
X14865858Y16971143D01*
X14980144Y16914000D01*
X15037287Y16856857D01*
X15094430Y16742571D01*
X15094430Y16399714D01*
X15037287Y16285429D01*
X14980144Y16228286D01*
X14865858Y16171143D01*
X14637287Y16171143D01*
X14523001Y16228286D01*
X16065858Y16228286D02*
X15951572Y16171143D01*
X15723001Y16171143D01*
X15608715Y16228286D01*
X15551572Y16342571D01*
X15551572Y16799714D01*
X15608715Y16914000D01*
X15723001Y16971143D01*
X15951572Y16971143D01*
X16065858Y16914000D01*
X16123001Y16799714D01*
X16123001Y16685429D01*
X15551572Y16571143D01*
X16637286Y16971143D02*
X16637286Y16171143D01*
X16637286Y16856857D02*
X16694429Y16914000D01*
X16808715Y16971143D01*
X16980143Y16971143D01*
X17094429Y16914000D01*
X17151572Y16799714D01*
X17151572Y16171143D01*
X17723000Y16171143D02*
X17723000Y17371143D01*
X17723000Y16799714D02*
X18408715Y16799714D01*
X18408715Y16171143D02*
X18408715Y17371143D01*
X19494429Y16971143D02*
X19494429Y16171143D01*
X18980143Y16971143D02*
X18980143Y16342571D01*
X19037286Y16228286D01*
X19151572Y16171143D01*
X19323000Y16171143D01*
X19437286Y16228286D01*
X19494429Y16285429D01*
X20065857Y16171143D02*
X20065857Y16971143D01*
X20065857Y16856857D02*
X20123000Y16914000D01*
X20237286Y16971143D01*
X20408714Y16971143D01*
X20523000Y16914000D01*
X20580143Y16799714D01*
X20580143Y16171143D01*
X20580143Y16799714D02*
X20637286Y16914000D01*
X20751572Y16971143D01*
X20923000Y16971143D01*
X21037286Y16914000D01*
X21094429Y16799714D01*
X21094429Y16171143D01*
X21665857Y16171143D02*
X21665857Y16971143D01*
X21665857Y17371143D02*
X21608714Y17314000D01*
X21665857Y17256857D01*
X21723000Y17314000D01*
X21665857Y17371143D01*
X21665857Y17256857D01*
X22751572Y16171143D02*
X22751572Y17371143D01*
X22751572Y16228286D02*
X22637286Y16171143D01*
X22408715Y16171143D01*
X22294429Y16228286D01*
X22237286Y16285429D01*
X22180143Y16399714D01*
X22180143Y16742571D01*
X22237286Y16856857D01*
X22294429Y16914000D01*
X22408715Y16971143D01*
X22637286Y16971143D01*
X22751572Y16914000D01*
X23494429Y16171143D02*
X23380143Y16228286D01*
X23323000Y16285429D01*
X23265857Y16399714D01*
X23265857Y16742571D01*
X23323000Y16856857D01*
X23380143Y16914000D01*
X23494429Y16971143D01*
X23665857Y16971143D01*
X23780143Y16914000D01*
X23837286Y16856857D01*
X23894429Y16742571D01*
X23894429Y16399714D01*
X23837286Y16285429D01*
X23780143Y16228286D01*
X23665857Y16171143D01*
X23494429Y16171143D01*
X24408714Y16171143D02*
X24408714Y16971143D01*
X24408714Y16742571D02*
X24465857Y16856857D01*
X24523000Y16914000D01*
X24637286Y16971143D01*
X24751571Y16971143D01*
X13065858Y14373286D02*
X13237287Y14316143D01*
X13523001Y14316143D01*
X13637287Y14373286D01*
X13694430Y14430429D01*
X13751573Y14544714D01*
X13751573Y14659000D01*
X13694430Y14773286D01*
X13637287Y14830429D01*
X13523001Y14887571D01*
X13294430Y14944714D01*
X13180144Y15001857D01*
X13123001Y15059000D01*
X13065858Y15173286D01*
X13065858Y15287571D01*
X13123001Y15401857D01*
X13180144Y15459000D01*
X13294430Y15516143D01*
X13580144Y15516143D01*
X13751573Y15459000D01*
X14723001Y14373286D02*
X14608715Y14316143D01*
X14380144Y14316143D01*
X14265858Y14373286D01*
X14208715Y14487571D01*
X14208715Y14944714D01*
X14265858Y15059000D01*
X14380144Y15116143D01*
X14608715Y15116143D01*
X14723001Y15059000D01*
X14780144Y14944714D01*
X14780144Y14830429D01*
X14208715Y14716143D01*
X15294429Y15116143D02*
X15294429Y14316143D01*
X15294429Y15001857D02*
X15351572Y15059000D01*
X15465858Y15116143D01*
X15637286Y15116143D01*
X15751572Y15059000D01*
X15808715Y14944714D01*
X15808715Y14316143D01*
X16323000Y14373286D02*
X16437286Y14316143D01*
X16665858Y14316143D01*
X16780143Y14373286D01*
X16837286Y14487571D01*
X16837286Y14544714D01*
X16780143Y14659000D01*
X16665858Y14716143D01*
X16494429Y14716143D01*
X16380143Y14773286D01*
X16323000Y14887571D01*
X16323000Y14944714D01*
X16380143Y15059000D01*
X16494429Y15116143D01*
X16665858Y15116143D01*
X16780143Y15059000D01*
X17523001Y14316143D02*
X17408715Y14373286D01*
X17351572Y14430429D01*
X17294429Y14544714D01*
X17294429Y14887571D01*
X17351572Y15001857D01*
X17408715Y15059000D01*
X17523001Y15116143D01*
X17694429Y15116143D01*
X17808715Y15059000D01*
X17865858Y15001857D01*
X17923001Y14887571D01*
X17923001Y14544714D01*
X17865858Y14430429D01*
X17808715Y14373286D01*
X17694429Y14316143D01*
X17523001Y14316143D01*
X18437286Y14316143D02*
X18437286Y15116143D01*
X18437286Y14887571D02*
X18494429Y15001857D01*
X18551572Y15059000D01*
X18665858Y15116143D01*
X18780143Y15116143D01*
X20494429Y14944714D02*
X20665858Y14887571D01*
X20723001Y14830429D01*
X20780144Y14716143D01*
X20780144Y14544714D01*
X20723001Y14430429D01*
X20665858Y14373286D01*
X20551572Y14316143D01*
X20094429Y14316143D01*
X20094429Y15516143D01*
X20494429Y15516143D01*
X20608715Y15459000D01*
X20665858Y15401857D01*
X20723001Y15287571D01*
X20723001Y15173286D01*
X20665858Y15059000D01*
X20608715Y15001857D01*
X20494429Y14944714D01*
X20094429Y14944714D01*
X21465858Y14316143D02*
X21351572Y14373286D01*
X21294429Y14430429D01*
X21237286Y14544714D01*
X21237286Y14887571D01*
X21294429Y15001857D01*
X21351572Y15059000D01*
X21465858Y15116143D01*
X21637286Y15116143D01*
X21751572Y15059000D01*
X21808715Y15001857D01*
X21865858Y14887571D01*
X21865858Y14544714D01*
X21808715Y14430429D01*
X21751572Y14373286D01*
X21637286Y14316143D01*
X21465858Y14316143D01*
X22894429Y14316143D02*
X22894429Y14944714D01*
X22837286Y15059000D01*
X22723000Y15116143D01*
X22494429Y15116143D01*
X22380143Y15059000D01*
X22894429Y14373286D02*
X22780143Y14316143D01*
X22494429Y14316143D01*
X22380143Y14373286D01*
X22323000Y14487571D01*
X22323000Y14601857D01*
X22380143Y14716143D01*
X22494429Y14773286D01*
X22780143Y14773286D01*
X22894429Y14830429D01*
X23465857Y14316143D02*
X23465857Y15116143D01*
X23465857Y14887571D02*
X23523000Y15001857D01*
X23580143Y15059000D01*
X23694429Y15116143D01*
X23808714Y15116143D01*
X24723000Y14316143D02*
X24723000Y15516143D01*
X24723000Y14373286D02*
X24608714Y14316143D01*
X24380143Y14316143D01*
X24265857Y14373286D01*
X24208714Y14430429D01*
X24151571Y14544714D01*
X24151571Y14887571D01*
X24208714Y15001857D01*
X24265857Y15059000D01*
X24380143Y15116143D01*
X24608714Y15116143D01*
X24723000Y15059000D01*
X18065858Y13261143D02*
X18351572Y12461143D01*
X18637286Y13261143D01*
X19608715Y13261143D02*
X19608715Y12461143D01*
X19323001Y13718286D02*
X19037286Y12861143D01*
X19780144Y12861143D01*
D10*
X28813000Y20515000D02*
X26813000Y20515000D01*
X26813000Y22665000D02*
X28813000Y22665000D01*
X18050000Y22665000D02*
X20050000Y22665000D01*
X20050000Y20515000D02*
X18050000Y20515000D01*
X2810000Y18855000D02*
X4810000Y18855000D01*
X4810000Y16705000D02*
X2810000Y16705000D01*
X34179000Y29650000D02*
X36179000Y29650000D01*
X36179000Y27500000D02*
X34179000Y27500000D01*
X36179000Y23944000D02*
X34179000Y23944000D01*
X34179000Y26094000D02*
X36179000Y26094000D01*
X21125000Y24760000D02*
X21125000Y24875000D01*
X16975000Y24760000D02*
X16975000Y24875000D01*
X16975000Y33660000D02*
X16975000Y33545000D01*
X21125000Y33660000D02*
X21125000Y33545000D01*
X21125000Y24760000D02*
X16975000Y24760000D01*
X21125000Y33660000D02*
X16975000Y33660000D01*
X21125000Y24875000D02*
X22500000Y24875000D01*
X38354000Y39370000D02*
X33274000Y39370000D01*
X33274000Y39370000D02*
X33274000Y31750000D01*
X33274000Y31750000D02*
X38354000Y31750000D01*
X38354000Y31750000D02*
X38354000Y39370000D01*
D12*
X2778760Y980440D02*
X2778760Y-1219200D01*
X2778760Y-1219200D02*
X2479040Y-1219200D01*
X2479040Y-1219200D02*
X2479040Y980440D01*
X1079500Y4681220D02*
X9080500Y4681220D01*
X3578860Y3081020D02*
X6581140Y3081020D01*
X1079500Y-1219200D02*
X9080500Y-1219200D01*
X6578600Y3081020D02*
X6578600Y-1219200D01*
X3578860Y3081020D02*
X3578860Y-1219200D01*
X7376160Y980440D02*
X7376160Y2580640D01*
X8376920Y980440D02*
X7376160Y980440D01*
X8376920Y2580640D02*
X8376920Y980440D01*
X7376160Y2580640D02*
X8376920Y2580640D01*
X1778000Y2580640D02*
X2778760Y2580640D01*
X2778760Y2580640D02*
X2778760Y980440D01*
X2778760Y980440D02*
X1778000Y980440D01*
X1778000Y980440D02*
X1778000Y2580640D01*
X8879840Y6479540D02*
X8879840Y4681220D01*
X1280160Y6479540D02*
X1280160Y4681220D01*
X9080500Y-1219200D02*
X9080500Y6479540D01*
X9080500Y6479540D02*
X8681720Y6479540D01*
X8681720Y6479540D02*
X8681720Y4681220D01*
X1478280Y4681220D02*
X1478280Y6479540D01*
X1478280Y6479540D02*
X1079500Y6479540D01*
X1079500Y6479540D02*
X1079500Y-1219200D01*
X20558760Y980440D02*
X20558760Y-1219200D01*
X20558760Y-1219200D02*
X20259040Y-1219200D01*
X20259040Y-1219200D02*
X20259040Y980440D01*
X18859500Y4681220D02*
X26860500Y4681220D01*
X21358860Y3081020D02*
X24361140Y3081020D01*
X18859500Y-1219200D02*
X26860500Y-1219200D01*
X24358600Y3081020D02*
X24358600Y-1219200D01*
X21358860Y3081020D02*
X21358860Y-1219200D01*
X25156160Y980440D02*
X25156160Y2580640D01*
X26156920Y980440D02*
X25156160Y980440D01*
X26156920Y2580640D02*
X26156920Y980440D01*
X25156160Y2580640D02*
X26156920Y2580640D01*
X19558000Y2580640D02*
X20558760Y2580640D01*
X20558760Y2580640D02*
X20558760Y980440D01*
X20558760Y980440D02*
X19558000Y980440D01*
X19558000Y980440D02*
X19558000Y2580640D01*
X26659840Y6479540D02*
X26659840Y4681220D01*
X19060160Y6479540D02*
X19060160Y4681220D01*
X26860500Y-1219200D02*
X26860500Y6479540D01*
X26860500Y6479540D02*
X26461720Y6479540D01*
X26461720Y6479540D02*
X26461720Y4681220D01*
X19258280Y4681220D02*
X19258280Y6479540D01*
X19258280Y6479540D02*
X18859500Y6479540D01*
X18859500Y6479540D02*
X18859500Y-1219200D01*
X12669520Y980440D02*
X12669520Y-1219200D01*
X12669520Y-1219200D02*
X12369800Y-1219200D01*
X12369800Y-1219200D02*
X12369800Y980440D01*
X14470380Y3081020D02*
X14470380Y-1219200D01*
X13469620Y3081020D02*
X13469620Y-1219200D01*
X14470380Y3081020D02*
X13469620Y3081020D01*
X15267940Y980440D02*
X15267940Y2580640D01*
X16268700Y980440D02*
X15267940Y980440D01*
X16268700Y2580640D02*
X16268700Y980440D01*
X15267940Y2580640D02*
X16268700Y2580640D01*
X11668760Y2580640D02*
X12669520Y2580640D01*
X12669520Y2580640D02*
X12669520Y980440D01*
X12669520Y980440D02*
X11668760Y980440D01*
X11668760Y980440D02*
X11668760Y2580640D01*
X16969740Y4681220D02*
X10970260Y4681220D01*
X16769080Y6479540D02*
X16769080Y4681220D01*
X11170920Y6479540D02*
X11170920Y4681220D01*
X10970260Y-1219200D02*
X16969740Y-1219200D01*
X16969740Y-1219200D02*
X16969740Y6479540D01*
X16969740Y6479540D02*
X16570960Y6479540D01*
X16570960Y6479540D02*
X16570960Y4681220D01*
X11369040Y4681220D02*
X11369040Y6479540D01*
X11369040Y6479540D02*
X10970260Y6479540D01*
X10970260Y6479540D02*
X10970260Y-1219200D01*
D10*
X22656800Y8152180D02*
X21955760Y8152180D01*
X21955760Y8152180D02*
X21955760Y8401100D01*
X21955760Y10951160D02*
X21955760Y11151820D01*
X21955760Y11151820D02*
X22656800Y11151820D01*
X4241800Y10819180D02*
X3540760Y10819180D01*
X3540760Y10819180D02*
X3540760Y11068100D01*
X3540760Y13618160D02*
X3540760Y13818820D01*
X3540760Y13818820D02*
X4241800Y13818820D01*
X28813000Y27500000D02*
X26813000Y27500000D01*
X26813000Y29650000D02*
X28813000Y29650000D01*
X34095000Y15605000D02*
X34095000Y13605000D01*
X31945000Y13605000D02*
X31945000Y15605000D01*
X26813000Y26094000D02*
X28813000Y26094000D01*
X28813000Y23944000D02*
X26813000Y23944000D01*
X32190000Y36560000D02*
X32190000Y34560000D01*
X30040000Y34560000D02*
X30040000Y36560000D01*
X11659820Y16560800D02*
X11659820Y15859760D01*
X11659820Y15859760D02*
X11410900Y15859760D01*
X8860840Y15859760D02*
X8660180Y15859760D01*
X8660180Y15859760D02*
X8660180Y16560800D01*
X780000Y21988000D02*
X780000Y39988000D01*
X780000Y39988000D02*
X12780000Y39988000D01*
X12780000Y39988000D02*
X12780000Y21988000D01*
X12780000Y21988000D02*
X780000Y21988000D01*
X30439360Y210820D02*
X38140640Y210820D01*
X30439360Y-789940D02*
X38140640Y-789940D01*
X38140640Y-789940D02*
X38140640Y8409940D01*
X38140640Y8409940D02*
X30439360Y8409940D01*
X30439360Y8409940D02*
X30439360Y-789940D01*
X36179000Y20515000D02*
X34179000Y20515000D01*
X34179000Y22665000D02*
X36179000Y22665000D01*
X28502000Y17956000D02*
G75*
G03X28502000Y17956000I-100000J0D01*
G01*
X28952000Y17706000D02*
X28452000Y17706000D01*
X28952000Y14806000D02*
X28952000Y17706000D01*
X28452000Y14806000D02*
X28952000Y14806000D01*
X28452000Y17706000D02*
X28452000Y14806000D01*
X27773334Y22883857D02*
X27725715Y22836238D01*
X27582858Y22788619D01*
X27487620Y22788619D01*
X27344762Y22836238D01*
X27249524Y22931476D01*
X27201905Y23026714D01*
X27154286Y23217190D01*
X27154286Y23360048D01*
X27201905Y23550524D01*
X27249524Y23645762D01*
X27344762Y23741000D01*
X27487620Y23788619D01*
X27582858Y23788619D01*
X27725715Y23741000D01*
X27773334Y23693381D01*
X28725715Y22788619D02*
X28154286Y22788619D01*
X28440000Y22788619D02*
X28440000Y23788619D01*
X28344762Y23645762D01*
X28249524Y23550524D01*
X28154286Y23502905D01*
X18756334Y23391857D02*
X18708715Y23344238D01*
X18565858Y23296619D01*
X18470620Y23296619D01*
X18327762Y23344238D01*
X18232524Y23439476D01*
X18184905Y23534714D01*
X18137286Y23725190D01*
X18137286Y23868048D01*
X18184905Y24058524D01*
X18232524Y24153762D01*
X18327762Y24249000D01*
X18470620Y24296619D01*
X18565858Y24296619D01*
X18708715Y24249000D01*
X18756334Y24201381D01*
X19089667Y24296619D02*
X19708715Y24296619D01*
X19375381Y23915667D01*
X19518239Y23915667D01*
X19613477Y23868048D01*
X19661096Y23820429D01*
X19708715Y23725190D01*
X19708715Y23487095D01*
X19661096Y23391857D01*
X19613477Y23344238D01*
X19518239Y23296619D01*
X19232524Y23296619D01*
X19137286Y23344238D01*
X19089667Y23391857D01*
X3516334Y19327857D02*
X3468715Y19280238D01*
X3325858Y19232619D01*
X3230620Y19232619D01*
X3087762Y19280238D01*
X2992524Y19375476D01*
X2944905Y19470714D01*
X2897286Y19661190D01*
X2897286Y19804048D01*
X2944905Y19994524D01*
X2992524Y20089762D01*
X3087762Y20185000D01*
X3230620Y20232619D01*
X3325858Y20232619D01*
X3468715Y20185000D01*
X3516334Y20137381D01*
X4421096Y20232619D02*
X3944905Y20232619D01*
X3897286Y19756429D01*
X3944905Y19804048D01*
X4040143Y19851667D01*
X4278239Y19851667D01*
X4373477Y19804048D01*
X4421096Y19756429D01*
X4468715Y19661190D01*
X4468715Y19423095D01*
X4421096Y19327857D01*
X4373477Y19280238D01*
X4278239Y19232619D01*
X4040143Y19232619D01*
X3944905Y19280238D01*
X3897286Y19327857D01*
X34440905Y30027619D02*
X34440905Y31027619D01*
X34679000Y31027619D01*
X34821858Y30980000D01*
X34917096Y30884762D01*
X34964715Y30789524D01*
X35012334Y30599048D01*
X35012334Y30456190D01*
X34964715Y30265714D01*
X34917096Y30170476D01*
X34821858Y30075238D01*
X34679000Y30027619D01*
X34440905Y30027619D01*
X35964715Y30027619D02*
X35393286Y30027619D01*
X35679000Y30027619D02*
X35679000Y31027619D01*
X35583762Y30884762D01*
X35488524Y30789524D01*
X35393286Y30741905D01*
X34440905Y26217619D02*
X34440905Y27217619D01*
X34679000Y27217619D01*
X34821858Y27170000D01*
X34917096Y27074762D01*
X34964715Y26979524D01*
X35012334Y26789048D01*
X35012334Y26646190D01*
X34964715Y26455714D01*
X34917096Y26360476D01*
X34821858Y26265238D01*
X34679000Y26217619D01*
X34440905Y26217619D01*
X35345667Y27217619D02*
X35964715Y27217619D01*
X35631381Y26836667D01*
X35774239Y26836667D01*
X35869477Y26789048D01*
X35917096Y26741429D01*
X35964715Y26646190D01*
X35964715Y26408095D01*
X35917096Y26312857D01*
X35869477Y26265238D01*
X35774239Y26217619D01*
X35488524Y26217619D01*
X35393286Y26265238D01*
X35345667Y26312857D01*
X18200810Y34345619D02*
X18200810Y35345619D01*
X19248429Y34440857D02*
X19200810Y34393238D01*
X19057953Y34345619D01*
X18962715Y34345619D01*
X18819857Y34393238D01*
X18724619Y34488476D01*
X18677000Y34583714D01*
X18629381Y34774190D01*
X18629381Y34917048D01*
X18677000Y35107524D01*
X18724619Y35202762D01*
X18819857Y35298000D01*
X18962715Y35345619D01*
X19057953Y35345619D01*
X19200810Y35298000D01*
X19248429Y35250381D01*
X20200810Y34345619D02*
X19629381Y34345619D01*
X19915095Y34345619D02*
X19915095Y35345619D01*
X19819857Y35202762D01*
X19724619Y35107524D01*
X19629381Y35059905D01*
D13*
X39702619Y31901191D02*
X38686619Y31901191D01*
X39605857Y32965572D02*
X39654238Y32917191D01*
X39702619Y32772048D01*
X39702619Y32675286D01*
X39654238Y32530144D01*
X39557476Y32433382D01*
X39460714Y32385001D01*
X39267190Y32336620D01*
X39122048Y32336620D01*
X38928524Y32385001D01*
X38831762Y32433382D01*
X38735000Y32530144D01*
X38686619Y32675286D01*
X38686619Y32772048D01*
X38735000Y32917191D01*
X38783381Y32965572D01*
X39654238Y33352620D02*
X39702619Y33497763D01*
X39702619Y33739667D01*
X39654238Y33836429D01*
X39605857Y33884810D01*
X39509095Y33933191D01*
X39412333Y33933191D01*
X39315571Y33884810D01*
X39267190Y33836429D01*
X39218810Y33739667D01*
X39170429Y33546144D01*
X39122048Y33449382D01*
X39073667Y33401001D01*
X38976905Y33352620D01*
X38880143Y33352620D01*
X38783381Y33401001D01*
X38735000Y33449382D01*
X38686619Y33546144D01*
X38686619Y33788048D01*
X38735000Y33933191D01*
X39702619Y34368620D02*
X38686619Y34368620D01*
X38686619Y34755667D01*
X38735000Y34852429D01*
X38783381Y34900810D01*
X38880143Y34949191D01*
X39025286Y34949191D01*
X39122048Y34900810D01*
X39170429Y34852429D01*
X39218810Y34755667D01*
X39218810Y34368620D01*
D14*
X2648857Y8713651D02*
X2648857Y7479937D01*
X2721429Y7334794D01*
X2794000Y7262223D01*
X2939143Y7189651D01*
X3229429Y7189651D01*
X3374571Y7262223D01*
X3447143Y7334794D01*
X3519714Y7479937D01*
X3519714Y8713651D01*
X4172857Y7625080D02*
X4898571Y7625080D01*
X4027714Y7189651D02*
X4535714Y8713651D01*
X5043714Y7189651D01*
X6422571Y7189651D02*
X5914571Y7915366D01*
X5551714Y7189651D02*
X5551714Y8713651D01*
X6132286Y8713651D01*
X6277428Y8641080D01*
X6350000Y8568509D01*
X6422571Y8423366D01*
X6422571Y8205651D01*
X6350000Y8060509D01*
X6277428Y7987937D01*
X6132286Y7915366D01*
X5551714Y7915366D01*
X6858000Y8713651D02*
X7728857Y8713651D01*
X7293428Y7189651D02*
X7293428Y8713651D01*
X2648857Y-1885769D02*
X2648857Y-3119483D01*
X2721429Y-3264626D01*
X2794000Y-3337197D01*
X2939143Y-3409769D01*
X3229429Y-3409769D01*
X3374571Y-3337197D01*
X3447143Y-3264626D01*
X3519714Y-3119483D01*
X3519714Y-1885769D01*
X4172857Y-2974340D02*
X4898571Y-2974340D01*
X4027714Y-3409769D02*
X4535714Y-1885769D01*
X5043714Y-3409769D01*
X6422571Y-3409769D02*
X5914571Y-2684054D01*
X5551714Y-3409769D02*
X5551714Y-1885769D01*
X6132286Y-1885769D01*
X6277428Y-1958340D01*
X6350000Y-2030911D01*
X6422571Y-2176054D01*
X6422571Y-2393769D01*
X6350000Y-2538911D01*
X6277428Y-2611483D01*
X6132286Y-2684054D01*
X5551714Y-2684054D01*
X6858000Y-1885769D02*
X7728857Y-1885769D01*
X7293428Y-3409769D02*
X7293428Y-1885769D01*
X19884572Y7189651D02*
X19884572Y8713651D01*
X20392572Y7625080D01*
X20900572Y8713651D01*
X20900572Y7189651D01*
X21916572Y8713651D02*
X22206858Y8713651D01*
X22352000Y8641080D01*
X22497143Y8495937D01*
X22569715Y8205651D01*
X22569715Y7697651D01*
X22497143Y7407366D01*
X22352000Y7262223D01*
X22206858Y7189651D01*
X21916572Y7189651D01*
X21771429Y7262223D01*
X21626286Y7407366D01*
X21553715Y7697651D01*
X21553715Y8205651D01*
X21626286Y8495937D01*
X21771429Y8641080D01*
X21916572Y8713651D01*
X23222857Y7189651D02*
X23222857Y8713651D01*
X23876000Y7262223D02*
X24093714Y7189651D01*
X24456571Y7189651D01*
X24601714Y7262223D01*
X24674285Y7334794D01*
X24746857Y7479937D01*
X24746857Y7625080D01*
X24674285Y7770223D01*
X24601714Y7842794D01*
X24456571Y7915366D01*
X24166285Y7987937D01*
X24021143Y8060509D01*
X23948571Y8133080D01*
X23876000Y8278223D01*
X23876000Y8423366D01*
X23948571Y8568509D01*
X24021143Y8641080D01*
X24166285Y8713651D01*
X24529143Y8713651D01*
X24746857Y8641080D01*
X25182286Y8713651D02*
X26053143Y8713651D01*
X25617714Y7189651D02*
X25617714Y8713651D01*
X19884572Y-3409769D02*
X19884572Y-1885769D01*
X20392572Y-2974340D01*
X20900572Y-1885769D01*
X20900572Y-3409769D01*
X21916572Y-1885769D02*
X22206858Y-1885769D01*
X22352000Y-1958340D01*
X22497143Y-2103483D01*
X22569715Y-2393769D01*
X22569715Y-2901769D01*
X22497143Y-3192054D01*
X22352000Y-3337197D01*
X22206858Y-3409769D01*
X21916572Y-3409769D01*
X21771429Y-3337197D01*
X21626286Y-3192054D01*
X21553715Y-2901769D01*
X21553715Y-2393769D01*
X21626286Y-2103483D01*
X21771429Y-1958340D01*
X21916572Y-1885769D01*
X23222857Y-3409769D02*
X23222857Y-1885769D01*
X23876000Y-3337197D02*
X24093714Y-3409769D01*
X24456571Y-3409769D01*
X24601714Y-3337197D01*
X24674285Y-3264626D01*
X24746857Y-3119483D01*
X24746857Y-2974340D01*
X24674285Y-2829197D01*
X24601714Y-2756626D01*
X24456571Y-2684054D01*
X24166285Y-2611483D01*
X24021143Y-2538911D01*
X23948571Y-2466340D01*
X23876000Y-2321197D01*
X23876000Y-2176054D01*
X23948571Y-2030911D01*
X24021143Y-1958340D01*
X24166285Y-1885769D01*
X24529143Y-1885769D01*
X24746857Y-1958340D01*
X25182286Y-1885769D02*
X26053143Y-1885769D01*
X25617714Y-3409769D02*
X25617714Y-1885769D01*
X12736286Y7987937D02*
X12228286Y7987937D01*
X12228286Y7189651D02*
X12228286Y8713651D01*
X12954000Y8713651D01*
X13462001Y7625080D02*
X14187715Y7625080D01*
X13316858Y7189651D02*
X13824858Y8713651D01*
X14332858Y7189651D01*
X14840858Y7189651D02*
X14840858Y8713651D01*
X15711715Y7189651D01*
X15711715Y8713651D01*
X12736286Y-2611483D02*
X12228286Y-2611483D01*
X12228286Y-3409769D02*
X12228286Y-1885769D01*
X12954000Y-1885769D01*
X13462001Y-2974340D02*
X14187715Y-2974340D01*
X13316858Y-3409769D02*
X13824858Y-1885769D01*
X14332858Y-3409769D01*
X14840858Y-3409769D02*
X14840858Y-1885769D01*
X15711715Y-3409769D01*
X15711715Y-1885769D01*
D10*
X24161762Y11771381D02*
X24066524Y11819000D01*
X23971286Y11914238D01*
X23828429Y12057095D01*
X23733190Y12104714D01*
X23637952Y12104714D01*
X23685571Y11866619D02*
X23590333Y11914238D01*
X23495095Y12009476D01*
X23447476Y12199952D01*
X23447476Y12533286D01*
X23495095Y12723762D01*
X23590333Y12819000D01*
X23685571Y12866619D01*
X23876048Y12866619D01*
X23971286Y12819000D01*
X24066524Y12723762D01*
X24114143Y12533286D01*
X24114143Y12199952D01*
X24066524Y12009476D01*
X23971286Y11914238D01*
X23876048Y11866619D01*
X23685571Y11866619D01*
X25066524Y11866619D02*
X24495095Y11866619D01*
X24780809Y11866619D02*
X24780809Y12866619D01*
X24685571Y12723762D01*
X24590333Y12628524D01*
X24495095Y12580905D01*
X1936762Y13422381D02*
X1841524Y13470000D01*
X1746286Y13565238D01*
X1603429Y13708095D01*
X1508190Y13755714D01*
X1412952Y13755714D01*
X1460571Y13517619D02*
X1365333Y13565238D01*
X1270095Y13660476D01*
X1222476Y13850952D01*
X1222476Y14184286D01*
X1270095Y14374762D01*
X1365333Y14470000D01*
X1460571Y14517619D01*
X1651048Y14517619D01*
X1746286Y14470000D01*
X1841524Y14374762D01*
X1889143Y14184286D01*
X1889143Y13850952D01*
X1841524Y13660476D01*
X1746286Y13565238D01*
X1651048Y13517619D01*
X1460571Y13517619D01*
X2270095Y14422381D02*
X2317714Y14470000D01*
X2412952Y14517619D01*
X2651048Y14517619D01*
X2746286Y14470000D01*
X2793905Y14422381D01*
X2841524Y14327143D01*
X2841524Y14231905D01*
X2793905Y14089048D01*
X2222476Y13517619D01*
X2841524Y13517619D01*
X27646334Y30027619D02*
X27313000Y30503810D01*
X27074905Y30027619D02*
X27074905Y31027619D01*
X27455858Y31027619D01*
X27551096Y30980000D01*
X27598715Y30932381D01*
X27646334Y30837143D01*
X27646334Y30694286D01*
X27598715Y30599048D01*
X27551096Y30551429D01*
X27455858Y30503810D01*
X27074905Y30503810D01*
X28598715Y30027619D02*
X28027286Y30027619D01*
X28313000Y30027619D02*
X28313000Y31027619D01*
X28217762Y30884762D01*
X28122524Y30789524D01*
X28027286Y30741905D01*
X31567381Y14565334D02*
X31091190Y14232000D01*
X31567381Y13993905D02*
X30567381Y13993905D01*
X30567381Y14374858D01*
X30615000Y14470096D01*
X30662619Y14517715D01*
X30757857Y14565334D01*
X30900714Y14565334D01*
X30995952Y14517715D01*
X31043571Y14470096D01*
X31091190Y14374858D01*
X31091190Y13993905D01*
X30662619Y14946286D02*
X30615000Y14993905D01*
X30567381Y15089143D01*
X30567381Y15327239D01*
X30615000Y15422477D01*
X30662619Y15470096D01*
X30757857Y15517715D01*
X30853095Y15517715D01*
X30995952Y15470096D01*
X31567381Y14898667D01*
X31567381Y15517715D01*
X27646334Y26344619D02*
X27313000Y26820810D01*
X27074905Y26344619D02*
X27074905Y27344619D01*
X27455858Y27344619D01*
X27551096Y27297000D01*
X27598715Y27249381D01*
X27646334Y27154143D01*
X27646334Y27011286D01*
X27598715Y26916048D01*
X27551096Y26868429D01*
X27455858Y26820810D01*
X27074905Y26820810D01*
X28503477Y27344619D02*
X28313000Y27344619D01*
X28217762Y27297000D01*
X28170143Y27249381D01*
X28074905Y27106524D01*
X28027286Y26916048D01*
X28027286Y26535095D01*
X28074905Y26439857D01*
X28122524Y26392238D01*
X28217762Y26344619D01*
X28408239Y26344619D01*
X28503477Y26392238D01*
X28551096Y26439857D01*
X28598715Y26535095D01*
X28598715Y26773190D01*
X28551096Y26868429D01*
X28503477Y26916048D01*
X28408239Y26963667D01*
X28217762Y26963667D01*
X28122524Y26916048D01*
X28074905Y26868429D01*
X28027286Y26773190D01*
X29267381Y35393334D02*
X28791190Y35060000D01*
X29267381Y34821905D02*
X28267381Y34821905D01*
X28267381Y35202858D01*
X28315000Y35298096D01*
X28362619Y35345715D01*
X28457857Y35393334D01*
X28600714Y35393334D01*
X28695952Y35345715D01*
X28743571Y35298096D01*
X28791190Y35202858D01*
X28791190Y34821905D01*
X28267381Y35726667D02*
X28267381Y36393334D01*
X29267381Y35964762D01*
X8763095Y20486619D02*
X8763095Y19677095D01*
X8810714Y19581857D01*
X8858333Y19534238D01*
X8953571Y19486619D01*
X9144048Y19486619D01*
X9239286Y19534238D01*
X9286905Y19581857D01*
X9334524Y19677095D01*
X9334524Y20486619D01*
X10334524Y19486619D02*
X9763095Y19486619D01*
X10048809Y19486619D02*
X10048809Y20486619D01*
X9953571Y20343762D01*
X9858333Y20248524D01*
X9763095Y20200905D01*
D13*
X12052905Y21257381D02*
X12052905Y20434905D01*
X12101286Y20338143D01*
X12149667Y20289762D01*
X12246429Y20241381D01*
X12439952Y20241381D01*
X12536714Y20289762D01*
X12585095Y20338143D01*
X12633476Y20434905D01*
X12633476Y21257381D01*
X13020524Y21257381D02*
X13649476Y21257381D01*
X13310810Y20870333D01*
X13455952Y20870333D01*
X13552714Y20821952D01*
X13601095Y20773571D01*
X13649476Y20676810D01*
X13649476Y20434905D01*
X13601095Y20338143D01*
X13552714Y20289762D01*
X13455952Y20241381D01*
X13165667Y20241381D01*
X13068905Y20289762D01*
X13020524Y20338143D01*
D10*
X32948715Y9548857D02*
X32901096Y9501238D01*
X32758239Y9453619D01*
X32663001Y9453619D01*
X32520143Y9501238D01*
X32424905Y9596476D01*
X32377286Y9691714D01*
X32329667Y9882190D01*
X32329667Y10025048D01*
X32377286Y10215524D01*
X32424905Y10310762D01*
X32520143Y10406000D01*
X32663001Y10453619D01*
X32758239Y10453619D01*
X32901096Y10406000D01*
X32948715Y10358381D01*
X33567762Y10453619D02*
X33758239Y10453619D01*
X33853477Y10406000D01*
X33948715Y10310762D01*
X33996334Y10120286D01*
X33996334Y9786952D01*
X33948715Y9596476D01*
X33853477Y9501238D01*
X33758239Y9453619D01*
X33567762Y9453619D01*
X33472524Y9501238D01*
X33377286Y9596476D01*
X33329667Y9786952D01*
X33329667Y10120286D01*
X33377286Y10310762D01*
X33472524Y10406000D01*
X33567762Y10453619D01*
X34424905Y9453619D02*
X34424905Y10453619D01*
X34996334Y9453619D01*
X34996334Y10453619D01*
X35996334Y9453619D02*
X35424905Y9453619D01*
X35710619Y9453619D02*
X35710619Y10453619D01*
X35615381Y10310762D01*
X35520143Y10215524D01*
X35424905Y10167905D01*
X34726571Y14882905D02*
X34774190Y15025762D01*
X34821810Y15073381D01*
X34917048Y15121000D01*
X35059905Y15121000D01*
X35155143Y15073381D01*
X35202762Y15025762D01*
X35250381Y14930524D01*
X35250381Y14549571D01*
X34250381Y14549571D01*
X34250381Y14882905D01*
X34298000Y14978143D01*
X34345619Y15025762D01*
X34440857Y15073381D01*
X34536095Y15073381D01*
X34631333Y15025762D01*
X34678952Y14978143D01*
X34726571Y14882905D01*
X34726571Y14549571D01*
X34964667Y15501952D02*
X34964667Y15978143D01*
X35250381Y15406714D02*
X34250381Y15740047D01*
X35250381Y16073381D01*
X34250381Y16263857D02*
X34250381Y16835286D01*
X35250381Y16549571D02*
X34250381Y16549571D01*
X35012334Y22883857D02*
X34964715Y22836238D01*
X34821858Y22788619D01*
X34726620Y22788619D01*
X34583762Y22836238D01*
X34488524Y22931476D01*
X34440905Y23026714D01*
X34393286Y23217190D01*
X34393286Y23360048D01*
X34440905Y23550524D01*
X34488524Y23645762D01*
X34583762Y23741000D01*
X34726620Y23788619D01*
X34821858Y23788619D01*
X34964715Y23741000D01*
X35012334Y23693381D01*
X35393286Y23693381D02*
X35440905Y23741000D01*
X35536143Y23788619D01*
X35774239Y23788619D01*
X35869477Y23741000D01*
X35917096Y23693381D01*
X35964715Y23598143D01*
X35964715Y23502905D01*
X35917096Y23360048D01*
X35345667Y22788619D01*
X35964715Y22788619D01*
X27890095Y19353619D02*
X27890095Y18544095D01*
X27937714Y18448857D01*
X27985333Y18401238D01*
X28080571Y18353619D01*
X28271048Y18353619D01*
X28366286Y18401238D01*
X28413905Y18448857D01*
X28461524Y18544095D01*
X28461524Y19353619D01*
X28890095Y19258381D02*
X28937714Y19306000D01*
X29032952Y19353619D01*
X29271048Y19353619D01*
X29366286Y19306000D01*
X29413905Y19258381D01*
X29461524Y19163143D01*
X29461524Y19067905D01*
X29413905Y18925048D01*
X28842476Y18353619D01*
X29461524Y18353619D01*
X15560810Y34220619D02*
X15560810Y35220619D01*
X16608429Y34315857D02*
X16560810Y34268238D01*
X16417953Y34220619D01*
X16322715Y34220619D01*
X16179857Y34268238D01*
X16084619Y34363476D01*
X16037000Y34458714D01*
X15989381Y34649190D01*
X15989381Y34792048D01*
X16037000Y34982524D01*
X16084619Y35077762D01*
X16179857Y35173000D01*
X16322715Y35220619D01*
X16417953Y35220619D01*
X16560810Y35173000D01*
X16608429Y35125381D01*
X16989381Y35125381D02*
X17037000Y35173000D01*
X17132238Y35220619D01*
X17370334Y35220619D01*
X17465572Y35173000D01*
X17513191Y35125381D01*
X17560810Y35030143D01*
X17560810Y34934905D01*
X17513191Y34792048D01*
X16941762Y34220619D01*
X17560810Y34220619D01*
M02*
