G04 #@! TF.FileFunction,Soldermask,Top*
%FSLAX46Y46*%
G04 Gerber Fmt 4.6, Leading zero omitted, Abs format (unit mm)*
G04 Created by KiCad (PCBNEW 4.0.2+e4-6225~38~ubuntu14.04.1-stable) date Sat Jul  9 19:21:58 2016*
%MOMM*%
G01*
G04 APERTURE LIST*
%ADD10C,0.150000*%
%ADD11R,1.598880X2.099260*%
%ADD12O,1.598880X2.099260*%
%ADD13R,2.200860X1.200100*%
%ADD14C,1.200000*%
%ADD15R,0.900380X2.701240*%
%ADD16R,2.398980X2.899360*%
%ADD17C,1.299160*%
%ADD18R,1.924000X1.924000*%
%ADD19C,1.924000*%
%ADD20C,2.899360*%
%ADD21R,2.599640X1.924000*%
%ADD22O,2.599640X1.924000*%
%ADD23R,2.000000X0.950000*%
%ADD24R,0.950000X2.000000*%
%ADD25R,3.999180X2.000200*%
%ADD26R,1.700000X1.900000*%
%ADD27R,1.900000X1.700000*%
%ADD28C,1.901140*%
G04 APERTURE END LIST*
D10*
D11*
X17701260Y3175000D03*
D12*
X19700240Y3175000D03*
X21701760Y3175000D03*
X23700740Y3175000D03*
D11*
X11064240Y3175000D03*
D12*
X13065760Y3175000D03*
D13*
X6372860Y7554000D03*
X6372860Y5654000D03*
X9375140Y6604000D03*
X13357860Y7554000D03*
X13357860Y5654000D03*
X16360140Y6604000D03*
X8912860Y11999000D03*
X8912860Y10099000D03*
X11915140Y11049000D03*
D14*
X1872000Y21380000D03*
X3145500Y21390400D03*
X4415500Y21390400D03*
X5685500Y21390400D03*
X6955500Y21390400D03*
X8225500Y21390400D03*
X9495500Y21390400D03*
X10765500Y21390400D03*
D15*
X32689800Y7005320D03*
X33489900Y7005320D03*
X34290000Y7005320D03*
X35090100Y7005320D03*
X35890200Y7005320D03*
D16*
X29839920Y6906260D03*
X29839920Y1407160D03*
X38740080Y6906260D03*
X38740080Y1407160D03*
D17*
X32090360Y4406900D03*
X36489640Y4406900D03*
D18*
X35560000Y38100000D03*
D19*
X38100000Y38100000D03*
X35560000Y35560000D03*
X38100000Y35560000D03*
X35560000Y33020000D03*
X38100000Y33020000D03*
D20*
X38608000Y14605000D03*
X38608000Y10795000D03*
D21*
X35052000Y11430000D03*
D22*
X35052000Y13970000D03*
D19*
X2900000Y9192000D03*
X2900000Y12192000D03*
X2900000Y15192000D03*
X3400000Y5942000D03*
X3400000Y18442000D03*
D11*
X2319020Y3175000D03*
D12*
X4318000Y3175000D03*
X6316980Y3175000D03*
D23*
X24443000Y18409000D03*
X24443000Y19209000D03*
X24443000Y20009000D03*
X24443000Y20809000D03*
X24443000Y21609000D03*
X24443000Y22409000D03*
X24443000Y23209000D03*
X24443000Y24009000D03*
D24*
X22993000Y25459000D03*
X22193000Y25459000D03*
X21393000Y25459000D03*
X20593000Y25459000D03*
X19793000Y25459000D03*
X18993000Y25459000D03*
X18193000Y25459000D03*
X17393000Y25459000D03*
D23*
X15943000Y24009000D03*
X15943000Y23209000D03*
X15943000Y22409000D03*
X15943000Y21609000D03*
X15943000Y20809000D03*
X15943000Y20009000D03*
X15943000Y19209000D03*
X15943000Y18409000D03*
D24*
X17393000Y16959000D03*
X18193000Y16959000D03*
X18993000Y16959000D03*
X19793000Y16959000D03*
X20593000Y16959000D03*
X21393000Y16959000D03*
X22193000Y16959000D03*
X22993000Y16959000D03*
D25*
X12275820Y16637000D03*
X6774180Y16637000D03*
D26*
X38354000Y20240000D03*
X38354000Y22940000D03*
D27*
X22479000Y7239000D03*
X19779000Y7239000D03*
D26*
X36068000Y22940000D03*
X36068000Y20240000D03*
X38354000Y28274000D03*
X38354000Y25574000D03*
D27*
X19859000Y9969500D03*
X22559000Y9969500D03*
D26*
X36068000Y25574000D03*
X36068000Y28274000D03*
D19*
X30480000Y29464000D03*
X27940000Y29464000D03*
X25400000Y29464000D03*
X22860000Y29464000D03*
X20320000Y29464000D03*
X17780000Y29464000D03*
D28*
X30480000Y16355060D03*
X30480000Y21236940D03*
D21*
X25654000Y13589000D03*
D22*
X25654000Y11049000D03*
M02*
