<?xml version="1.0" standalone="no"?>
 <!DOCTYPE svg PUBLIC "-//W3C//DTD SVG 1.1//EN" 
 "http://www.w3.org/Graphics/SVG/1.1/DTD/svg11.dtd"> 
<svg xmlns="http://www.w3.org/2000/svg" version="1.1" 
    width="29.7002cm" height="21.0007cm" viewBox="0 0 116930 82680 ">
<title>SVG Picture created as openhum6-mega-brd.svg date 2016/08/13 21:11:30 </title>
  <desc>Picture generated by PCBNEW </desc>
<g style="fill:#000000; fill-opacity:1;stroke:#000000; stroke-opacity:1;
stroke-linecap:round; stroke-linejoin:round; "
 transform="translate(0 0) scale(1 1)">
</g>
<g style="fill:#000000; fill-opacity:0.0; 
stroke:#000000; stroke-width:-0.000393701; stroke-opacity:1; 
stroke-linecap:round; stroke-linejoin:round;">
</g>
<g style="fill:#000000; fill-opacity:0.0; 
stroke:#000000; stroke-width:39.3701; stroke-opacity:1; 
stroke-linecap:round; stroke-linejoin:round;">
</g>
<g style="fill:#000000; fill-opacity:0.0; 
stroke:#000000; stroke-width:59.0551; stroke-opacity:1; 
stroke-linecap:round; stroke-linejoin:round;">
<rect x="69685.9" y="65357.2" width="42519.7" height="12598.4" rx="0" />
</g>
<g style="fill:#000000; fill-opacity:0.0; 
stroke:#000000; stroke-width:39.3701; stroke-opacity:1; 
stroke-linecap:round; stroke-linejoin:round;">
</g>
<g style="fill:#000000; fill-opacity:0.0; 
stroke:#000000; stroke-width:59.0551; stroke-opacity:1; 
stroke-linecap:round; stroke-linejoin:round;">
<rect x="3937.01" y="3937.01" width="109056" height="74806" rx="0" />
</g>
<g style="fill:#000000; fill-opacity:0.0; 
stroke:#000000; stroke-width:39.3701; stroke-opacity:1; 
stroke-linecap:round; stroke-linejoin:round;">
</g>
<g style="fill:#000000; fill-opacity:0.0; 
stroke:#000000; stroke-width:59.0551; stroke-opacity:1; 
stroke-linecap:round; stroke-linejoin:round;">
<rect x="4724.41" y="4724.41" width="107481" height="73231.2" rx="0" />
</g>
<g style="fill:#000000; fill-opacity:0.0; 
stroke:#000000; stroke-width:39.3701; stroke-opacity:1; 
stroke-linecap:round; stroke-linejoin:round;">
</g>
<g style="fill:#000000; fill-opacity:0.0; 
stroke:#000000; stroke-width:59.0551; stroke-opacity:1; 
stroke-linecap:round; stroke-linejoin:round;">
<path d="M23622 4724
L23622 3937
" />
</g>
<g style="fill:#000000; fill-opacity:0.0; 
stroke:#000000; stroke-width:39.3701; stroke-opacity:1; 
stroke-linecap:round; stroke-linejoin:round;">
</g>
<g style="fill:#000000; fill-opacity:0.0; 
stroke:#000000; stroke-width:59.0551; stroke-opacity:1; 
stroke-linecap:round; stroke-linejoin:round;">
<path d="M43307 4724
L43307 3937
" />
</g>
<g style="fill:#000000; fill-opacity:0.0; 
stroke:#000000; stroke-width:39.3701; stroke-opacity:1; 
stroke-linecap:round; stroke-linejoin:round;">
</g>
<g style="fill:#000000; fill-opacity:0.0; 
stroke:#000000; stroke-width:59.0551; stroke-opacity:1; 
stroke-linecap:round; stroke-linejoin:round;">
<path d="M62992 4724
L62992 3937
" />
</g>
<g style="fill:#000000; fill-opacity:0.0; 
stroke:#000000; stroke-width:39.3701; stroke-opacity:1; 
stroke-linecap:round; stroke-linejoin:round;">
</g>
<g style="fill:#000000; fill-opacity:0.0; 
stroke:#000000; stroke-width:59.0551; stroke-opacity:1; 
stroke-linecap:round; stroke-linejoin:round;">
<path d="M82677 4724
L82677 3937
" />
</g>
<g style="fill:#000000; fill-opacity:0.0; 
stroke:#000000; stroke-width:39.3701; stroke-opacity:1; 
stroke-linecap:round; stroke-linejoin:round;">
</g>
<g style="fill:#000000; fill-opacity:0.0; 
stroke:#000000; stroke-width:59.0551; stroke-opacity:1; 
stroke-linecap:round; stroke-linejoin:round;">
<path d="M102362 4724
L102362 3937
" />
</g>
<g style="fill:#000000; fill-opacity:0.0; 
stroke:#000000; stroke-width:39.3701; stroke-opacity:1; 
stroke-linecap:round; stroke-linejoin:round;">
</g>
<g style="fill:#000000; fill-opacity:0.0; 
stroke:#000000; stroke-width:59.0551; stroke-opacity:1; 
stroke-linecap:round; stroke-linejoin:round;">
<path d="M14169 4562
L13877 4562
" />
<path d="M14023 4562
L14023 4050
L13974 4123
L13925 4172
L13877 4196
" />
</g>
<g style="fill:#000000; fill-opacity:0.0; 
stroke:#000000; stroke-width:39.3701; stroke-opacity:1; 
stroke-linecap:round; stroke-linejoin:round;">
</g>
<g style="fill:#000000; fill-opacity:0.0; 
stroke:#000000; stroke-width:59.0551; stroke-opacity:1; 
stroke-linecap:round; stroke-linejoin:round;">
<path d="M33562 4099
L33586 4074
L33635 4050
L33757 4050
L33805 4074
L33830 4099
L33854 4147
L33854 4196
L33830 4269
L33537 4562
L33854 4562
" />
</g>
<g style="fill:#000000; fill-opacity:0.0; 
stroke:#000000; stroke-width:39.3701; stroke-opacity:1; 
stroke-linecap:round; stroke-linejoin:round;">
</g>
<g style="fill:#000000; fill-opacity:0.0; 
stroke:#000000; stroke-width:59.0551; stroke-opacity:1; 
stroke-linecap:round; stroke-linejoin:round;">
<path d="M53222 4050
L53539 4050
L53368 4245
L53442 4245
L53490 4269
L53515 4294
L53539 4342
L53539 4464
L53515 4513
L53490 4537
L53442 4562
L53295 4562
L53247 4537
L53222 4513
" />
</g>
<g style="fill:#000000; fill-opacity:0.0; 
stroke:#000000; stroke-width:39.3701; stroke-opacity:1; 
stroke-linecap:round; stroke-linejoin:round;">
</g>
<g style="fill:#000000; fill-opacity:0.0; 
stroke:#000000; stroke-width:59.0551; stroke-opacity:1; 
stroke-linecap:round; stroke-linejoin:round;">
<path d="M73175 4221
L73175 4562
" />
<path d="M73053 4026
L72932 4391
L73248 4391
" />
</g>
<g style="fill:#000000; fill-opacity:0.0; 
stroke:#000000; stroke-width:39.3701; stroke-opacity:1; 
stroke-linecap:round; stroke-linejoin:round;">
</g>
<g style="fill:#000000; fill-opacity:0.0; 
stroke:#000000; stroke-width:59.0551; stroke-opacity:1; 
stroke-linecap:round; stroke-linejoin:round;">
<path d="M92885 4050
L92641 4050
L92617 4294
L92641 4269
L92690 4245
L92812 4245
L92860 4269
L92885 4294
L92909 4342
L92909 4464
L92885 4513
L92860 4537
L92812 4562
L92690 4562
L92641 4537
L92617 4513
" />
</g>
<g style="fill:#000000; fill-opacity:0.0; 
stroke:#000000; stroke-width:39.3701; stroke-opacity:1; 
stroke-linecap:round; stroke-linejoin:round;">
</g>
<g style="fill:#000000; fill-opacity:0.0; 
stroke:#000000; stroke-width:59.0551; stroke-opacity:1; 
stroke-linecap:round; stroke-linejoin:round;">
<path d="M112545 4050
L112448 4050
L112399 4074
L112375 4099
L112326 4172
L112302 4269
L112302 4464
L112326 4513
L112350 4537
L112399 4562
L112497 4562
L112545 4537
L112570 4513
L112594 4464
L112594 4342
L112570 4294
L112545 4269
L112497 4245
L112399 4245
L112350 4269
L112326 4294
L112302 4342
" />
</g>
<g style="fill:#000000; fill-opacity:0.0; 
stroke:#000000; stroke-width:39.3701; stroke-opacity:1; 
stroke-linecap:round; stroke-linejoin:round;">
</g>
<g style="fill:#000000; fill-opacity:0.0; 
stroke:#000000; stroke-width:59.0551; stroke-opacity:1; 
stroke-linecap:round; stroke-linejoin:round;">
<path d="M23622 77955
L23622 78742
" />
</g>
<g style="fill:#000000; fill-opacity:0.0; 
stroke:#000000; stroke-width:39.3701; stroke-opacity:1; 
stroke-linecap:round; stroke-linejoin:round;">
</g>
<g style="fill:#000000; fill-opacity:0.0; 
stroke:#000000; stroke-width:59.0551; stroke-opacity:1; 
stroke-linecap:round; stroke-linejoin:round;">
<path d="M43307 77955
L43307 78742
" />
</g>
<g style="fill:#000000; fill-opacity:0.0; 
stroke:#000000; stroke-width:39.3701; stroke-opacity:1; 
stroke-linecap:round; stroke-linejoin:round;">
</g>
<g style="fill:#000000; fill-opacity:0.0; 
stroke:#000000; stroke-width:59.0551; stroke-opacity:1; 
stroke-linecap:round; stroke-linejoin:round;">
<path d="M62992 77955
L62992 78742
" />
</g>
<g style="fill:#000000; fill-opacity:0.0; 
stroke:#000000; stroke-width:39.3701; stroke-opacity:1; 
stroke-linecap:round; stroke-linejoin:round;">
</g>
<g style="fill:#000000; fill-opacity:0.0; 
stroke:#000000; stroke-width:59.0551; stroke-opacity:1; 
stroke-linecap:round; stroke-linejoin:round;">
<path d="M82677 77955
L82677 78742
" />
</g>
<g style="fill:#000000; fill-opacity:0.0; 
stroke:#000000; stroke-width:39.3701; stroke-opacity:1; 
stroke-linecap:round; stroke-linejoin:round;">
</g>
<g style="fill:#000000; fill-opacity:0.0; 
stroke:#000000; stroke-width:59.0551; stroke-opacity:1; 
stroke-linecap:round; stroke-linejoin:round;">
<path d="M102362 77955
L102362 78742
" />
</g>
<g style="fill:#000000; fill-opacity:0.0; 
stroke:#000000; stroke-width:39.3701; stroke-opacity:1; 
stroke-linecap:round; stroke-linejoin:round;">
</g>
<g style="fill:#000000; fill-opacity:0.0; 
stroke:#000000; stroke-width:59.0551; stroke-opacity:1; 
stroke-linecap:round; stroke-linejoin:round;">
<path d="M14169 78580
L13877 78580
" />
<path d="M14023 78580
L14023 78069
L13974 78142
L13925 78190
L13877 78215
" />
</g>
<g style="fill:#000000; fill-opacity:0.0; 
stroke:#000000; stroke-width:39.3701; stroke-opacity:1; 
stroke-linecap:round; stroke-linejoin:round;">
</g>
<g style="fill:#000000; fill-opacity:0.0; 
stroke:#000000; stroke-width:59.0551; stroke-opacity:1; 
stroke-linecap:round; stroke-linejoin:round;">
<path d="M33562 78117
L33586 78093
L33635 78069
L33757 78069
L33805 78093
L33830 78117
L33854 78166
L33854 78215
L33830 78288
L33537 78580
L33854 78580
" />
</g>
<g style="fill:#000000; fill-opacity:0.0; 
stroke:#000000; stroke-width:39.3701; stroke-opacity:1; 
stroke-linecap:round; stroke-linejoin:round;">
</g>
<g style="fill:#000000; fill-opacity:0.0; 
stroke:#000000; stroke-width:59.0551; stroke-opacity:1; 
stroke-linecap:round; stroke-linejoin:round;">
<path d="M53222 78069
L53539 78069
L53368 78263
L53442 78263
L53490 78288
L53515 78312
L53539 78361
L53539 78483
L53515 78532
L53490 78556
L53442 78580
L53295 78580
L53247 78556
L53222 78532
" />
</g>
<g style="fill:#000000; fill-opacity:0.0; 
stroke:#000000; stroke-width:39.3701; stroke-opacity:1; 
stroke-linecap:round; stroke-linejoin:round;">
</g>
<g style="fill:#000000; fill-opacity:0.0; 
stroke:#000000; stroke-width:59.0551; stroke-opacity:1; 
stroke-linecap:round; stroke-linejoin:round;">
<path d="M73175 78239
L73175 78580
" />
<path d="M73053 78044
L72932 78410
L73248 78410
" />
</g>
<g style="fill:#000000; fill-opacity:0.0; 
stroke:#000000; stroke-width:39.3701; stroke-opacity:1; 
stroke-linecap:round; stroke-linejoin:round;">
</g>
<g style="fill:#000000; fill-opacity:0.0; 
stroke:#000000; stroke-width:59.0551; stroke-opacity:1; 
stroke-linecap:round; stroke-linejoin:round;">
<path d="M92885 78069
L92641 78069
L92617 78312
L92641 78288
L92690 78263
L92812 78263
L92860 78288
L92885 78312
L92909 78361
L92909 78483
L92885 78532
L92860 78556
L92812 78580
L92690 78580
L92641 78556
L92617 78532
" />
</g>
<g style="fill:#000000; fill-opacity:0.0; 
stroke:#000000; stroke-width:39.3701; stroke-opacity:1; 
stroke-linecap:round; stroke-linejoin:round;">
</g>
<g style="fill:#000000; fill-opacity:0.0; 
stroke:#000000; stroke-width:59.0551; stroke-opacity:1; 
stroke-linecap:round; stroke-linejoin:round;">
<path d="M112545 78069
L112448 78069
L112399 78093
L112375 78117
L112326 78190
L112302 78288
L112302 78483
L112326 78532
L112350 78556
L112399 78580
L112497 78580
L112545 78556
L112570 78532
L112594 78483
L112594 78361
L112570 78312
L112545 78288
L112497 78263
L112399 78263
L112350 78288
L112326 78312
L112302 78361
" />
</g>
<g style="fill:#000000; fill-opacity:0.0; 
stroke:#000000; stroke-width:39.3701; stroke-opacity:1; 
stroke-linecap:round; stroke-linejoin:round;">
</g>
<g style="fill:#000000; fill-opacity:0.0; 
stroke:#000000; stroke-width:59.0551; stroke-opacity:1; 
stroke-linecap:round; stroke-linejoin:round;">
<path d="M3937 23622
L4724 23622
" />
</g>
<g style="fill:#000000; fill-opacity:0.0; 
stroke:#000000; stroke-width:39.3701; stroke-opacity:1; 
stroke-linecap:round; stroke-linejoin:round;">
</g>
<g style="fill:#000000; fill-opacity:0.0; 
stroke:#000000; stroke-width:59.0551; stroke-opacity:1; 
stroke-linecap:round; stroke-linejoin:round;">
<path d="M3937 43307
L4724 43307
" />
</g>
<g style="fill:#000000; fill-opacity:0.0; 
stroke:#000000; stroke-width:39.3701; stroke-opacity:1; 
stroke-linecap:round; stroke-linejoin:round;">
</g>
<g style="fill:#000000; fill-opacity:0.0; 
stroke:#000000; stroke-width:59.0551; stroke-opacity:1; 
stroke-linecap:round; stroke-linejoin:round;">
<path d="M3937 62992
L4724 62992
" />
</g>
<g style="fill:#000000; fill-opacity:0.0; 
stroke:#000000; stroke-width:39.3701; stroke-opacity:1; 
stroke-linecap:round; stroke-linejoin:round;">
</g>
<g style="fill:#000000; fill-opacity:0.0; 
stroke:#000000; stroke-width:59.0551; stroke-opacity:1; 
stroke-linecap:round; stroke-linejoin:round;">
<path d="M4208 13864
L4452 13864
" />
<path d="M4160 14011
L4330 13499
L4501 14011
" />
</g>
<g style="fill:#000000; fill-opacity:0.0; 
stroke:#000000; stroke-width:39.3701; stroke-opacity:1; 
stroke-linecap:round; stroke-linejoin:round;">
</g>
<g style="fill:#000000; fill-opacity:0.0; 
stroke:#000000; stroke-width:59.0551; stroke-opacity:1; 
stroke-linecap:round; stroke-linejoin:round;">
<path d="M4367 33428
L4440 33452
L4464 33476
L4489 33525
L4489 33598
L4464 33647
L4440 33671
L4391 33696
L4196 33696
L4196 33184
L4367 33184
L4416 33208
L4440 33233
L4464 33281
L4464 33330
L4440 33379
L4416 33403
L4367 33428
L4196 33428
" />
</g>
<g style="fill:#000000; fill-opacity:0.0; 
stroke:#000000; stroke-width:39.3701; stroke-opacity:1; 
stroke-linecap:round; stroke-linejoin:round;">
</g>
<g style="fill:#000000; fill-opacity:0.0; 
stroke:#000000; stroke-width:59.0551; stroke-opacity:1; 
stroke-linecap:round; stroke-linejoin:round;">
<path d="M4489 53332
L4464 53356
L4391 53381
L4342 53381
L4269 53356
L4221 53308
L4196 53259
L4172 53161
L4172 53088
L4196 52991
L4221 52942
L4269 52893
L4342 52869
L4391 52869
L4464 52893
L4489 52918
" />
</g>
<g style="fill:#000000; fill-opacity:0.0; 
stroke:#000000; stroke-width:39.3701; stroke-opacity:1; 
stroke-linecap:round; stroke-linejoin:round;">
</g>
<g style="fill:#000000; fill-opacity:0.0; 
stroke:#000000; stroke-width:59.0551; stroke-opacity:1; 
stroke-linecap:round; stroke-linejoin:round;">
<path d="M4196 73066
L4196 72554
L4318 72554
L4391 72578
L4440 72627
L4464 72676
L4489 72773
L4489 72846
L4464 72944
L4440 72993
L4391 73041
L4318 73066
L4196 73066
" />
</g>
<g style="fill:#000000; fill-opacity:0.0; 
stroke:#000000; stroke-width:39.3701; stroke-opacity:1; 
stroke-linecap:round; stroke-linejoin:round;">
</g>
<g style="fill:#000000; fill-opacity:0.0; 
stroke:#000000; stroke-width:59.0551; stroke-opacity:1; 
stroke-linecap:round; stroke-linejoin:round;">
<path d="M112992 23622
L112205 23622
" />
</g>
<g style="fill:#000000; fill-opacity:0.0; 
stroke:#000000; stroke-width:39.3701; stroke-opacity:1; 
stroke-linecap:round; stroke-linejoin:round;">
</g>
<g style="fill:#000000; fill-opacity:0.0; 
stroke:#000000; stroke-width:59.0551; stroke-opacity:1; 
stroke-linecap:round; stroke-linejoin:round;">
<path d="M112992 43307
L112205 43307
" />
</g>
<g style="fill:#000000; fill-opacity:0.0; 
stroke:#000000; stroke-width:39.3701; stroke-opacity:1; 
stroke-linecap:round; stroke-linejoin:round;">
</g>
<g style="fill:#000000; fill-opacity:0.0; 
stroke:#000000; stroke-width:59.0551; stroke-opacity:1; 
stroke-linecap:round; stroke-linejoin:round;">
<path d="M112992 62992
L112205 62992
" />
</g>
<g style="fill:#000000; fill-opacity:0.0; 
stroke:#000000; stroke-width:39.3701; stroke-opacity:1; 
stroke-linecap:round; stroke-linejoin:round;">
</g>
<g style="fill:#000000; fill-opacity:0.0; 
stroke:#000000; stroke-width:59.0551; stroke-opacity:1; 
stroke-linecap:round; stroke-linejoin:round;">
<path d="M112477 13864
L112721 13864
" />
<path d="M112428 14011
L112599 13499
L112769 14011
" />
</g>
<g style="fill:#000000; fill-opacity:0.0; 
stroke:#000000; stroke-width:39.3701; stroke-opacity:1; 
stroke-linecap:round; stroke-linejoin:round;">
</g>
<g style="fill:#000000; fill-opacity:0.0; 
stroke:#000000; stroke-width:59.0551; stroke-opacity:1; 
stroke-linecap:round; stroke-linejoin:round;">
<path d="M112635 33428
L112708 33452
L112733 33476
L112757 33525
L112757 33598
L112733 33647
L112708 33671
L112660 33696
L112465 33696
L112465 33184
L112635 33184
L112684 33208
L112708 33233
L112733 33281
L112733 33330
L112708 33379
L112684 33403
L112635 33428
L112465 33428
" />
</g>
<g style="fill:#000000; fill-opacity:0.0; 
stroke:#000000; stroke-width:39.3701; stroke-opacity:1; 
stroke-linecap:round; stroke-linejoin:round;">
</g>
<g style="fill:#000000; fill-opacity:0.0; 
stroke:#000000; stroke-width:59.0551; stroke-opacity:1; 
stroke-linecap:round; stroke-linejoin:round;">
<path d="M112757 53332
L112733 53356
L112660 53381
L112611 53381
L112538 53356
L112489 53308
L112465 53259
L112440 53161
L112440 53088
L112465 52991
L112489 52942
L112538 52893
L112611 52869
L112660 52869
L112733 52893
L112757 52918
" />
</g>
<g style="fill:#000000; fill-opacity:0.0; 
stroke:#000000; stroke-width:39.3701; stroke-opacity:1; 
stroke-linecap:round; stroke-linejoin:round;">
</g>
<g style="fill:#000000; fill-opacity:0.0; 
stroke:#000000; stroke-width:59.0551; stroke-opacity:1; 
stroke-linecap:round; stroke-linejoin:round;">
<path d="M112465 73066
L112465 72554
L112587 72554
L112660 72578
L112708 72627
L112733 72676
L112757 72773
L112757 72846
L112733 72944
L112708 72993
L112660 73041
L112587 73066
L112465 73066
" />
</g>
<g style="fill:#000000; fill-opacity:0.0; 
stroke:#000000; stroke-width:39.3701; stroke-opacity:1; 
stroke-linecap:round; stroke-linejoin:round;">
</g>
<g style="fill:#000000; fill-opacity:0.0; 
stroke:#000000; stroke-width:59.0551; stroke-opacity:1; 
stroke-linecap:round; stroke-linejoin:round;">
<path d="M78881 76293
L78881 75703
L79022 75703
L79106 75731
L79162 75787
L79190 75843
L79219 75956
L79219 76040
L79190 76153
L79162 76209
L79106 76265
L79022 76293
L78881 76293
" />
<path d="M79725 76293
L79725 75984
L79697 75928
L79640 75899
L79528 75899
L79472 75928
" />
<path d="M79725 76265
L79669 76293
L79528 76293
L79472 76265
L79444 76209
L79444 76153
L79472 76096
L79528 76068
L79669 76068
L79725 76040
" />
<path d="M79922 75899
L80147 75899
" />
<path d="M80006 75703
L80006 76209
L80034 76265
L80090 76293
L80147 76293
" />
<path d="M80568 76265
L80512 76293
L80400 76293
L80343 76265
L80315 76209
L80315 75984
L80343 75928
L80400 75899
L80512 75899
L80568 75928
L80597 75984
L80597 76040
L80315 76096
" />
<path d="M80850 76237
L80878 76265
L80850 76293
L80822 76265
L80850 76237
L80850 76293
" />
<path d="M80850 75928
L80878 75956
L80850 75984
L80822 75956
L80850 75928
L80850 75984
" />
</g>
<g style="fill:#000000; fill-opacity:0.0; 
stroke:#000000; stroke-width:39.3701; stroke-opacity:1; 
stroke-linecap:round; stroke-linejoin:round;">
</g>
<g style="fill:#000000; fill-opacity:0.0; 
stroke:#000000; stroke-width:59.0551; stroke-opacity:1; 
stroke-linecap:round; stroke-linejoin:round;">
<path d="M69685 76577
L112205 76577
" />
</g>
<g style="fill:#000000; fill-opacity:0.0; 
stroke:#000000; stroke-width:39.3701; stroke-opacity:1; 
stroke-linecap:round; stroke-linejoin:round;">
</g>
<g style="fill:#000000; fill-opacity:0.0; 
stroke:#000000; stroke-width:59.0551; stroke-opacity:1; 
stroke-linecap:round; stroke-linejoin:round;">
<path d="M70220 77395
L70220 76805
" />
<path d="M70557 77395
L70304 77058
" />
<path d="M70557 76805
L70220 77142
" />
<path d="M70810 77395
L70810 77002
" />
<path d="M70810 76805
L70782 76833
L70810 76861
L70838 76833
L70810 76805
L70810 76861
" />
<path d="M71429 77339
L71401 77367
L71316 77395
L71260 77395
L71176 77367
L71120 77311
L71091 77255
L71063 77142
L71063 77058
L71091 76946
L71120 76889
L71176 76833
L71260 76805
L71316 76805
L71401 76833
L71429 76861
" />
<path d="M71935 77395
L71935 77086
L71907 77030
L71851 77002
L71738 77002
L71682 77030
" />
<path d="M71935 77367
L71879 77395
L71738 77395
L71682 77367
L71654 77311
L71654 77255
L71682 77199
L71738 77171
L71879 77171
L71935 77142
" />
<path d="M72469 77395
L72469 76805
" />
<path d="M72469 77367
L72413 77395
L72301 77395
L72244 77367
L72216 77339
L72188 77283
L72188 77114
L72216 77058
L72244 77030
L72301 77002
L72413 77002
L72469 77030
" />
<path d="M73201 77086
L73397 77086
" />
<path d="M73482 77395
L73201 77395
L73201 76805
L73482 76805
" />
<path d="M73735 77339
L73763 77367
L73735 77395
L73707 77367
L73735 77339
L73735 77395
" />
<path d="M74016 77395
L74016 76805
L74157 76805
L74241 76833
L74297 76889
L74325 76946
L74354 77058
L74354 77142
L74325 77255
L74297 77311
L74241 77367
L74157 77395
L74016 77395
" />
<path d="M74607 77339
L74635 77367
L74607 77395
L74579 77367
L74607 77339
L74607 77395
" />
<path d="M74860 77227
L75141 77227
" />
<path d="M74804 77395
L75000 76805
L75197 77395
" />
<path d="M75394 77339
L75422 77367
L75394 77395
L75366 77367
L75394 77339
L75394 77395
" />
<path d="M76575 77395
L76575 76805
" />
<path d="M76631 77171
L76800 77395
" />
<path d="M76800 77002
L76575 77227
" />
<path d="M77053 77395
L77053 77002
" />
<path d="M77053 76805
L77025 76833
L77053 76861
L77081 76833
L77053 76805
L77053 76861
" />
<path d="M77588 77367
L77531 77395
L77419 77395
L77363 77367
L77334 77339
L77306 77283
L77306 77114
L77334 77058
L77363 77030
L77419 77002
L77531 77002
L77588 77030
" />
<path d="M78094 77395
L78094 77086
L78066 77030
L78009 77002
L77897 77002
L77841 77030
" />
<path d="M78094 77367
L78037 77395
L77897 77395
L77841 77367
L77813 77311
L77813 77255
L77841 77199
L77897 77171
L78037 77171
L78094 77142
" />
<path d="M78628 77395
L78628 76805
" />
<path d="M78628 77367
L78572 77395
L78459 77395
L78403 77367
L78375 77339
L78347 77283
L78347 77114
L78375 77058
L78403 77030
L78459 77002
L78572 77002
L78628 77030
" />
<path d="M79612 77002
L79612 77395
" />
<path d="M79472 76777
L79331 77199
L79697 77199
" />
<path d="M79922 77339
L79950 77367
L79922 77395
L79894 77367
L79922 77339
L79922 77395
" />
<path d="M80315 76805
L80372 76805
L80428 76833
L80456 76861
L80484 76917
L80512 77030
L80512 77171
L80484 77283
L80456 77339
L80428 77367
L80372 77395
L80315 77395
L80259 77367
L80231 77339
L80203 77283
L80175 77171
L80175 77030
L80203 76917
L80231 76861
L80259 76833
L80315 76805
" />
<path d="M80765 77339
L80793 77367
L80765 77395
L80737 77367
L80765 77339
L80765 77395
" />
<path d="M81018 76861
L81046 76833
L81103 76805
L81243 76805
L81300 76833
L81328 76861
L81356 76917
L81356 76974
L81328 77058
L80990 77395
L81356 77395
" />
<path d="M81609 77171
L82059 77171
" />
<path d="M81834 77395
L81834 76946
" />
<path d="M82565 77367
L82509 77395
L82396 77395
L82340 77367
L82312 77311
L82312 77086
L82340 77030
L82396 77002
L82509 77002
L82565 77030
L82593 77086
L82593 77142
L82312 77199
" />
<path d="M83099 77002
L83099 77395
" />
<path d="M82959 76777
L82818 77199
L83184 77199
" />
<path d="M83409 77171
L83859 77171
" />
<path d="M84393 76805
L84280 76805
L84224 76833
L84196 76861
L84140 76946
L84112 77058
L84112 77283
L84140 77339
L84168 77367
L84224 77395
L84337 77395
L84393 77367
L84421 77339
L84449 77283
L84449 77142
L84421 77086
L84393 77058
L84337 77030
L84224 77030
L84168 77058
L84140 77086
L84112 77142
" />
<path d="M84674 76861
L84702 76833
L84759 76805
L84899 76805
L84955 76833
L84983 76861
L85012 76917
L85012 76974
L84983 77058
L84646 77395
L85012 77395
" />
<path d="M85237 76861
L85265 76833
L85321 76805
L85462 76805
L85518 76833
L85546 76861
L85574 76917
L85574 76974
L85546 77058
L85208 77395
L85574 77395
" />
<path d="M86108 76805
L85827 76805
L85799 77086
L85827 77058
L85883 77030
L86024 77030
L86080 77058
L86108 77086
L86136 77142
L86136 77283
L86108 77339
L86080 77367
L86024 77395
L85883 77395
L85827 77367
L85799 77339
" />
<path d="M86333 76805
L86699 76805
L86502 77030
L86586 77030
L86643 77058
L86671 77086
L86699 77142
L86699 77283
L86671 77339
L86643 77367
L86586 77395
L86418 77395
L86361 77367
L86333 77339
" />
<path d="M87036 77058
L86980 77030
L86952 77002
L86924 76946
L86924 76917
L86952 76861
L86980 76833
L87036 76805
L87149 76805
L87205 76833
L87233 76861
L87261 76917
L87261 76946
L87233 77002
L87205 77030
L87149 77058
L87036 77058
L86980 77086
L86952 77114
L86924 77171
L86924 77283
L86952 77339
L86980 77367
L87036 77395
L87149 77395
L87205 77367
L87233 77339
L87261 77283
L87261 77171
L87233 77114
L87205 77086
L87149 77058
" />
<path d="M86249 76703
L87374 76703
" />
<path d="M87768 77002
L87768 77395
" />
<path d="M87514 77002
L87514 77311
L87543 77367
L87599 77395
L87683 77395
L87739 77367
L87768 77339
" />
<path d="M88049 77395
L88049 76805
" />
<path d="M88049 77030
L88105 77002
L88217 77002
L88274 77030
L88302 77058
L88330 77114
L88330 77283
L88302 77339
L88274 77367
L88217 77395
L88105 77395
L88049 77367
" />
<path d="M88836 77002
L88836 77395
" />
<path d="M88583 77002
L88583 77311
L88611 77367
L88667 77395
L88752 77395
L88808 77367
L88836 77339
" />
<path d="M89117 77002
L89117 77395
" />
<path d="M89117 77058
L89145 77030
L89202 77002
L89286 77002
L89342 77030
L89370 77086
L89370 77395
" />
<path d="M89567 77002
L89792 77002
" />
<path d="M89652 76805
L89652 77311
L89680 77367
L89736 77395
L89792 77395
" />
<path d="M90242 77002
L90242 77395
" />
<path d="M89989 77002
L89989 77311
L90017 77367
L90073 77395
L90158 77395
L90214 77367
L90242 77339
" />
<path d="M90833 77395
L90495 77395
" />
<path d="M90664 77395
L90664 76805
L90608 76889
L90552 76946
L90495 76974
" />
<path d="M91339 77002
L91339 77395
" />
<path d="M91198 76777
L91058 77199
L91423 77199
" />
<path d="M91648 77339
L91676 77367
L91648 77395
L91620 77367
L91648 77339
L91648 77395
" />
<path d="M92042 76805
L92098 76805
L92154 76833
L92183 76861
L92211 76917
L92239 77030
L92239 77171
L92211 77283
L92183 77339
L92154 77367
L92098 77395
L92042 77395
L91986 77367
L91958 77339
L91929 77283
L91901 77171
L91901 77030
L91929 76917
L91958 76861
L91986 76833
L92042 76805
" />
<path d="M92745 77002
L92745 77395
" />
<path d="M92604 76777
L92464 77199
L92829 77199
" />
<path d="M93054 77339
L93082 77367
L93054 77395
L93026 77367
L93054 77339
L93054 77395
" />
<path d="M93645 77395
L93307 77395
" />
<path d="M93476 77395
L93476 76805
L93420 76889
L93364 76946
L93307 76974
" />
<path d="M93898 77171
L94348 77171
" />
<path d="M94601 77367
L94657 77395
L94770 77395
L94826 77367
L94854 77311
L94854 77283
L94826 77227
L94770 77199
L94685 77199
L94629 77171
L94601 77114
L94601 77086
L94629 77030
L94685 77002
L94770 77002
L94826 77030
" />
<path d="M95023 77002
L95248 77002
" />
<path d="M95107 76805
L95107 77311
L95135 77367
L95192 77395
L95248 77395
" />
<path d="M95698 77395
L95698 77086
L95670 77030
L95613 77002
L95501 77002
L95445 77030
" />
<path d="M95698 77367
L95642 77395
L95501 77395
L95445 77367
L95417 77311
L95417 77255
L95445 77199
L95501 77171
L95642 77171
L95698 77142
" />
<path d="M95979 77395
L95979 76805
" />
<path d="M95979 77030
L96035 77002
L96148 77002
L96204 77030
L96232 77058
L96260 77114
L96260 77283
L96232 77339
L96204 77367
L96148 77395
L96035 77395
L95979 77367
" />
<path d="M96598 77395
L96541 77367
L96513 77311
L96513 76805
" />
<path d="M97048 77367
L96991 77395
L96879 77395
L96823 77367
L96795 77311
L96795 77086
L96823 77030
L96879 77002
L96991 77002
L97048 77030
L97076 77086
L97076 77142
L96795 77199
" />
</g>
<g style="fill:#000000; fill-opacity:0.0; 
stroke:#000000; stroke-width:39.3701; stroke-opacity:1; 
stroke-linecap:round; stroke-linejoin:round;">
</g>
<g style="fill:#000000; fill-opacity:0.0; 
stroke:#000000; stroke-width:59.0551; stroke-opacity:1; 
stroke-linecap:round; stroke-linejoin:round;">
<path d="M69685 75396
L112205 75396
" />
</g>
<g style="fill:#000000; fill-opacity:0.0; 
stroke:#000000; stroke-width:39.3701; stroke-opacity:1; 
stroke-linecap:round; stroke-linejoin:round;">
</g>
<g style="fill:#000000; fill-opacity:0.0; 
stroke:#000000; stroke-width:118.11; stroke-opacity:1; 
stroke-linecap:round; stroke-linejoin:round;">
<path d="M104022 76293
L103825 76012
" />
<path d="M103684 76293
L103684 75703
L103909 75703
L103965 75731
L103994 75759
L104022 75815
L104022 75899
L103994 75956
L103965 75984
L103909 76012
L103684 76012
" />
<path d="M104500 76265
L104444 76293
L104331 76293
L104275 76265
L104247 76209
L104247 75984
L104275 75928
L104331 75899
L104444 75899
L104500 75928
L104528 75984
L104528 76040
L104247 76096
" />
<path d="M104725 75899
L104865 76293
L105006 75899
" />
<path d="M105231 76237
L105259 76265
L105231 76293
L105203 76265
L105231 76237
L105231 76293
" />
<path d="M105231 75928
L105259 75956
L105231 75984
L105203 75956
L105231 75928
L105231 75984
" />
</g>
<g style="fill:#000000; fill-opacity:0.0; 
stroke:#000000; stroke-width:39.3701; stroke-opacity:1; 
stroke-linecap:round; stroke-linejoin:round;">
</g>
<g style="fill:#000000; fill-opacity:0.0; 
stroke:#000000; stroke-width:59.0551; stroke-opacity:1; 
stroke-linecap:round; stroke-linejoin:round;">
<path d="M70192 76265
L70276 76293
L70417 76293
L70473 76265
L70501 76237
L70529 76181
L70529 76124
L70501 76068
L70473 76040
L70417 76012
L70304 75984
L70248 75956
L70220 75928
L70192 75871
L70192 75815
L70220 75759
L70248 75731
L70304 75703
L70445 75703
L70529 75731
" />
<path d="M70782 76293
L70782 75899
" />
<path d="M70782 75703
L70754 75731
L70782 75759
L70810 75731
L70782 75703
L70782 75759
" />
<path d="M71007 75899
L71316 75899
L71007 76293
L71316 76293
" />
<path d="M71766 76265
L71710 76293
L71598 76293
L71541 76265
L71513 76209
L71513 75984
L71541 75928
L71598 75899
L71710 75899
L71766 75928
L71795 75984
L71795 76040
L71513 76096
" />
<path d="M72048 76237
L72076 76265
L72048 76293
L72019 76265
L72048 76237
L72048 76293
" />
<path d="M72048 75928
L72076 75956
L72048 75984
L72019 75956
L72048 75928
L72048 75984
" />
<path d="M72751 76124
L73032 76124
" />
<path d="M72694 76293
L72891 75703
L73088 76293
" />
<path d="M73538 75899
L73538 76293
" />
<path d="M73397 75674
L73257 76096
L73622 76096
" />
</g>
<g style="fill:#000000; fill-opacity:0.0; 
stroke:#000000; stroke-width:39.3701; stroke-opacity:1; 
stroke-linecap:round; stroke-linejoin:round;">
</g>
<g style="fill:#000000; fill-opacity:0.0; 
stroke:#000000; stroke-width:59.0551; stroke-opacity:1; 
stroke-linecap:round; stroke-linejoin:round;">
<path d="M103684 77395
L103684 76805
" />
<path d="M104219 77395
L104219 76805
" />
<path d="M104219 77367
L104162 77395
L104050 77395
L103994 77367
L103965 77339
L103937 77283
L103937 77114
L103965 77058
L103994 77030
L104050 77002
L104162 77002
L104219 77030
" />
<path d="M104500 77339
L104528 77367
L104500 77395
L104472 77367
L104500 77339
L104500 77395
" />
<path d="M104500 77030
L104528 77058
L104500 77086
L104472 77058
L104500 77030
L104500 77086
" />
<path d="M105540 77395
L105203 77395
" />
<path d="M105372 77395
L105372 76805
L105315 76889
L105259 76946
L105203 76974
" />
<path d="M106215 76777
L105709 77536
" />
<path d="M106721 77395
L106384 77395
" />
<path d="M106553 77395
L106553 76805
L106496 76889
L106440 76946
L106384 76974
" />
</g>
<g style="fill:#000000; fill-opacity:0.0; 
stroke:#000000; stroke-width:39.3701; stroke-opacity:1; 
stroke-linecap:round; stroke-linejoin:round;">
</g>
<g style="fill:#000000; fill-opacity:0.0; 
stroke:#000000; stroke-width:59.0551; stroke-opacity:1; 
stroke-linecap:round; stroke-linejoin:round;">
<path d="M69685 73821
L112205 73821
" />
</g>
<g style="fill:#000000; fill-opacity:0.0; 
stroke:#000000; stroke-width:39.3701; stroke-opacity:1; 
stroke-linecap:round; stroke-linejoin:round;">
</g>
<g style="fill:#000000; fill-opacity:0.0; 
stroke:#000000; stroke-width:157.48; stroke-opacity:1; 
stroke-linecap:round; stroke-linejoin:round;">
<path d="M70257 74099
L70707 74099
" />
<path d="M70384 74886
L70482 74099
" />
<path d="M70871 74886
L70937 74361
" />
<path d="M70970 74099
L70927 74136
L70960 74174
L71002 74136
L70970 74099
L70960 74174
" />
<path d="M71199 74361
L71499 74361
" />
<path d="M71345 74099
L71260 74774
L71288 74849
L71359 74886
L71434 74886
" />
<path d="M71809 74886
L71738 74849
L71710 74774
L71795 74099
" />
<path d="M72413 74849
L72334 74886
L72184 74886
L72113 74849
L72085 74774
L72123 74474
L72169 74399
L72249 74361
L72399 74361
L72469 74399
L72498 74474
L72488 74549
L72104 74624
" />
<path d="M72793 74811
L72826 74849
L72783 74886
L72751 74849
L72793 74811
L72783 74886
" />
<path d="M72844 74399
L72877 74436
L72835 74474
L72802 74436
L72844 74399
L72835 74474
" />
</g>
<g style="fill:#000000; fill-opacity:0.0; 
stroke:#000000; stroke-width:39.3701; stroke-opacity:1; 
stroke-linecap:round; stroke-linejoin:round;">
</g>
<g style="fill:#000000; fill-opacity:0.0; 
stroke:#000000; stroke-width:59.0551; stroke-opacity:1; 
stroke-linecap:round; stroke-linejoin:round;">
<path d="M70417 73070
L70220 73070
" />
<path d="M70220 73380
L70220 72789
L70501 72789
" />
<path d="M70726 73380
L70726 72986
" />
<path d="M70726 72789
L70698 72817
L70726 72845
L70754 72817
L70726 72789
L70726 72845
" />
<path d="M71091 73380
L71035 73352
L71007 73295
L71007 72789
" />
<path d="M71541 73352
L71485 73380
L71373 73380
L71316 73352
L71288 73295
L71288 73070
L71316 73014
L71373 72986
L71485 72986
L71541 73014
L71570 73070
L71570 73127
L71288 73183
" />
<path d="M71823 73323
L71851 73352
L71823 73380
L71795 73352
L71823 73323
L71823 73380
" />
<path d="M71823 73014
L71851 73042
L71823 73070
L71795 73042
L71823 73014
L71823 73070
" />
<path d="M72638 73380
L72582 73352
L72554 73323
L72526 73267
L72526 73099
L72554 73042
L72582 73014
L72638 72986
L72723 72986
L72779 73014
L72807 73042
L72835 73099
L72835 73267
L72807 73323
L72779 73352
L72723 73380
L72638 73380
" />
<path d="M73088 72986
L73088 73577
" />
<path d="M73088 73014
L73144 72986
L73257 72986
L73313 73014
L73341 73042
L73369 73099
L73369 73267
L73341 73323
L73313 73352
L73257 73380
L73144 73380
L73088 73352
" />
<path d="M73847 73352
L73791 73380
L73679 73380
L73622 73352
L73594 73295
L73594 73070
L73622 73014
L73679 72986
L73791 72986
L73847 73014
L73876 73070
L73876 73127
L73594 73183
" />
<path d="M74129 72986
L74129 73380
" />
<path d="M74129 73042
L74157 73014
L74213 72986
L74297 72986
L74354 73014
L74382 73070
L74382 73380
" />
<path d="M74663 73380
L74663 72789
" />
<path d="M74916 73380
L74916 73070
L74888 73014
L74832 72986
L74747 72986
L74691 73014
L74663 73042
" />
<path d="M75450 72986
L75450 73380
" />
<path d="M75197 72986
L75197 73295
L75225 73352
L75282 73380
L75366 73380
L75422 73352
L75450 73323
" />
<path d="M75732 73380
L75732 72986
" />
<path d="M75732 73042
L75760 73014
L75816 72986
L75900 72986
L75956 73014
L75985 73070
L75985 73380
" />
<path d="M75985 73070
L76013 73014
L76069 72986
L76153 72986
L76210 73014
L76238 73070
L76238 73380
" />
<path d="M76772 72789
L76660 72789
L76603 72817
L76575 72845
L76519 72930
L76491 73042
L76491 73267
L76519 73323
L76547 73352
L76603 73380
L76716 73380
L76772 73352
L76800 73323
L76828 73267
L76828 73127
L76800 73070
L76772 73042
L76716 73014
L76603 73014
L76547 73042
L76519 73070
L76491 73127
" />
<path d="M77081 73155
L77531 73155
" />
<path d="M77813 73380
L77813 72986
" />
<path d="M77813 73042
L77841 73014
L77897 72986
L77981 72986
L78037 73014
L78066 73070
L78066 73380
" />
<path d="M78066 73070
L78094 73014
L78150 72986
L78234 72986
L78291 73014
L78319 73070
L78319 73380
" />
<path d="M78825 73352
L78769 73380
L78656 73380
L78600 73352
L78572 73295
L78572 73070
L78600 73014
L78656 72986
L78769 72986
L78825 73014
L78853 73070
L78853 73127
L78572 73183
" />
<path d="M79359 72986
L79359 73464
L79331 73520
L79303 73548
L79247 73577
L79162 73577
L79106 73548
" />
<path d="M79359 73352
L79303 73380
L79190 73380
L79134 73352
L79106 73323
L79078 73267
L79078 73099
L79106 73042
L79134 73014
L79190 72986
L79303 72986
L79359 73014
" />
<path d="M79894 73380
L79894 73070
L79865 73014
L79809 72986
L79697 72986
L79640 73014
" />
<path d="M79894 73352
L79837 73380
L79697 73380
L79640 73352
L79612 73295
L79612 73239
L79640 73183
L79697 73155
L79837 73155
L79894 73127
" />
<path d="M80175 73323
L80203 73352
L80175 73380
L80147 73352
L80175 73323
L80175 73380
" />
<path d="M80456 73380
L80456 72789
" />
<path d="M80512 73155
L80681 73380
" />
<path d="M80681 72986
L80456 73211
" />
<path d="M80934 73380
L80934 72986
" />
<path d="M80934 72789
L80906 72817
L80934 72845
L80962 72817
L80934 72789
L80934 72845
" />
<path d="M81468 73352
L81412 73380
L81300 73380
L81243 73352
L81215 73323
L81187 73267
L81187 73099
L81215 73042
L81243 73014
L81300 72986
L81412 72986
L81468 73014
" />
<path d="M81974 73380
L81974 73070
L81946 73014
L81890 72986
L81778 72986
L81721 73014
" />
<path d="M81974 73352
L81918 73380
L81778 73380
L81721 73352
L81693 73295
L81693 73239
L81721 73183
L81778 73155
L81918 73155
L81974 73127
" />
<path d="M82509 73380
L82509 72789
" />
<path d="M82509 73352
L82453 73380
L82340 73380
L82284 73352
L82256 73323
L82228 73267
L82228 73099
L82256 73042
L82284 73014
L82340 72986
L82453 72986
L82509 73014
" />
<path d="M82649 73436
L83099 73436
" />
<path d="M83240 72986
L83240 73577
" />
<path d="M83240 73014
L83296 72986
L83409 72986
L83465 73014
L83493 73042
L83521 73099
L83521 73267
L83493 73323
L83465 73352
L83409 73380
L83296 73380
L83240 73352
" />
<path d="M84027 73352
L83971 73380
L83859 73380
L83802 73352
L83774 73323
L83746 73267
L83746 73099
L83774 73042
L83802 73014
L83859 72986
L83971 72986
L84027 73014
" />
<path d="M84280 73380
L84280 72789
" />
<path d="M84280 73014
L84337 72986
L84449 72986
L84505 73014
L84534 73042
L84562 73099
L84562 73267
L84534 73323
L84505 73352
L84449 73380
L84337 73380
L84280 73352
" />
</g>
<g style="fill:#000000; fill-opacity:0.0; 
stroke:#000000; stroke-width:39.3701; stroke-opacity:1; 
stroke-linecap:round; stroke-linejoin:round;">
</g>
<g style="fill:#000000; fill-opacity:0.0; 
stroke:#000000; stroke-width:59.0551; stroke-opacity:1; 
stroke-linecap:round; stroke-linejoin:round;">
<path d="M69685 71459
L112205 71459
" />
</g>
<g style="fill:#000000; fill-opacity:0.0; 
stroke:#000000; stroke-width:39.3701; stroke-opacity:1; 
stroke-linecap:round; stroke-linejoin:round;">
</g>
<g style="fill:#000000; fill-opacity:0.0; 
stroke:#000000; stroke-width:59.0551; stroke-opacity:1; 
stroke-linecap:round; stroke-linejoin:round;">
<path d="M70192 72289
L70276 72317
L70417 72317
L70473 72289
L70501 72260
L70529 72204
L70529 72148
L70501 72092
L70473 72064
L70417 72036
L70304 72007
L70248 71979
L70220 71951
L70192 71895
L70192 71839
L70220 71782
L70248 71754
L70304 71726
L70445 71726
L70529 71754
" />
<path d="M70782 72317
L70782 71726
" />
<path d="M71035 72317
L71035 72007
L71007 71951
L70951 71923
L70867 71923
L70810 71951
L70782 71979
" />
<path d="M71541 72289
L71485 72317
L71373 72317
L71316 72289
L71288 72232
L71288 72007
L71316 71951
L71373 71923
L71485 71923
L71541 71951
L71570 72007
L71570 72064
L71288 72120
" />
<path d="M72048 72289
L71991 72317
L71879 72317
L71823 72289
L71795 72232
L71795 72007
L71823 71951
L71879 71923
L71991 71923
L72048 71951
L72076 72007
L72076 72064
L71795 72120
" />
<path d="M72244 71923
L72469 71923
" />
<path d="M72329 71726
L72329 72232
L72357 72289
L72413 72317
L72469 72317
" />
<path d="M72666 72260
L72694 72289
L72666 72317
L72638 72289
L72666 72260
L72666 72317
" />
<path d="M72666 71951
L72694 71979
L72666 72007
L72638 71979
L72666 71951
L72666 72007
" />
</g>
<g style="fill:#000000; fill-opacity:0.0; 
stroke:#000000; stroke-width:39.3701; stroke-opacity:1; 
stroke-linecap:round; stroke-linejoin:round;">
</g>
<g style="fill:#000000; fill-opacity:0.0; 
stroke:#000000; stroke-width:59.0551; stroke-opacity:1; 
stroke-linecap:round; stroke-linejoin:round;">
<path d="M77559 75396
L77559 76577
" />
</g>
<g style="fill:#000000; fill-opacity:0.0; 
stroke:#000000; stroke-width:39.3701; stroke-opacity:1; 
stroke-linecap:round; stroke-linejoin:round;">
</g>
<g style="fill:#000000; fill-opacity:0.0; 
stroke:#000000; stroke-width:59.0551; stroke-opacity:1; 
stroke-linecap:round; stroke-linejoin:round;">
<path d="M102756 75396
L102756 77955
" />
</g>
<g style="fill:#840000; fill-opacity:0.0; 
stroke:#840000; stroke-width:59.0551; stroke-opacity:1; 
stroke-linecap:round; stroke-linejoin:round;">
</g>
<g style="fill:#840000; fill-opacity:0.0; 
stroke:#840000; stroke-width:0; stroke-opacity:1; 
stroke-linecap:round; stroke-linejoin:round;">
</g>
<g style="fill:#840000; fill-opacity:1.0; 
stroke:#840000; stroke-width:0; stroke-opacity:1; 
stroke-linecap:round; stroke-linejoin:round;">
<polyline style="fill-rule:evenodd;"
points="56217,37913
56217,37086
56846,37086
56846,37913
56217,37913
" /> 
</g>
<g style="fill:#840000; fill-opacity:1.0; 
stroke:#840000; stroke-width:629.48; stroke-opacity:1; 
stroke-linecap:round; stroke-linejoin:round;">
</g>
<g style="fill:#840000; fill-opacity:0.0; 
stroke:#840000; stroke-width:629.48; stroke-opacity:1; 
stroke-linecap:round; stroke-linejoin:round;">
<path d="M57318 37401
L57318 37598
" />
<path d="M58106 37401
L58106 37598
" />
<path d="M58893 37401
L58893 37598
" />
</g>
<g style="fill:#840000; fill-opacity:0.0; 
stroke:#840000; stroke-width:0; stroke-opacity:1; 
stroke-linecap:round; stroke-linejoin:round;">
</g>
<g style="fill:#840000; fill-opacity:1.0; 
stroke:#840000; stroke-width:0; stroke-opacity:1; 
stroke-linecap:round; stroke-linejoin:round;">
<polyline style="fill-rule:evenodd;"
points="53604,37913
53604,37086
54233,37086
54233,37913
53604,37913
" /> 
</g>
<g style="fill:#840000; fill-opacity:1.0; 
stroke:#840000; stroke-width:629.48; stroke-opacity:1; 
stroke-linecap:round; stroke-linejoin:round;">
</g>
<g style="fill:#840000; fill-opacity:0.0; 
stroke:#840000; stroke-width:629.48; stroke-opacity:1; 
stroke-linecap:round; stroke-linejoin:round;">
<path d="M54706 37401
L54706 37598
" />
</g>
<g style="fill:#840000; fill-opacity:0.0; 
stroke:#840000; stroke-width:0; stroke-opacity:1; 
stroke-linecap:round; stroke-linejoin:round;">
</g>
<g style="fill:#840000; fill-opacity:1.0; 
stroke:#840000; stroke-width:0; stroke-opacity:1; 
stroke-linecap:round; stroke-linejoin:round;">
<polyline style="fill-rule:evenodd;"
points="51638,35539
52505,35539
52505,36012
51638,36012
51638,35539
" /> 
<polyline style="fill-rule:evenodd;"
points="51638,36287
52505,36287
52505,36760
51638,36760
51638,36287
" /> 
<polyline style="fill-rule:evenodd;"
points="52820,35913
53687,35913
53687,36386
52820,36386
52820,35913
" /> 
<polyline style="fill-rule:evenodd;"
points="54388,35539
55255,35539
55255,36012
54388,36012
54388,35539
" /> 
<polyline style="fill-rule:evenodd;"
points="54388,36287
55255,36287
55255,36760
54388,36760
54388,36287
" /> 
<polyline style="fill-rule:evenodd;"
points="55570,35913
56437,35913
56437,36386
55570,36386
55570,35913
" /> 
<polyline style="fill-rule:evenodd;"
points="52638,33789
53505,33789
53505,34262
52638,34262
52638,33789
" /> 
<polyline style="fill-rule:evenodd;"
points="52638,34537
53505,34537
53505,35010
52638,35010
52638,34537
" /> 
<polyline style="fill-rule:evenodd;"
points="53820,34163
54687,34163
54687,34636
53820,34636
53820,34163
" /> 
<circle cx="50300" cy="30332.7" r="236.22" /> 
</g>
<g style="fill:#840000; fill-opacity:1.0; 
stroke:#840000; stroke-width:39.3701; stroke-opacity:1; 
stroke-linecap:round; stroke-linejoin:round;">
</g>
<g style="fill:#840000; fill-opacity:1.0; 
stroke:#840000; stroke-width:0; stroke-opacity:1; 
stroke-linecap:round; stroke-linejoin:round;">
<circle cx="50801.4" cy="30328.6" r="236.22" /> 
</g>
<g style="fill:#840000; fill-opacity:1.0; 
stroke:#840000; stroke-width:39.3701; stroke-opacity:1; 
stroke-linecap:round; stroke-linejoin:round;">
</g>
<g style="fill:#840000; fill-opacity:1.0; 
stroke:#840000; stroke-width:0; stroke-opacity:1; 
stroke-linecap:round; stroke-linejoin:round;">
<circle cx="51301.4" cy="30328.6" r="236.22" /> 
</g>
<g style="fill:#840000; fill-opacity:1.0; 
stroke:#840000; stroke-width:39.3701; stroke-opacity:1; 
stroke-linecap:round; stroke-linejoin:round;">
</g>
<g style="fill:#840000; fill-opacity:1.0; 
stroke:#840000; stroke-width:0; stroke-opacity:1; 
stroke-linecap:round; stroke-linejoin:round;">
<circle cx="51801.4" cy="30328.6" r="236.22" /> 
</g>
<g style="fill:#840000; fill-opacity:1.0; 
stroke:#840000; stroke-width:39.3701; stroke-opacity:1; 
stroke-linecap:round; stroke-linejoin:round;">
</g>
<g style="fill:#840000; fill-opacity:1.0; 
stroke:#840000; stroke-width:0; stroke-opacity:1; 
stroke-linecap:round; stroke-linejoin:round;">
<circle cx="52301.4" cy="30328.6" r="236.22" /> 
</g>
<g style="fill:#840000; fill-opacity:1.0; 
stroke:#840000; stroke-width:39.3701; stroke-opacity:1; 
stroke-linecap:round; stroke-linejoin:round;">
</g>
<g style="fill:#840000; fill-opacity:1.0; 
stroke:#840000; stroke-width:0; stroke-opacity:1; 
stroke-linecap:round; stroke-linejoin:round;">
<circle cx="52801.4" cy="30328.6" r="236.22" /> 
</g>
<g style="fill:#840000; fill-opacity:1.0; 
stroke:#840000; stroke-width:39.3701; stroke-opacity:1; 
stroke-linecap:round; stroke-linejoin:round;">
</g>
<g style="fill:#840000; fill-opacity:1.0; 
stroke:#840000; stroke-width:0; stroke-opacity:1; 
stroke-linecap:round; stroke-linejoin:round;">
<circle cx="53301.4" cy="30328.6" r="236.22" /> 
</g>
<g style="fill:#840000; fill-opacity:1.0; 
stroke:#840000; stroke-width:39.3701; stroke-opacity:1; 
stroke-linecap:round; stroke-linejoin:round;">
</g>
<g style="fill:#840000; fill-opacity:1.0; 
stroke:#840000; stroke-width:0; stroke-opacity:1; 
stroke-linecap:round; stroke-linejoin:round;">
<circle cx="53801.4" cy="30328.6" r="236.22" /> 
</g>
<g style="fill:#840000; fill-opacity:1.0; 
stroke:#840000; stroke-width:39.3701; stroke-opacity:1; 
stroke-linecap:round; stroke-linejoin:round;">
</g>
<g style="fill:#840000; fill-opacity:1.0; 
stroke:#840000; stroke-width:0; stroke-opacity:1; 
stroke-linecap:round; stroke-linejoin:round;">
<polyline style="fill-rule:evenodd;"
points="62610,36523
62255,36523
62255,35460
62610,35460
62610,36523
" /> 
<polyline style="fill-rule:evenodd;"
points="62925,36523
62570,36523
62570,35460
62925,35460
62925,36523
" /> 
<polyline style="fill-rule:evenodd;"
points="63240,36523
62885,36523
62885,35460
63240,35460
63240,36523
" /> 
<polyline style="fill-rule:evenodd;"
points="63555,36523
63200,36523
63200,35460
63555,35460
63555,36523
" /> 
<polyline style="fill-rule:evenodd;"
points="63870,36523
63515,36523
63515,35460
63870,35460
63870,36523
" /> 
<polyline style="fill-rule:evenodd;"
points="61783,36601
60838,36601
60838,35460
61783,35460
61783,36601
" /> 
<polyline style="fill-rule:evenodd;"
points="61783,38766
60838,38766
60838,37625
61783,37625
61783,38766
" /> 
<polyline style="fill-rule:evenodd;"
points="65287,36601
64342,36601
64342,35460
65287,35460
65287,36601
" /> 
<polyline style="fill-rule:evenodd;"
points="65287,38766
64342,38766
64342,37625
65287,37625
65287,38766
" /> 
<circle cx="62197" cy="37015" r="255.74" /> 
</g>
<g style="fill:#840000; fill-opacity:1.0; 
stroke:#840000; stroke-width:39.3701; stroke-opacity:1; 
stroke-linecap:round; stroke-linejoin:round;">
</g>
<g style="fill:#840000; fill-opacity:1.0; 
stroke:#840000; stroke-width:0; stroke-opacity:1; 
stroke-linecap:round; stroke-linejoin:round;">
<circle cx="63929" cy="37015" r="255.74" /> 
</g>
<g style="fill:#840000; fill-opacity:1.0; 
stroke:#840000; stroke-width:39.3701; stroke-opacity:1; 
stroke-linecap:round; stroke-linejoin:round;">
</g>
<g style="fill:#840000; fill-opacity:1.0; 
stroke:#840000; stroke-width:0; stroke-opacity:1; 
stroke-linecap:round; stroke-linejoin:round;">
<polyline style="fill-rule:evenodd;"
points="63184,23371
63941,23371
63941,24128
63184,24128
63184,23371
" /> 
<circle cx="64563" cy="23750" r="378.74" /> 
</g>
<g style="fill:#840000; fill-opacity:1.0; 
stroke:#840000; stroke-width:39.3701; stroke-opacity:1; 
stroke-linecap:round; stroke-linejoin:round;">
</g>
<g style="fill:#840000; fill-opacity:1.0; 
stroke:#840000; stroke-width:0; stroke-opacity:1; 
stroke-linecap:round; stroke-linejoin:round;">
<circle cx="63563" cy="24750" r="378.74" /> 
</g>
<g style="fill:#840000; fill-opacity:1.0; 
stroke:#840000; stroke-width:39.3701; stroke-opacity:1; 
stroke-linecap:round; stroke-linejoin:round;">
</g>
<g style="fill:#840000; fill-opacity:1.0; 
stroke:#840000; stroke-width:0; stroke-opacity:1; 
stroke-linecap:round; stroke-linejoin:round;">
<circle cx="64563" cy="24750" r="378.74" /> 
</g>
<g style="fill:#840000; fill-opacity:1.0; 
stroke:#840000; stroke-width:39.3701; stroke-opacity:1; 
stroke-linecap:round; stroke-linejoin:round;">
</g>
<g style="fill:#840000; fill-opacity:1.0; 
stroke:#840000; stroke-width:0; stroke-opacity:1; 
stroke-linecap:round; stroke-linejoin:round;">
<circle cx="63563" cy="25750" r="378.74" /> 
</g>
<g style="fill:#840000; fill-opacity:1.0; 
stroke:#840000; stroke-width:39.3701; stroke-opacity:1; 
stroke-linecap:round; stroke-linejoin:round;">
</g>
<g style="fill:#840000; fill-opacity:1.0; 
stroke:#840000; stroke-width:0; stroke-opacity:1; 
stroke-linecap:round; stroke-linejoin:round;">
<circle cx="64563" cy="25750" r="378.74" /> 
</g>
<g style="fill:#840000; fill-opacity:1.0; 
stroke:#840000; stroke-width:39.3701; stroke-opacity:1; 
stroke-linecap:round; stroke-linejoin:round;">
</g>
<g style="fill:#840000; fill-opacity:1.0; 
stroke:#840000; stroke-width:0; stroke-opacity:1; 
stroke-linecap:round; stroke-linejoin:round;">
<circle cx="64763" cy="33000" r="570.74" /> 
</g>
<g style="fill:#840000; fill-opacity:1.0; 
stroke:#840000; stroke-width:39.3701; stroke-opacity:1; 
stroke-linecap:round; stroke-linejoin:round;">
</g>
<g style="fill:#840000; fill-opacity:1.0; 
stroke:#840000; stroke-width:0; stroke-opacity:1; 
stroke-linecap:round; stroke-linejoin:round;">
<circle cx="64763" cy="34500" r="570.74" /> 
</g>
<g style="fill:#840000; fill-opacity:1.0; 
stroke:#840000; stroke-width:39.3701; stroke-opacity:1; 
stroke-linecap:round; stroke-linejoin:round;">
</g>
<g style="fill:#840000; fill-opacity:1.0; 
stroke:#840000; stroke-width:0; stroke-opacity:1; 
stroke-linecap:round; stroke-linejoin:round;">
<polyline style="fill-rule:evenodd;"
points="63874,34628
62851,34628
62851,33871
63874,33871
63874,34628
" /> 
</g>
<g style="fill:#840000; fill-opacity:1.0; 
stroke:#840000; stroke-width:757.48; stroke-opacity:1; 
stroke-linecap:round; stroke-linejoin:round;">
</g>
<g style="fill:#840000; fill-opacity:0.0; 
stroke:#840000; stroke-width:757.48; stroke-opacity:1; 
stroke-linecap:round; stroke-linejoin:round;">
<path d="M63229 33250
L63495 33250
" />
</g>
<g style="fill:#840000; fill-opacity:1.0; 
stroke:#840000; stroke-width:0; stroke-opacity:1; 
stroke-linecap:round; stroke-linejoin:round;">
<circle cx="50704.7" cy="35131.1" r="378.74" /> 
</g>
<g style="fill:#840000; fill-opacity:1.0; 
stroke:#840000; stroke-width:39.3701; stroke-opacity:1; 
stroke-linecap:round; stroke-linejoin:round;">
</g>
<g style="fill:#840000; fill-opacity:1.0; 
stroke:#840000; stroke-width:0; stroke-opacity:1; 
stroke-linecap:round; stroke-linejoin:round;">
<circle cx="50704.7" cy="33950" r="378.74" /> 
</g>
<g style="fill:#840000; fill-opacity:1.0; 
stroke:#840000; stroke-width:39.3701; stroke-opacity:1; 
stroke-linecap:round; stroke-linejoin:round;">
</g>
<g style="fill:#840000; fill-opacity:1.0; 
stroke:#840000; stroke-width:0; stroke-opacity:1; 
stroke-linecap:round; stroke-linejoin:round;">
<circle cx="50704.7" cy="32768.9" r="378.74" /> 
</g>
<g style="fill:#840000; fill-opacity:1.0; 
stroke:#840000; stroke-width:39.3701; stroke-opacity:1; 
stroke-linecap:round; stroke-linejoin:round;">
</g>
<g style="fill:#840000; fill-opacity:1.0; 
stroke:#840000; stroke-width:0; stroke-opacity:1; 
stroke-linecap:round; stroke-linejoin:round;">
<circle cx="50901.6" cy="36410.6" r="378.74" /> 
</g>
<g style="fill:#840000; fill-opacity:1.0; 
stroke:#840000; stroke-width:39.3701; stroke-opacity:1; 
stroke-linecap:round; stroke-linejoin:round;">
</g>
<g style="fill:#840000; fill-opacity:1.0; 
stroke:#840000; stroke-width:0; stroke-opacity:1; 
stroke-linecap:round; stroke-linejoin:round;">
<circle cx="50901.6" cy="31489.4" r="378.74" /> 
</g>
<g style="fill:#840000; fill-opacity:1.0; 
stroke:#840000; stroke-width:39.3701; stroke-opacity:1; 
stroke-linecap:round; stroke-linejoin:round;">
</g>
<g style="fill:#840000; fill-opacity:1.0; 
stroke:#840000; stroke-width:0; stroke-opacity:1; 
stroke-linecap:round; stroke-linejoin:round;">
<polyline style="fill-rule:evenodd;"
points="50161,37913
50161,37086
50790,37086
50790,37913
50161,37913
" /> 
</g>
<g style="fill:#840000; fill-opacity:1.0; 
stroke:#840000; stroke-width:629.48; stroke-opacity:1; 
stroke-linecap:round; stroke-linejoin:round;">
</g>
<g style="fill:#840000; fill-opacity:0.0; 
stroke:#840000; stroke-width:629.48; stroke-opacity:1; 
stroke-linecap:round; stroke-linejoin:round;">
<path d="M51262 37401
L51262 37598
" />
<path d="M52049 37401
L52049 37598
" />
</g>
<g style="fill:#840000; fill-opacity:0.0; 
stroke:#840000; stroke-width:0; stroke-opacity:1; 
stroke-linecap:round; stroke-linejoin:round;">
</g>
<g style="fill:#840000; fill-opacity:1.0; 
stroke:#840000; stroke-width:0; stroke-opacity:1; 
stroke-linecap:round; stroke-linejoin:round;">
<polyline style="fill-rule:evenodd;"
points="59579,31315
59579,31689
58792,31689
58792,31315
59579,31315
" /> 
<polyline style="fill-rule:evenodd;"
points="59579,31000
59579,31374
58792,31374
58792,31000
59579,31000
" /> 
<polyline style="fill-rule:evenodd;"
points="59579,30685
59579,31059
58792,31059
58792,30685
59579,30685
" /> 
<polyline style="fill-rule:evenodd;"
points="59579,30370
59579,30744
58792,30744
58792,30370
59579,30370
" /> 
<polyline style="fill-rule:evenodd;"
points="59579,30055
59579,30429
58792,30429
58792,30055
59579,30055
" /> 
<polyline style="fill-rule:evenodd;"
points="59579,29740
59579,30114
58792,30114
58792,29740
59579,29740
" /> 
<polyline style="fill-rule:evenodd;"
points="59579,29425
59579,29799
58792,29799
58792,29425
59579,29425
" /> 
<polyline style="fill-rule:evenodd;"
points="59579,29110
59579,29484
58792,29484
58792,29110
59579,29110
" /> 
<polyline style="fill-rule:evenodd;"
points="58428,28333
58802,28333
58802,29120
58428,29120
58428,28333
" /> 
<polyline style="fill-rule:evenodd;"
points="58113,28333
58487,28333
58487,29120
58113,29120
58113,28333
" /> 
<polyline style="fill-rule:evenodd;"
points="57798,28333
58172,28333
58172,29120
57798,29120
57798,28333
" /> 
<polyline style="fill-rule:evenodd;"
points="57483,28333
57857,28333
57857,29120
57483,29120
57483,28333
" /> 
<polyline style="fill-rule:evenodd;"
points="57168,28333
57542,28333
57542,29120
57168,29120
57168,28333
" /> 
<polyline style="fill-rule:evenodd;"
points="56853,28333
57227,28333
57227,29120
56853,29120
56853,28333
" /> 
<polyline style="fill-rule:evenodd;"
points="56538,28333
56912,28333
56912,29120
56538,29120
56538,28333
" /> 
<polyline style="fill-rule:evenodd;"
points="56223,28333
56597,28333
56597,29120
56223,29120
56223,28333
" /> 
<polyline style="fill-rule:evenodd;"
points="56233,29110
56233,29484
55446,29484
55446,29110
56233,29110
" /> 
<polyline style="fill-rule:evenodd;"
points="56233,29425
56233,29799
55446,29799
55446,29425
56233,29425
" /> 
<polyline style="fill-rule:evenodd;"
points="56233,29740
56233,30114
55446,30114
55446,29740
56233,29740
" /> 
<polyline style="fill-rule:evenodd;"
points="56233,30055
56233,30429
55446,30429
55446,30055
56233,30055
" /> 
<polyline style="fill-rule:evenodd;"
points="56233,30370
56233,30744
55446,30744
55446,30370
56233,30370
" /> 
<polyline style="fill-rule:evenodd;"
points="56233,30685
56233,31059
55446,31059
55446,30685
56233,30685
" /> 
<polyline style="fill-rule:evenodd;"
points="56233,31000
56233,31374
55446,31374
55446,31000
56233,31000
" /> 
<polyline style="fill-rule:evenodd;"
points="56233,31315
56233,31689
55446,31689
55446,31315
56233,31315
" /> 
<polyline style="fill-rule:evenodd;"
points="56223,31679
56597,31679
56597,32466
56223,32466
56223,31679
" /> 
<polyline style="fill-rule:evenodd;"
points="56538,31679
56912,31679
56912,32466
56538,32466
56538,31679
" /> 
<polyline style="fill-rule:evenodd;"
points="56853,31679
57227,31679
57227,32466
56853,32466
56853,31679
" /> 
<polyline style="fill-rule:evenodd;"
points="57168,31679
57542,31679
57542,32466
57168,32466
57168,31679
" /> 
<polyline style="fill-rule:evenodd;"
points="57483,31679
57857,31679
57857,32466
57483,32466
57483,31679
" /> 
<polyline style="fill-rule:evenodd;"
points="57798,31679
58172,31679
58172,32466
57798,32466
57798,31679
" /> 
<polyline style="fill-rule:evenodd;"
points="58113,31679
58487,31679
58487,32466
58113,32466
58113,31679
" /> 
<polyline style="fill-rule:evenodd;"
points="58428,31679
58802,31679
58802,32466
58428,32466
58428,31679
" /> 
<polyline style="fill-rule:evenodd;"
points="53017,31806
53017,32593
51442,32593
51442,31806
53017,31806
" /> 
<polyline style="fill-rule:evenodd;"
points="55183,31806
55183,32593
53608,32593
53608,31806
55183,31806
" /> 
<polyline style="fill-rule:evenodd;"
points="64997,31155
64328,31155
64328,30407
64997,30407
64997,31155
" /> 
<polyline style="fill-rule:evenodd;"
points="64997,30092
64328,30092
64328,29344
64997,29344
64997,30092
" /> 
<polyline style="fill-rule:evenodd;"
points="58787,35565
58787,36234
58038,36234
58038,35565
58787,35565
" /> 
<polyline style="fill-rule:evenodd;"
points="57724,35565
57724,36234
56975,36234
56975,35565
57724,35565
" /> 
<polyline style="fill-rule:evenodd;"
points="63428,29344
64097,29344
64097,30092
63428,30092
63428,29344
" /> 
<polyline style="fill-rule:evenodd;"
points="63428,30407
64097,30407
64097,31155
63428,31155
63428,30407
" /> 
<polyline style="fill-rule:evenodd;"
points="64328,27244
64997,27244
64997,27992
64328,27992
64328,27244
" /> 
<polyline style="fill-rule:evenodd;"
points="64328,28307
64997,28307
64997,29055
64328,29055
64328,28307
" /> 
<polyline style="fill-rule:evenodd;"
points="57007,35159
57007,34490
57755,34490
57755,35159
57007,35159
" /> 
<polyline style="fill-rule:evenodd;"
points="58070,35159
58070,34490
58818,34490
58818,35159
58070,35159
" /> 
<polyline style="fill-rule:evenodd;"
points="64097,29055
63428,29055
63428,28307
64097,28307
64097,29055
" /> 
<polyline style="fill-rule:evenodd;"
points="64097,27992
63428,27992
63428,27244
64097,27244
64097,27992
" /> 
<circle cx="61563" cy="27150" r="378.74" /> 
</g>
<g style="fill:#840000; fill-opacity:1.0; 
stroke:#840000; stroke-width:39.3701; stroke-opacity:1; 
stroke-linecap:round; stroke-linejoin:round;">
</g>
<g style="fill:#840000; fill-opacity:1.0; 
stroke:#840000; stroke-width:0; stroke-opacity:1; 
stroke-linecap:round; stroke-linejoin:round;">
<circle cx="60563" cy="27150" r="378.74" /> 
</g>
<g style="fill:#840000; fill-opacity:1.0; 
stroke:#840000; stroke-width:39.3701; stroke-opacity:1; 
stroke-linecap:round; stroke-linejoin:round;">
</g>
<g style="fill:#840000; fill-opacity:1.0; 
stroke:#840000; stroke-width:0; stroke-opacity:1; 
stroke-linecap:round; stroke-linejoin:round;">
<circle cx="59563" cy="27150" r="378.74" /> 
</g>
<g style="fill:#840000; fill-opacity:1.0; 
stroke:#840000; stroke-width:39.3701; stroke-opacity:1; 
stroke-linecap:round; stroke-linejoin:round;">
</g>
<g style="fill:#840000; fill-opacity:1.0; 
stroke:#840000; stroke-width:0; stroke-opacity:1; 
stroke-linecap:round; stroke-linejoin:round;">
<circle cx="58563" cy="27150" r="378.74" /> 
</g>
<g style="fill:#840000; fill-opacity:1.0; 
stroke:#840000; stroke-width:39.3701; stroke-opacity:1; 
stroke-linecap:round; stroke-linejoin:round;">
</g>
<g style="fill:#840000; fill-opacity:1.0; 
stroke:#840000; stroke-width:0; stroke-opacity:1; 
stroke-linecap:round; stroke-linejoin:round;">
<circle cx="57563" cy="27150" r="378.74" /> 
</g>
<g style="fill:#840000; fill-opacity:1.0; 
stroke:#840000; stroke-width:39.3701; stroke-opacity:1; 
stroke-linecap:round; stroke-linejoin:round;">
</g>
<g style="fill:#840000; fill-opacity:1.0; 
stroke:#840000; stroke-width:0; stroke-opacity:1; 
stroke-linecap:round; stroke-linejoin:round;">
<circle cx="56563" cy="27150" r="378.74" /> 
</g>
<g style="fill:#840000; fill-opacity:1.0; 
stroke:#840000; stroke-width:39.3701; stroke-opacity:1; 
stroke-linecap:round; stroke-linejoin:round;">
</g>
<g style="fill:#840000; fill-opacity:1.0; 
stroke:#840000; stroke-width:0; stroke-opacity:1; 
stroke-linecap:round; stroke-linejoin:round;">
<circle cx="61563" cy="32311" r="374.24" /> 
</g>
<g style="fill:#840000; fill-opacity:1.0; 
stroke:#840000; stroke-width:39.3701; stroke-opacity:1; 
stroke-linecap:round; stroke-linejoin:round;">
</g>
<g style="fill:#840000; fill-opacity:1.0; 
stroke:#840000; stroke-width:0; stroke-opacity:1; 
stroke-linecap:round; stroke-linejoin:round;">
<circle cx="61563" cy="30389" r="374.24" /> 
</g>
<g style="fill:#840000; fill-opacity:1.0; 
stroke:#840000; stroke-width:39.3701; stroke-opacity:1; 
stroke-linecap:round; stroke-linejoin:round;">
</g>
<g style="fill:#840000; fill-opacity:1.0; 
stroke:#840000; stroke-width:0; stroke-opacity:1; 
stroke-linecap:round; stroke-linejoin:round;">
<polyline style="fill-rule:evenodd;"
points="59151,33021
60174,33021
60174,33778
59151,33778
59151,33021
" /> 
</g>
<g style="fill:#840000; fill-opacity:1.0; 
stroke:#840000; stroke-width:757.48; stroke-opacity:1; 
stroke-linecap:round; stroke-linejoin:round;">
</g>
<g style="fill:#840000; fill-opacity:0.0; 
stroke:#840000; stroke-width:757.48; stroke-opacity:1; 
stroke-linecap:round; stroke-linejoin:round;">
<path d="M59795 34400
L59529 34400
" />
</g>
<g style="fill:#000000; fill-opacity:0.0; 
stroke:#000000; stroke-width:757.48; stroke-opacity:1; 
stroke-linecap:round; stroke-linejoin:round;">
</g>
<g style="fill:#840000; fill-opacity:0.0; 
stroke:#840000; stroke-width:757.48; stroke-opacity:1; 
stroke-linecap:round; stroke-linejoin:round;">
</g>
<g style="fill:#840000; fill-opacity:0.0; 
stroke:#840000; stroke-width:0; stroke-opacity:1; 
stroke-linecap:round; stroke-linejoin:round;">
</g>
<g style="fill:#840000; fill-opacity:1.0; 
stroke:#840000; stroke-width:0; stroke-opacity:1; 
stroke-linecap:round; stroke-linejoin:round;">
<polyline style="fill-rule:evenodd;"
points="51717,35618
52426,35618
52426,35933
51717,35933
51717,35618
" /> 
<polyline style="fill-rule:evenodd;"
points="51717,36366
52426,36366
52426,36681
51717,36681
51717,36366
" /> 
<polyline style="fill-rule:evenodd;"
points="52899,35992
53608,35992
53608,36307
52899,36307
52899,35992
" /> 
<polyline style="fill-rule:evenodd;"
points="54467,35618
55176,35618
55176,35933
54467,35933
54467,35618
" /> 
<polyline style="fill-rule:evenodd;"
points="54467,36366
55176,36366
55176,36681
54467,36681
54467,36366
" /> 
<polyline style="fill-rule:evenodd;"
points="55649,35992
56358,35992
56358,36307
55649,36307
55649,35992
" /> 
<polyline style="fill-rule:evenodd;"
points="52717,33868
53426,33868
53426,34183
52717,34183
52717,33868
" /> 
<polyline style="fill-rule:evenodd;"
points="52717,34616
53426,34616
53426,34931
52717,34931
52717,34616
" /> 
<polyline style="fill-rule:evenodd;"
points="53899,34242
54608,34242
54608,34557
53899,34557
53899,34242
" /> 
<circle cx="50300" cy="30332.7" r="157.48" /> 
</g>
<g style="fill:#840000; fill-opacity:1.0; 
stroke:#840000; stroke-width:39.3701; stroke-opacity:1; 
stroke-linecap:round; stroke-linejoin:round;">
</g>
<g style="fill:#840000; fill-opacity:1.0; 
stroke:#840000; stroke-width:0; stroke-opacity:1; 
stroke-linecap:round; stroke-linejoin:round;">
<circle cx="50801.4" cy="30328.6" r="157.48" /> 
</g>
<g style="fill:#840000; fill-opacity:1.0; 
stroke:#840000; stroke-width:39.3701; stroke-opacity:1; 
stroke-linecap:round; stroke-linejoin:round;">
</g>
<g style="fill:#840000; fill-opacity:1.0; 
stroke:#840000; stroke-width:0; stroke-opacity:1; 
stroke-linecap:round; stroke-linejoin:round;">
<circle cx="51301.4" cy="30328.6" r="157.48" /> 
</g>
<g style="fill:#840000; fill-opacity:1.0; 
stroke:#840000; stroke-width:39.3701; stroke-opacity:1; 
stroke-linecap:round; stroke-linejoin:round;">
</g>
<g style="fill:#840000; fill-opacity:1.0; 
stroke:#840000; stroke-width:0; stroke-opacity:1; 
stroke-linecap:round; stroke-linejoin:round;">
<circle cx="51801.4" cy="30328.6" r="157.48" /> 
</g>
<g style="fill:#840000; fill-opacity:1.0; 
stroke:#840000; stroke-width:39.3701; stroke-opacity:1; 
stroke-linecap:round; stroke-linejoin:round;">
</g>
<g style="fill:#840000; fill-opacity:1.0; 
stroke:#840000; stroke-width:0; stroke-opacity:1; 
stroke-linecap:round; stroke-linejoin:round;">
<circle cx="52301.4" cy="30328.6" r="157.48" /> 
</g>
<g style="fill:#840000; fill-opacity:1.0; 
stroke:#840000; stroke-width:39.3701; stroke-opacity:1; 
stroke-linecap:round; stroke-linejoin:round;">
</g>
<g style="fill:#840000; fill-opacity:1.0; 
stroke:#840000; stroke-width:0; stroke-opacity:1; 
stroke-linecap:round; stroke-linejoin:round;">
<circle cx="52801.4" cy="30328.6" r="157.48" /> 
</g>
<g style="fill:#840000; fill-opacity:1.0; 
stroke:#840000; stroke-width:39.3701; stroke-opacity:1; 
stroke-linecap:round; stroke-linejoin:round;">
</g>
<g style="fill:#840000; fill-opacity:1.0; 
stroke:#840000; stroke-width:0; stroke-opacity:1; 
stroke-linecap:round; stroke-linejoin:round;">
<circle cx="53301.4" cy="30328.6" r="157.48" /> 
</g>
<g style="fill:#840000; fill-opacity:1.0; 
stroke:#840000; stroke-width:39.3701; stroke-opacity:1; 
stroke-linecap:round; stroke-linejoin:round;">
</g>
<g style="fill:#840000; fill-opacity:1.0; 
stroke:#840000; stroke-width:0; stroke-opacity:1; 
stroke-linecap:round; stroke-linejoin:round;">
<circle cx="53801.4" cy="30328.6" r="157.48" /> 
</g>
<g style="fill:#840000; fill-opacity:1.0; 
stroke:#840000; stroke-width:39.3701; stroke-opacity:1; 
stroke-linecap:round; stroke-linejoin:round;">
</g>
<g style="fill:#840000; fill-opacity:1.0; 
stroke:#840000; stroke-width:0; stroke-opacity:1; 
stroke-linecap:round; stroke-linejoin:round;">
<polyline style="fill-rule:evenodd;"
points="62531,36445
62334,36445
62334,35539
62531,35539
62531,36445
" /> 
<polyline style="fill-rule:evenodd;"
points="62846,36445
62649,36445
62649,35539
62846,35539
62846,36445
" /> 
<polyline style="fill-rule:evenodd;"
points="63161,36445
62964,36445
62964,35539
63161,35539
63161,36445
" /> 
<polyline style="fill-rule:evenodd;"
points="63476,36445
63279,36445
63279,35539
63476,35539
63476,36445
" /> 
<polyline style="fill-rule:evenodd;"
points="63791,36445
63594,36445
63594,35539
63791,35539
63791,36445
" /> 
<polyline style="fill-rule:evenodd;"
points="61704,36523
60917,36523
60917,35539
61704,35539
61704,36523
" /> 
<polyline style="fill-rule:evenodd;"
points="61704,38688
60917,38688
60917,37704
61704,37704
61704,38688
" /> 
<polyline style="fill-rule:evenodd;"
points="65208,36523
64421,36523
64421,35539
65208,35539
65208,36523
" /> 
<polyline style="fill-rule:evenodd;"
points="65208,38688
64421,38688
64421,37704
65208,37704
65208,38688
" /> 
<polyline style="fill-rule:evenodd;"
points="59501,31394
59501,31610
58871,31610
58871,31394
59501,31394
" /> 
<polyline style="fill-rule:evenodd;"
points="59501,31079
59501,31295
58871,31295
58871,31079
59501,31079
" /> 
<polyline style="fill-rule:evenodd;"
points="59501,30764
59501,30980
58871,30980
58871,30764
59501,30764
" /> 
<polyline style="fill-rule:evenodd;"
points="59501,30449
59501,30665
58871,30665
58871,30449
59501,30449
" /> 
<polyline style="fill-rule:evenodd;"
points="59501,30134
59501,30350
58871,30350
58871,30134
59501,30134
" /> 
<polyline style="fill-rule:evenodd;"
points="59501,29819
59501,30035
58871,30035
58871,29819
59501,29819
" /> 
<polyline style="fill-rule:evenodd;"
points="59501,29504
59501,29720
58871,29720
58871,29504
59501,29504
" /> 
<polyline style="fill-rule:evenodd;"
points="59501,29189
59501,29405
58871,29405
58871,29189
59501,29189
" /> 
<polyline style="fill-rule:evenodd;"
points="58507,28411
58723,28411
58723,29041
58507,29041
58507,28411
" /> 
<polyline style="fill-rule:evenodd;"
points="58192,28411
58408,28411
58408,29041
58192,29041
58192,28411
" /> 
<polyline style="fill-rule:evenodd;"
points="57877,28411
58093,28411
58093,29041
57877,29041
57877,28411
" /> 
<polyline style="fill-rule:evenodd;"
points="57562,28411
57778,28411
57778,29041
57562,29041
57562,28411
" /> 
<polyline style="fill-rule:evenodd;"
points="57247,28411
57463,28411
57463,29041
57247,29041
57247,28411
" /> 
<polyline style="fill-rule:evenodd;"
points="56932,28411
57148,28411
57148,29041
56932,29041
56932,28411
" /> 
<polyline style="fill-rule:evenodd;"
points="56617,28411
56833,28411
56833,29041
56617,29041
56617,28411
" /> 
<polyline style="fill-rule:evenodd;"
points="56302,28411
56518,28411
56518,29041
56302,29041
56302,28411
" /> 
<polyline style="fill-rule:evenodd;"
points="56154,29189
56154,29405
55524,29405
55524,29189
56154,29189
" /> 
<polyline style="fill-rule:evenodd;"
points="56154,29504
56154,29720
55524,29720
55524,29504
56154,29504
" /> 
<polyline style="fill-rule:evenodd;"
points="56154,29819
56154,30035
55524,30035
55524,29819
56154,29819
" /> 
<polyline style="fill-rule:evenodd;"
points="56154,30134
56154,30350
55524,30350
55524,30134
56154,30134
" /> 
<polyline style="fill-rule:evenodd;"
points="56154,30449
56154,30665
55524,30665
55524,30449
56154,30449
" /> 
<polyline style="fill-rule:evenodd;"
points="56154,30764
56154,30980
55524,30980
55524,30764
56154,30764
" /> 
<polyline style="fill-rule:evenodd;"
points="56154,31079
56154,31295
55524,31295
55524,31079
56154,31079
" /> 
<polyline style="fill-rule:evenodd;"
points="56154,31394
56154,31610
55524,31610
55524,31394
56154,31394
" /> 
<polyline style="fill-rule:evenodd;"
points="56302,31758
56518,31758
56518,32388
56302,32388
56302,31758
" /> 
<polyline style="fill-rule:evenodd;"
points="56617,31758
56833,31758
56833,32388
56617,32388
56617,31758
" /> 
<polyline style="fill-rule:evenodd;"
points="56932,31758
57148,31758
57148,32388
56932,32388
56932,31758
" /> 
<polyline style="fill-rule:evenodd;"
points="57247,31758
57463,31758
57463,32388
57247,32388
57247,31758
" /> 
<polyline style="fill-rule:evenodd;"
points="57562,31758
57778,31758
57778,32388
57562,32388
57562,31758
" /> 
<polyline style="fill-rule:evenodd;"
points="57877,31758
58093,31758
58093,32388
57877,32388
57877,31758
" /> 
<polyline style="fill-rule:evenodd;"
points="58192,31758
58408,31758
58408,32388
58192,32388
58192,31758
" /> 
<polyline style="fill-rule:evenodd;"
points="58507,31758
58723,31758
58723,32388
58507,32388
58507,31758
" /> 
<polyline style="fill-rule:evenodd;"
points="52938,31885
52938,32515
51521,32515
51521,31885
52938,31885
" /> 
<polyline style="fill-rule:evenodd;"
points="55104,31885
55104,32515
53687,32515
53687,31885
55104,31885
" /> 
<polyline style="fill-rule:evenodd;"
points="64918,31076
64407,31076
64407,30486
64918,30486
64918,31076
" /> 
<polyline style="fill-rule:evenodd;"
points="64918,30013
64407,30013
64407,29423
64918,29423
64918,30013
" /> 
<polyline style="fill-rule:evenodd;"
points="58708,35644
58708,36155
58117,36155
58117,35644
58708,35644
" /> 
<polyline style="fill-rule:evenodd;"
points="57645,35644
57645,36155
57054,36155
57054,35644
57645,35644
" /> 
<polyline style="fill-rule:evenodd;"
points="63507,29423
64018,29423
64018,30013
63507,30013
63507,29423
" /> 
<polyline style="fill-rule:evenodd;"
points="63507,30486
64018,30486
64018,31076
63507,31076
63507,30486
" /> 
<polyline style="fill-rule:evenodd;"
points="64407,27323
64918,27323
64918,27913
64407,27913
64407,27323
" /> 
<polyline style="fill-rule:evenodd;"
points="64407,28386
64918,28386
64918,28976
64407,28976
64407,28386
" /> 
<polyline style="fill-rule:evenodd;"
points="57086,35080
57086,34569
57676,34569
57676,35080
57086,35080
" /> 
<polyline style="fill-rule:evenodd;"
points="58149,35080
58149,34569
58739,34569
58739,35080
58149,35080
" /> 
<polyline style="fill-rule:evenodd;"
points="64018,28976
63507,28976
63507,28386
64018,28386
64018,28976
" /> 
<polyline style="fill-rule:evenodd;"
points="64018,27913
63507,27913
63507,27323
64018,27323
64018,27913
" /> 
</g>
<g style="fill:#000000; fill-opacity:1.0; 
stroke:#000000; stroke-width:0; stroke-opacity:1; 
stroke-linecap:round; stroke-linejoin:round;">
</g>
<g style="fill:#008484; fill-opacity:1.0; 
stroke:#008484; stroke-width:0; stroke-opacity:1; 
stroke-linecap:round; stroke-linejoin:round;">
</g>
<g style="fill:#008484; fill-opacity:0.0; 
stroke:#008484; stroke-width:0; stroke-opacity:1; 
stroke-linecap:round; stroke-linejoin:round;">
</g>
<g style="fill:#008484; fill-opacity:0.0; 
stroke:#008484; stroke-width:78.7402; stroke-opacity:1; 
stroke-linecap:round; stroke-linejoin:round;">
<path d="M51953 23767
L51953 23452
L52133 23767
L52133 23452
" />
<path d="M52463 23767
L52358 23617
" />
<path d="M52283 23767
L52283 23452
L52403 23452
L52433 23467
L52448 23482
L52463 23512
L52463 23557
L52448 23587
L52433 23602
L52403 23617
L52283 23617
" />
<path d="M52703 23602
L52598 23602
" />
<path d="M52598 23767
L52598 23452
L52748 23452
" />
<path d="M52853 23482
L52868 23467
L52898 23452
L52973 23452
L53002 23467
L53017 23482
L53032 23512
L53032 23542
L53017 23587
L52838 23767
L53032 23767
" />
<path d="M53302 23557
L53302 23767
" />
<path d="M53227 23437
L53152 23662
L53347 23662
" />
<path d="M53617 23767
L53467 23767
L53467 23452
" />
<path d="M53782 23452
L53812 23452
L53842 23467
L53857 23482
L53872 23512
L53887 23572
L53887 23647
L53872 23707
L53857 23737
L53842 23752
L53812 23767
L53782 23767
L53752 23752
L53737 23737
L53722 23707
L53707 23647
L53707 23572
L53722 23512
L53737 23482
L53752 23467
L53782 23452
" />
<path d="M54187 23767
L54007 23767
" />
<path d="M54097 23767
L54097 23452
L54067 23497
L54037 23527
L54007 23542
" />
</g>
<g style="fill:#008484; fill-opacity:0.0; 
stroke:#008484; stroke-width:150; stroke-opacity:1; 
stroke-linecap:round; stroke-linejoin:round;">
<path d="M56413 39114
L56413 39980
" />
<path d="M56413 39980
L56295 39980
" />
<path d="M56295 39980
L56295 39114
" />
<path d="M58696 38287
L56728 38287
" />
<path d="M55743 39980
L59681 39980
" />
<path d="M55743 37657
L59681 37657
" />
<path d="M58696 38287
L58696 39980
" />
<path d="M56727 38287
L56727 39980
" />
<path d="M59010 39114
L59010 38484
" />
<path d="M59404 39114
L59010 39114
" />
<path d="M59404 38484
L59404 39114
" />
<path d="M59010 38484
L59404 38484
" />
<path d="M56018 38484
L56412 38484
" />
<path d="M56412 38484
L56412 39114
" />
<path d="M56412 39114
L56018 39114
" />
<path d="M56018 39114
L56018 38484
" />
<path d="M59601 36949
L59601 37657
" />
<path d="M55823 36949
L55823 37657
" />
<path d="M59680 39980
L59680 36949
" />
<path d="M59680 36949
L59523 36949
" />
<path d="M59523 36949
L59523 37657
" />
<path d="M55901 37657
L55901 36949
" />
<path d="M55901 36949
L55744 36949
" />
<path d="M55744 36949
L55744 39980
" />
<path d="M53800 39114
L53800 39980
" />
<path d="M53800 39980
L53682 39980
" />
<path d="M53682 39980
L53682 39114
" />
<path d="M54509 38287
L54509 39980
" />
<path d="M54115 38287
L54115 39980
" />
<path d="M54509 38287
L54115 38287
" />
<path d="M54823 39114
L54823 38484
" />
<path d="M55217 39114
L54823 39114
" />
<path d="M55217 38484
L55217 39114
" />
<path d="M54823 38484
L55217 38484
" />
<path d="M53406 38484
L53800 38484
" />
<path d="M53800 38484
L53800 39114
" />
<path d="M53800 39114
L53406 39114
" />
<path d="M53406 39114
L53406 38484
" />
<path d="M55493 37657
L53131 37657
" />
<path d="M55414 36949
L55414 37657
" />
<path d="M53210 36949
L53210 37657
" />
<path d="M53131 39980
L55493 39980
" />
<path d="M55493 39980
L55493 36949
" />
<path d="M55493 36949
L55336 36949
" />
<path d="M55336 36949
L55336 37657
" />
<path d="M53288 37657
L53288 36949
" />
<path d="M53288 36949
L53131 36949
" />
<path d="M53131 36949
L53131 39980
" />
</g>
<g style="fill:#008484; fill-opacity:0.0; 
stroke:#008484; stroke-width:59.0551; stroke-opacity:1; 
stroke-linecap:round; stroke-linejoin:round;">
<path d="M52642 35559
L52918 35559
" />
<path d="M52918 35559
L52918 35657
" />
<path d="M52918 36661
L52918 36740
" />
<path d="M52918 36740
L52642 36740
" />
<path d="M55392 35559
L55668 35559
" />
<path d="M55668 35559
L55668 35657
" />
<path d="M55668 36661
L55668 36740
" />
<path d="M55668 36740
L55392 36740
" />
<path d="M53642 33809
L53918 33809
" />
<path d="M53918 33809
L53918 33907
" />
<path d="M53918 34911
L53918 34990
" />
<path d="M53918 34990
L53642 34990
" />
<path d="M49670 30293
L49670 23206
" />
<path d="M49670 23206
L54394 23206
" />
<path d="M54394 23206
L54394 30293
" />
<path d="M54394 30293
L49670 30293
" />
<path d="M61546 38767
L64578 38767
" />
<path d="M61546 39161
L64578 39161
" />
<path d="M64578 39161
L64578 35539
" />
<path d="M64578 35539
L61546 35539
" />
<path d="M61546 35539
L61546 39161
" />
<path d="M65062 23250
L63062 23250
" />
<path d="M63062 23250
L63062 26250
" />
<path d="M63062 26250
L65062 26250
" />
<path d="M65062 26250
L65062 23250
" />
</g>
<g style="fill:#008484; fill-opacity:0.0; 
stroke:#008484; stroke-width:120; stroke-opacity:1; 
stroke-linecap:round; stroke-linejoin:round;">
<path d="M63862 34750
L62862 33750
" />
<path d="M63862 32750
L63862 34750
" />
<path d="M62862 34750
L62862 32750
" />
<path d="M63862 34750
L62862 34750
" />
<path d="M62862 32750
L63862 32750
" />
</g>
<g style="fill:#008484; fill-opacity:0.0; 
stroke:#008484; stroke-width:59.0551; stroke-opacity:1; 
stroke-linecap:round; stroke-linejoin:round;">
<path d="M47988 33950
L46413 33950
" />
<path d="M46413 33950
L46413 32729
" />
<path d="M46413 32729
L47988 32729
" />
<path d="M50192 31390
L50192 31587
" />
<path d="M50192 31587
L50704 31587
" />
<path d="M50192 36509
L50192 36312
" />
<path d="M50192 36312
L50704 36312
" />
<path d="M48421 31390
L47988 31390
" />
<path d="M48421 36509
L47988 36509
" />
<path d="M49562 31390
L48421 31390
" />
<path d="M47988 31390
L47988 36509
" />
<path d="M48421 36509
L50704 36509
" />
<path d="M50704 36509
L50704 31390
" />
<path d="M50704 31390
L49562 31390
" />
</g>
<g style="fill:#008484; fill-opacity:0.0; 
stroke:#008484; stroke-width:150; stroke-opacity:1; 
stroke-linecap:round; stroke-linejoin:round;">
<path d="M50356 39114
L50356 39980
" />
<path d="M50356 39980
L50238 39980
" />
<path d="M50238 39980
L50238 39114
" />
<path d="M49687 37657
L52837 37657
" />
<path d="M50671 38287
L51853 38287
" />
<path d="M49687 39980
L52837 39980
" />
<path d="M51852 38287
L51852 39980
" />
<path d="M50671 38287
L50671 39980
" />
<path d="M52166 39114
L52166 38484
" />
<path d="M52560 39114
L52166 39114
" />
<path d="M52560 38484
L52560 39114
" />
<path d="M52166 38484
L52560 38484
" />
<path d="M49962 38484
L50356 38484
" />
<path d="M50356 38484
L50356 39114
" />
<path d="M50356 39114
L49962 39114
" />
<path d="M49962 39114
L49962 38484
" />
<path d="M52758 36949
L52758 37657
" />
<path d="M49766 36949
L49766 37657
" />
<path d="M52837 39980
L52837 36949
" />
<path d="M52837 36949
L52680 36949
" />
<path d="M52680 36949
L52680 37657
" />
<path d="M49844 37657
L49844 36949
" />
<path d="M49844 36949
L49687 36949
" />
<path d="M49687 36949
L49687 39980
" />
</g>
<g style="fill:#008484; fill-opacity:0.0; 
stroke:#008484; stroke-width:59.0551; stroke-opacity:1; 
stroke-linecap:round; stroke-linejoin:round;">
<path d="M58940 31827
L58940 31699
" />
<path d="M56085 31827
L56085 31699
" />
<path d="M56085 28972
L56085 29100
" />
<path d="M58940 28972
L58940 29100
" />
<path d="M58940 31827
L58812 31827
" />
<path d="M58940 28972
L58812 28972
" />
<path d="M56085 28972
L56213 28972
" />
<path d="M56085 31827
L56213 31827
" />
<path d="M58940 31699
L59501 31699
" />
<path d="M54462 32500
L54462 31900
" />
<path d="M54412 31750
L54412 32650
" />
<path d="M54362 32750
L54362 31650
" />
<path d="M54312 31550
L54312 32850
" />
<path d="M54262 32900
L54262 31500
" />
<path d="M54612 33500
L54612 30900
" />
<path d="M54612 30900
L52312 30900
" />
<path d="M52312 30900
L52012 31200
" />
<path d="M52012 31200
L52012 33200
" />
<path d="M52012 33200
L52312 33500
" />
<path d="M52312 33500
L54612 33500
" />
<path d="M52462 32200
L52762 32200
" />
<path d="M52612 32350
L52612 32050
" />
<circle cx="53313" cy="32200" r="1200" /> 
<path d="M65007 30013
L65007 30486
" />
<path d="M64318 30486
L64318 30013
" />
<path d="M57645 35555
L58117 35555
" />
<path d="M58117 36244
L57645 36244
" />
<path d="M63418 30486
L63418 30013
" />
<path d="M64107 30013
L64107 30486
" />
<path d="M64318 28386
L64318 27913
" />
<path d="M65007 27913
L65007 28386
" />
<path d="M58149 35169
L57676 35169
" />
<path d="M57676 34480
L58149 34480
" />
<path d="M64107 27913
L64107 28386
" />
<path d="M63418 28386
L63418 27913
" />
<path d="M62062 27650
L62062 23150
" />
<path d="M62062 23150
L56062 23150
" />
<path d="M56062 23150
L56062 27650
" />
<path d="M56062 27650
L62062 27650
" />
<path d="M61168 29500
L61326 29421
" />
<path d="M61326 29421
L61562 29381
" />
<path d="M61562 29381
L61759 29421
" />
<path d="M61759 29421
L62034 29578
" />
<path d="M62034 29578
L62192 29815
" />
<path d="M62192 29815
L62271 30051
" />
<path d="M62271 30051
L62271 32649
" />
<path d="M62271 32649
L62192 32925
" />
<path d="M62192 32925
L62074 33082
" />
<path d="M62074 33082
L61877 33240
" />
<path d="M61877 33240
L61641 33319
" />
<path d="M61641 33319
L61444 33319
" />
<path d="M61444 33319
L61247 33240
" />
<path d="M61247 33240
L61011 33043
" />
<path d="M61011 33043
L60893 32846
" />
<path d="M60893 32846
L60853 32649
" />
<path d="M60853 32610
L60853 30011
" />
<path d="M60853 30011
L60893 29854
" />
<path d="M60893 29854
L61011 29657
" />
<path d="M61011 29657
L61208 29460
" />
<path d="M60645 32606
L60664 32787
" />
<path d="M60664 32787
L60708 32944
" />
<path d="M60708 32944
L60794 33114
" />
<path d="M60794 33114
L60885 33228
" />
<path d="M60885 33228
L61023 33358
" />
<path d="M61023 33358
L61235 33472
" />
<path d="M61235 33472
L61471 33523
" />
<path d="M61471 33523
L61672 33523
" />
<path d="M61672 33523
L61948 33456
" />
<path d="M61948 33456
L62180 33299
" />
<path d="M62180 33299
L62326 33118
" />
<path d="M62326 33118
L62408 32952
" />
<path d="M62408 32952
L62471 32775
" />
<path d="M62471 32775
L62483 32602
" />
<path d="M62397 29712
L62310 29563
" />
<path d="M62310 29563
L62200 29437
" />
<path d="M62200 29437
L62070 29338
" />
<path d="M62070 29338
L61853 29220
" />
<path d="M61853 29220
L61668 29177
" />
<path d="M61668 29177
L61487 29169
" />
<path d="M61487 29169
L61306 29204
" />
<path d="M61306 29204
L61129 29279
" />
<path d="M61129 29279
L60944 29421
" />
<path d="M60944 29421
L60818 29559
" />
<path d="M60818 29559
L60727 29712
" />
<path d="M60727 29712
L60672 29881
" />
<path d="M60672 29881
L60645 30055
" />
<path d="M62479 32610
L62479 30070
" />
<path d="M62479 30070
L62464 29905
" />
<path d="M62464 29905
L62397 29712
" />
<path d="M60645 32610
L60645 30070
" />
</g>
<g style="fill:#008484; fill-opacity:0.0; 
stroke:#008484; stroke-width:120; stroke-opacity:1; 
stroke-linecap:round; stroke-linejoin:round;">
<path d="M59162 32900
L60162 33900
" />
<path d="M59162 34900
L59162 32900
" />
<path d="M60162 32900
L60162 34900
" />
<path d="M59162 32900
L60162 32900
" />
<path d="M60162 34900
L59162 34900
" />
<path d="M56755 40242
L56755 40728
L56784 40785
L56812 40813
L56870 40842
L56984 40842
L57041 40813
L57070 40785
L57098 40728
L57098 40242
" />
<path d="M57355 40671
L57641 40671
" />
<path d="M57298 40842
L57498 40242
L57698 40842
" />
<path d="M58241 40842
L58041 40556
" />
<path d="M57898 40842
L57898 40242
L58127 40242
L58184 40271
L58212 40299
L58241 40356
L58241 40442
L58212 40499
L58184 40528
L58127 40556
L57898 40556
" />
<path d="M58412 40242
L58755 40242
" />
<path d="M58584 40842
L58584 40242
" />
<path d="M53827 40528
L53627 40528
" />
<path d="M53627 40842
L53627 40242
L53912 40242
" />
<path d="M54112 40671
L54398 40671
" />
<path d="M54055 40842
L54255 40242
L54455 40842
" />
<path d="M54655 40842
L54655 40242
L54998 40842
L54998 40242
" />
</g>
<g style="fill:#C2C200; fill-opacity:0.0; 
stroke:#C2C200; stroke-width:120; stroke-opacity:1; 
stroke-linecap:round; stroke-linejoin:round;">
</g>
<g style="fill:#C2C200; fill-opacity:0.0; 
stroke:#C2C200; stroke-width:59.0551; stroke-opacity:1; 
stroke-linecap:round; stroke-linejoin:round;">
<path d="M53375 35740
L53338 35721
L53300 35684
L53244 35628
L53206 35609
L53169 35609
" />
<path d="M53188 35703
L53150 35684
L53113 35646
L53094 35571
L53094 35440
L53113 35365
L53150 35328
L53188 35309
L53263 35309
L53300 35328
L53338 35365
L53356 35440
L53356 35571
L53338 35646
L53300 35684
L53263 35703
L53188 35703
" />
<path d="M53731 35703
L53506 35703
" />
<path d="M53619 35703
L53619 35309
L53581 35365
L53544 35403
L53506 35421
" />
<path d="M56025 35765
L55988 35746
L55950 35709
L55894 35653
L55856 35634
L55819 35634
" />
<path d="M55838 35728
L55800 35709
L55763 35671
L55744 35596
L55744 35465
L55763 35390
L55800 35353
L55838 35334
L55913 35334
L55950 35353
L55988 35390
L56006 35465
L56006 35596
L55988 35671
L55950 35709
L55913 35728
L55838 35728
" />
<path d="M56156 35371
L56175 35353
L56212 35334
L56306 35334
L56344 35353
L56362 35371
L56381 35409
L56381 35446
L56362 35503
L56137 35728
L56381 35728
" />
<path d="M54063 33659
L54063 33978
L54081 34015
L54100 34034
L54138 34053
L54213 34053
L54250 34034
L54269 34015
L54288 33978
L54288 33659
" />
<path d="M54681 34053
L54456 34053
" />
<path d="M54569 34053
L54569 33659
L54531 33715
L54494 33753
L54456 33771
" />
</g>
<g style="fill:#008484; fill-opacity:0.0; 
stroke:#008484; stroke-width:59.0551; stroke-opacity:1; 
stroke-linecap:round; stroke-linejoin:round;">
</g>
<g style="fill:#008484; fill-opacity:0.0; 
stroke:#008484; stroke-width:80; stroke-opacity:1; 
stroke-linecap:round; stroke-linejoin:round;">
<path d="M63029 32230
L63029 32516
L63010 32573
L62972 32611
L62915 32630
L62877 32630
" />
<path d="M63220 32630
L63220 32230
L63372 32230
L63410 32250
L63429 32269
L63448 32307
L63448 32364
L63429 32402
L63410 32421
L63372 32440
L63220 32440
" />
<path d="M63829 32630
L63601 32630
" />
<path d="M63715 32630
L63715 32230
L63677 32288
L63639 32326
L63601 32345
" />
</g>
<g style="fill:#C2C200; fill-opacity:0.0; 
stroke:#C2C200; stroke-width:80; stroke-opacity:1; 
stroke-linecap:round; stroke-linejoin:round;">
</g>
<g style="fill:#C2C200; fill-opacity:0.0; 
stroke:#C2C200; stroke-width:59.0551; stroke-opacity:1; 
stroke-linecap:round; stroke-linejoin:round;">
<path d="M50197 35024
L50216 34968
L50216 34874
L50197 34837
L50178 34818
L50141 34799
L50103 34799
L50066 34818
L50047 34837
L50028 34874
L50009 34949
L49991 34987
L49972 35006
L49934 35024
L49897 35024
L49859 35006
L49841 34987
L49822 34949
L49822 34856
L49841 34799
" />
<path d="M49822 34668
L50216 34574
L49934 34499
L50216 34425
L49822 34331
" />
<path d="M50216 33975
L50216 34200
" />
<path d="M50216 34087
L49822 34087
L49878 34125
L49916 34162
L49934 34200
" />
</g>
<g style="fill:#008484; fill-opacity:0.0; 
stroke:#008484; stroke-width:59.0551; stroke-opacity:1; 
stroke-linecap:round; stroke-linejoin:round;">
</g>
<g style="fill:#008484; fill-opacity:0.0; 
stroke:#008484; stroke-width:120; stroke-opacity:1; 
stroke-linecap:round; stroke-linejoin:round;">
<path d="M50091 40842
L50091 40242
L50291 40671
L50491 40242
L50491 40842
" />
<path d="M50891 40242
L51005 40242
L51062 40271
L51120 40328
L51148 40442
L51148 40642
L51120 40756
L51062 40813
L51005 40842
L50891 40842
L50834 40813
L50777 40756
L50748 40642
L50748 40442
L50777 40328
L50834 40271
L50891 40242
" />
<path d="M51405 40842
L51405 40242
" />
<path d="M51662 40813
L51748 40842
L51891 40842
L51948 40813
L51977 40785
L52005 40728
L52005 40671
L51977 40613
L51948 40585
L51891 40556
L51777 40528
L51720 40499
L51691 40471
L51662 40413
L51662 40356
L51691 40299
L51720 40271
L51777 40242
L51920 40242
L52005 40271
" />
<path d="M52177 40242
L52520 40242
" />
<path d="M52348 40842
L52348 40242
" />
</g>
<g style="fill:#C2C200; fill-opacity:0.0; 
stroke:#C2C200; stroke-width:120; stroke-opacity:1; 
stroke-linecap:round; stroke-linejoin:round;">
</g>
<g style="fill:#C2C200; fill-opacity:0.0; 
stroke:#C2C200; stroke-width:59.0551; stroke-opacity:1; 
stroke-linecap:round; stroke-linejoin:round;">
<path d="M56628 31403
L56628 31009
" />
<path d="M57041 31365
L57022 31384
L56966 31403
L56928 31403
L56872 31384
L56834 31346
L56816 31309
L56797 31234
L56797 31178
L56816 31103
L56834 31065
L56872 31028
L56928 31009
L56966 31009
L57022 31028
L57041 31046
" />
<path d="M57416 31403
L57191 31403
" />
<path d="M57303 31403
L57303 31009
L57266 31065
L57228 31103
L57191 31121
" />
<path d="M52897 31590
L52878 31609
L52822 31628
L52784 31628
L52728 31609
L52691 31571
L52672 31534
L52653 31459
L52653 31403
L52672 31328
L52691 31290
L52728 31253
L52784 31234
L52822 31234
L52878 31253
L52897 31271
" />
<path d="M53253 31234
L53066 31234
L53047 31421
L53066 31403
L53103 31384
L53197 31384
L53234 31403
L53253 31421
L53272 31459
L53272 31553
L53253 31590
L53234 31609
L53197 31628
L53103 31628
L53066 31609
L53047 31590
" />
<path d="M65241 30490
L64847 30490
L64847 30396
L64866 30340
L64903 30303
L64941 30284
L65016 30265
L65072 30265
L65147 30284
L65184 30303
L65222 30340
L65241 30396
L65241 30490
" />
<path d="M65241 29890
L65241 30115
" />
<path d="M65241 30003
L64847 30003
L64903 30040
L64941 30078
L64959 30115
" />
<path d="M57597 36703
L57597 36309
L57691 36309
L57747 36328
L57784 36365
L57803 36403
L57822 36478
L57822 36534
L57803 36609
L57784 36646
L57747 36684
L57691 36703
L57597 36703
" />
<path d="M57972 36346
L57991 36328
L58028 36309
L58122 36309
L58159 36328
L58178 36346
L58197 36384
L58197 36421
L58178 36478
L57953 36703
L58197 36703
" />
<path d="M63316 30565
L62922 30565
L62922 30471
L62941 30415
L62978 30378
L63016 30359
L63091 30340
L63147 30340
L63222 30359
L63259 30378
L63297 30415
L63316 30471
L63316 30565
" />
<path d="M62922 30209
L62922 29965
L63072 30096
L63072 30040
L63091 30003
L63109 29984
L63147 29965
L63241 29965
L63278 29984
L63297 30003
L63316 30040
L63316 30153
L63297 30190
L63278 30209
" />
<path d="M65241 28165
L65053 28296
" />
<path d="M65241 28390
L64847 28390
L64847 28240
L64866 28203
L64884 28184
L64922 28165
L64978 28165
L65016 28184
L65034 28203
L65053 28240
L65053 28390
" />
<path d="M65241 27790
L65241 28015
" />
<path d="M65241 27903
L64847 27903
L64903 27940
L64941 27978
L64959 28015
" />
<path d="M57847 34328
L57716 34140
" />
<path d="M57622 34328
L57622 33934
L57772 33934
L57809 33953
L57828 33971
L57847 34009
L57847 34065
L57828 34103
L57809 34121
L57772 34140
L57622 34140
" />
<path d="M57978 33934
L58222 33934
L58091 34084
L58147 34084
L58184 34103
L58203 34121
L58222 34159
L58222 34253
L58203 34290
L58184 34309
L58147 34328
L58034 34328
L57997 34309
L57978 34290
" />
<path d="M63391 28190
L63203 28321
" />
<path d="M63391 28415
L62997 28415
L62997 28265
L63016 28228
L63034 28209
L63072 28190
L63128 28190
L63166 28209
L63184 28228
L63203 28265
L63203 28415
" />
<path d="M62997 27853
L62997 27928
L63016 27965
L63034 27984
L63091 28021
L63166 28040
L63316 28040
L63353 28021
L63372 28003
L63391 27965
L63391 27890
L63372 27853
L63353 27834
L63316 27815
L63222 27815
L63184 27834
L63166 27853
L63147 27890
L63147 27965
L63166 28003
L63184 28021
L63222 28040
" />
<path d="M61213 23359
L61213 23678
L61231 23715
L61250 23734
L61288 23753
L61363 23753
L61400 23734
L61419 23715
L61438 23678
L61438 23359
" />
<path d="M61794 23490
L61794 23753
" />
<path d="M61700 23340
L61606 23621
L61850 23621
" />
<path d="M61278 31537
L61466 31537
" />
<path d="M61072 31668
L61278 31537
L61072 31406
" />
<path d="M61466 31068
L61466 31293
" />
<path d="M61466 31181
L61072 31181
L61128 31218
L61166 31256
L61184 31293
" />
</g>
<g style="fill:#008484; fill-opacity:0.0; 
stroke:#008484; stroke-width:59.0551; stroke-opacity:1; 
stroke-linecap:round; stroke-linejoin:round;">
</g>
<g style="fill:#008484; fill-opacity:0.0; 
stroke:#008484; stroke-width:80; stroke-opacity:1; 
stroke-linecap:round; stroke-linejoin:round;">
<path d="M59329 32230
L59329 32516
L59310 32573
L59272 32611
L59215 32630
L59177 32630
" />
<path d="M59520 32630
L59520 32230
L59672 32230
L59710 32250
L59729 32269
L59748 32307
L59748 32364
L59729 32402
L59710 32421
L59672 32440
L59520 32440
" />
<path d="M59901 32269
L59920 32250
L59958 32230
L60053 32230
L60091 32250
L60110 32269
L60129 32307
L60129 32345
L60110 32402
L59882 32630
L60129 32630
" />
</g>
<g style="fill:#000000; fill-opacity:0.0; 
stroke:#000000; stroke-width:80; stroke-opacity:1; 
stroke-linecap:round; stroke-linejoin:round;">
</g>
<g style="fill:#C2C200; fill-opacity:0.0; 
stroke:#C2C200; stroke-width:80; stroke-opacity:1; 
stroke-linecap:round; stroke-linejoin:round;">
</g>
<g style="fill:#C2C200; fill-opacity:0.0; 
stroke:#C2C200; stroke-width:59.0551; stroke-opacity:1; 
stroke-linecap:round; stroke-linejoin:round;">
<path d="M49562 23001
L49562 38750
" />
<path d="M65311 23001
L49562 23001
" />
<path d="M65311 38750
L65311 23001
" />
<path d="M49562 38750
L65311 38750
" />
</g> 
</svg>
