G04 #@! TF.FileFunction,Copper,L2,Bot,Signal*
%FSLAX46Y46*%
G04 Gerber Fmt 4.6, Leading zero omitted, Abs format (unit mm)*
G04 Created by KiCad (PCBNEW 4.0.2+e4-6225~38~ubuntu14.04.1-stable) date Sat Jul  9 19:21:58 2016*
%MOMM*%
G01*
G04 APERTURE LIST*
%ADD10C,0.150000*%
%ADD11R,1.198880X1.699260*%
%ADD12O,1.198880X1.699260*%
%ADD13R,1.300000X0.650000*%
%ADD14R,1.524000X1.524000*%
%ADD15C,1.524000*%
%ADD16C,2.499360*%
%ADD17R,2.199640X1.524000*%
%ADD18O,2.199640X1.524000*%
%ADD19R,1.500000X1.300000*%
%ADD20R,1.300000X1.500000*%
%ADD21C,1.501140*%
%ADD22C,0.600000*%
%ADD23C,0.400000*%
%ADD24C,0.250000*%
%ADD25C,0.254000*%
G04 APERTURE END LIST*
D10*
D11*
X17701260Y3175000D03*
D12*
X19700240Y3175000D03*
X21701760Y3175000D03*
X23700740Y3175000D03*
D11*
X11064240Y3175000D03*
D12*
X13065760Y3175000D03*
D13*
X30296000Y25466000D03*
X30296000Y26416000D03*
X30296000Y27366000D03*
X32696000Y27366000D03*
X32696000Y25466000D03*
D14*
X35560000Y38100000D03*
D15*
X38100000Y38100000D03*
X35560000Y35560000D03*
X38100000Y35560000D03*
X35560000Y33020000D03*
X38100000Y33020000D03*
D16*
X38608000Y14605000D03*
X38608000Y10795000D03*
D17*
X35052000Y11430000D03*
D18*
X35052000Y13970000D03*
D15*
X2900000Y9192000D03*
X2900000Y12192000D03*
X2900000Y15192000D03*
X3400000Y5942000D03*
X3400000Y18442000D03*
D11*
X2319020Y3175000D03*
D12*
X4318000Y3175000D03*
X6316980Y3175000D03*
D19*
X37926000Y27432000D03*
X35226000Y27432000D03*
X37926000Y29464000D03*
X35226000Y29464000D03*
D20*
X20955000Y19351000D03*
X20955000Y22051000D03*
D19*
X37926000Y25400000D03*
X35226000Y25400000D03*
X35894000Y17780000D03*
X33194000Y17780000D03*
X35894000Y19812000D03*
X33194000Y19812000D03*
D15*
X30480000Y29464000D03*
X27940000Y29464000D03*
X25400000Y29464000D03*
X22860000Y29464000D03*
X20320000Y29464000D03*
X17780000Y29464000D03*
D21*
X30480000Y16355060D03*
X30480000Y21236940D03*
D17*
X25654000Y13589000D03*
D18*
X25654000Y11049000D03*
D22*
X31369000Y9144000D03*
X33528000Y24130000D03*
X11176000Y6032500D03*
X33655000Y21971000D03*
X36639500Y2222500D03*
X35877500Y9080500D03*
X29464000Y9842500D03*
X5778500Y6604000D03*
X9525000Y16637000D03*
X22669500Y19050000D03*
X17843500Y20637500D03*
X20510500Y34544000D03*
X25590500Y26098500D03*
X32194500Y13906500D03*
X24063956Y26863044D03*
X20828000Y23495000D03*
X17780000Y23622000D03*
X18796000Y23622000D03*
X19367500Y22986996D03*
X28194000Y25338020D03*
X22733000Y22479000D03*
D23*
X27940000Y3175000D02*
X31369000Y6604000D01*
X31369000Y6604000D02*
X31369000Y9144000D01*
X23700740Y3175000D02*
X27940000Y3175000D01*
X31496000Y24892000D02*
X32258000Y24130000D01*
X32258000Y24130000D02*
X33528000Y24130000D01*
X31496000Y26491000D02*
X31496000Y24892000D01*
X32696000Y27366000D02*
X32371000Y27366000D01*
X32371000Y27366000D02*
X31496000Y26491000D01*
X35226000Y27432000D02*
X32762000Y27432000D01*
X32762000Y27432000D02*
X32696000Y27366000D01*
X27559000Y26416000D02*
X26225500Y25082500D01*
X29246000Y26416000D02*
X27559000Y26416000D01*
X30296000Y26416000D02*
X29246000Y26416000D01*
X27860000Y29544000D02*
X27940000Y29464000D01*
X30480000Y29464000D02*
X30480000Y34417000D01*
X30480000Y34417000D02*
X30353000Y34544000D01*
X30353000Y34544000D02*
X20934764Y34544000D01*
X20934764Y34544000D02*
X20510500Y34544000D01*
X30560000Y29544000D02*
X30480000Y29464000D01*
X30296000Y27366000D02*
X25715000Y27366000D01*
X25715000Y27366000D02*
X25590500Y27241500D01*
X25590500Y27241500D02*
X25590500Y26098500D01*
X32194500Y13906500D02*
X34988500Y13906500D01*
X34988500Y13906500D02*
X35052000Y13970000D01*
X30296000Y27366000D02*
X30668000Y27366000D01*
X30668000Y27366000D02*
X32766000Y29464000D01*
X32766000Y29464000D02*
X35226000Y29464000D01*
D24*
X24063956Y26730956D02*
X24063956Y26863044D01*
X20828000Y23495000D02*
X24063956Y26730956D01*
X17780000Y29464000D02*
X17780000Y23622000D01*
X22860000Y29464000D02*
X22860000Y27114500D01*
X22860000Y27114500D02*
X19367500Y23622000D01*
X19367500Y23622000D02*
X18796000Y23622000D01*
X23310011Y27374011D02*
X23310011Y26866013D01*
X19430994Y22986996D02*
X19367500Y22986996D01*
X23310011Y26866013D02*
X19430994Y22986996D01*
X25400000Y29464000D02*
X23310011Y27374011D01*
X28321980Y25466000D02*
X28194000Y25338020D01*
X30296000Y25466000D02*
X28321980Y25466000D01*
X35226000Y25400000D02*
X32762000Y25400000D01*
X32762000Y25400000D02*
X32696000Y25466000D01*
D23*
X20955000Y22051000D02*
X22305000Y22051000D01*
X22305000Y22051000D02*
X22733000Y22479000D01*
D24*
X30480000Y16355060D02*
X30480000Y17526000D01*
X30480000Y17526000D02*
X30734000Y17780000D01*
X33194000Y17780000D02*
X30734000Y17780000D01*
X30480000Y21236940D02*
X30480000Y20066000D01*
X30480000Y20066000D02*
X30734000Y19812000D01*
X30734000Y19812000D02*
X33194000Y19812000D01*
D25*
G36*
X34259673Y39221698D02*
X34163000Y38988309D01*
X34163000Y38385750D01*
X34321750Y38227000D01*
X35433000Y38227000D01*
X35433000Y38247000D01*
X35687000Y38247000D01*
X35687000Y38227000D01*
X35707000Y38227000D01*
X35707000Y37973000D01*
X35687000Y37973000D01*
X35687000Y37953000D01*
X35433000Y37953000D01*
X35433000Y37973000D01*
X34321750Y37973000D01*
X34163000Y37814250D01*
X34163000Y37211691D01*
X34259673Y36978302D01*
X34438301Y36799673D01*
X34671690Y36703000D01*
X34727614Y36703000D01*
X34376371Y36352370D01*
X34163243Y35839100D01*
X34162758Y35283339D01*
X34374990Y34769697D01*
X34767630Y34376371D01*
X34975512Y34290051D01*
X34769697Y34205010D01*
X34376371Y33812370D01*
X34163243Y33299100D01*
X34162758Y32743339D01*
X34374990Y32229697D01*
X34767630Y31836371D01*
X35280900Y31623243D01*
X35836661Y31622758D01*
X36350303Y31834990D01*
X36743629Y32227630D01*
X36829949Y32435512D01*
X36914990Y32229697D01*
X37307630Y31836371D01*
X37820900Y31623243D01*
X38376661Y31622758D01*
X38890303Y31834990D01*
X39283629Y32227630D01*
X39290000Y32242973D01*
X39290000Y30291008D01*
X39214327Y30473699D01*
X39035698Y30652327D01*
X38802309Y30749000D01*
X38211750Y30749000D01*
X38053000Y30590250D01*
X38053000Y29591000D01*
X38073000Y29591000D01*
X38073000Y29337000D01*
X38053000Y29337000D01*
X38053000Y27559000D01*
X38073000Y27559000D01*
X38073000Y27305000D01*
X38053000Y27305000D01*
X38053000Y25527000D01*
X38073000Y25527000D01*
X38073000Y25273000D01*
X38053000Y25273000D01*
X38053000Y24273750D01*
X38211750Y24115000D01*
X38802309Y24115000D01*
X39035698Y24211673D01*
X39214327Y24390301D01*
X39290000Y24572992D01*
X39290000Y16362510D01*
X38984531Y16489352D01*
X38234759Y16490006D01*
X37541809Y16203686D01*
X37011178Y15673979D01*
X36723648Y14981531D01*
X36723194Y14460737D01*
X36714467Y14504609D01*
X36411635Y14957828D01*
X35958416Y15260660D01*
X35423807Y15367000D01*
X34680193Y15367000D01*
X34145584Y15260660D01*
X33692365Y14957828D01*
X33547819Y14741500D01*
X32621734Y14741500D01*
X32381299Y14841338D01*
X32009333Y14841662D01*
X31665557Y14699617D01*
X31402308Y14436827D01*
X31259662Y14093299D01*
X31259338Y13721333D01*
X31401383Y13377557D01*
X31664173Y13114308D01*
X32007701Y12971662D01*
X32379667Y12971338D01*
X32622078Y13071500D01*
X33632678Y13071500D01*
X33692365Y12982172D01*
X33916130Y12832657D01*
X33716863Y12795162D01*
X33500739Y12656090D01*
X33355749Y12443890D01*
X33304740Y12192000D01*
X33304740Y10668000D01*
X33349018Y10432683D01*
X33488090Y10216559D01*
X33700290Y10071569D01*
X33952180Y10020560D01*
X36151820Y10020560D01*
X36387137Y10064838D01*
X36603261Y10203910D01*
X36733406Y10394384D01*
X36734072Y10369616D01*
X36982141Y9770725D01*
X37274911Y9641517D01*
X38428395Y10795000D01*
X37274911Y11948483D01*
X36982141Y11819275D01*
X36799260Y11341871D01*
X36799260Y12192000D01*
X36754982Y12427317D01*
X36615910Y12643441D01*
X36403710Y12788431D01*
X36187276Y12832260D01*
X36411635Y12982172D01*
X36714467Y13435391D01*
X36820807Y13970000D01*
X36811206Y14018270D01*
X37009314Y13538809D01*
X37539021Y13008178D01*
X38231469Y12720648D01*
X38981241Y12719994D01*
X39290000Y12847570D01*
X39290000Y12551975D01*
X38932117Y12689071D01*
X38182616Y12668928D01*
X37583725Y12420859D01*
X37454517Y12128089D01*
X38608000Y10974605D01*
X38622142Y10988748D01*
X38801748Y10809142D01*
X38787605Y10795000D01*
X38801748Y10780857D01*
X38622142Y10601252D01*
X38608000Y10615395D01*
X37454517Y9461911D01*
X37583725Y9169141D01*
X38283883Y8900929D01*
X39033384Y8921072D01*
X39290000Y9027366D01*
X39290000Y710000D01*
X710000Y710000D01*
X710000Y4024630D01*
X1072140Y4024630D01*
X1072140Y2325370D01*
X1116418Y2090053D01*
X1255490Y1873929D01*
X1467690Y1728939D01*
X1719580Y1677930D01*
X2918460Y1677930D01*
X3153777Y1722208D01*
X3369901Y1861280D01*
X3469267Y2006708D01*
X3845600Y1755250D01*
X4318000Y1661284D01*
X4790400Y1755250D01*
X5190881Y2022843D01*
X5317490Y2212327D01*
X5444099Y2022843D01*
X5844580Y1755250D01*
X6316980Y1661284D01*
X6789380Y1755250D01*
X7189861Y2022843D01*
X7457454Y2423324D01*
X7551420Y2895724D01*
X7551420Y3454276D01*
X7457454Y3926676D01*
X7392004Y4024630D01*
X9817360Y4024630D01*
X9817360Y2325370D01*
X9861638Y2090053D01*
X10000710Y1873929D01*
X10212910Y1728939D01*
X10464800Y1677930D01*
X11663680Y1677930D01*
X11898997Y1722208D01*
X12115121Y1861280D01*
X12215284Y2007873D01*
X12593360Y1755250D01*
X13065760Y1661284D01*
X13538160Y1755250D01*
X13938641Y2022843D01*
X14206234Y2423324D01*
X14300200Y2895724D01*
X14300200Y3454276D01*
X14206234Y3926676D01*
X14140784Y4024630D01*
X16454380Y4024630D01*
X16454380Y2325370D01*
X16498658Y2090053D01*
X16637730Y1873929D01*
X16849930Y1728939D01*
X17101820Y1677930D01*
X18300700Y1677930D01*
X18536017Y1722208D01*
X18752141Y1861280D01*
X18851507Y2006708D01*
X19227840Y1755250D01*
X19700240Y1661284D01*
X20172640Y1755250D01*
X20573121Y2022843D01*
X20703318Y2217696D01*
X20872803Y1993432D01*
X21292327Y1747101D01*
X21384239Y1731905D01*
X21574760Y1856643D01*
X21574760Y3048000D01*
X21554760Y3048000D01*
X21554760Y3302000D01*
X21574760Y3302000D01*
X21574760Y4493357D01*
X21828760Y4493357D01*
X21828760Y3302000D01*
X21848760Y3302000D01*
X21848760Y3048000D01*
X21828760Y3048000D01*
X21828760Y1856643D01*
X22019281Y1731905D01*
X22111193Y1747101D01*
X22530717Y1993432D01*
X22698854Y2215912D01*
X22827859Y2022843D01*
X23228340Y1755250D01*
X23700740Y1661284D01*
X24173140Y1755250D01*
X24573621Y2022843D01*
X24785539Y2340000D01*
X27940000Y2340000D01*
X28259541Y2403561D01*
X28530434Y2584566D01*
X30137978Y4192110D01*
X31005592Y4192110D01*
X31170362Y3793337D01*
X31475193Y3487974D01*
X31873677Y3322509D01*
X32305150Y3322132D01*
X32703923Y3486902D01*
X33009286Y3791733D01*
X33174751Y4190217D01*
X33174752Y4192110D01*
X35404872Y4192110D01*
X35569642Y3793337D01*
X35874473Y3487974D01*
X36272957Y3322509D01*
X36704430Y3322132D01*
X37103203Y3486902D01*
X37408566Y3791733D01*
X37574031Y4190217D01*
X37574408Y4621690D01*
X37409638Y5020463D01*
X37104807Y5325826D01*
X36706323Y5491291D01*
X36274850Y5491668D01*
X35876077Y5326898D01*
X35570714Y5022067D01*
X35405249Y4623583D01*
X35404872Y4192110D01*
X33174752Y4192110D01*
X33175128Y4621690D01*
X33010358Y5020463D01*
X32705527Y5325826D01*
X32307043Y5491291D01*
X31875570Y5491668D01*
X31476797Y5326898D01*
X31171434Y5022067D01*
X31005969Y4623583D01*
X31005592Y4192110D01*
X30137978Y4192110D01*
X31959434Y6013566D01*
X32096474Y6218661D01*
X32140439Y6284459D01*
X32204000Y6604000D01*
X32204000Y8716766D01*
X32303838Y8957201D01*
X32304162Y9329167D01*
X32162117Y9672943D01*
X31899327Y9936192D01*
X31555799Y10078838D01*
X31183833Y10079162D01*
X30840057Y9937117D01*
X30576808Y9674327D01*
X30434162Y9330799D01*
X30433838Y8958833D01*
X30534000Y8716422D01*
X30534000Y6949868D01*
X27594132Y4010000D01*
X24785539Y4010000D01*
X24573621Y4327157D01*
X24173140Y4594750D01*
X23700740Y4688716D01*
X23228340Y4594750D01*
X22827859Y4327157D01*
X22698854Y4134088D01*
X22530717Y4356568D01*
X22111193Y4602899D01*
X22019281Y4618095D01*
X21828760Y4493357D01*
X21574760Y4493357D01*
X21384239Y4618095D01*
X21292327Y4602899D01*
X20872803Y4356568D01*
X20703318Y4132304D01*
X20573121Y4327157D01*
X20172640Y4594750D01*
X19700240Y4688716D01*
X19227840Y4594750D01*
X18850615Y4342696D01*
X18764790Y4476071D01*
X18552590Y4621061D01*
X18300700Y4672070D01*
X17101820Y4672070D01*
X16866503Y4627792D01*
X16650379Y4488720D01*
X16505389Y4276520D01*
X16454380Y4024630D01*
X14140784Y4024630D01*
X13938641Y4327157D01*
X13538160Y4594750D01*
X13065760Y4688716D01*
X12593360Y4594750D01*
X12214358Y4341509D01*
X12127770Y4476071D01*
X11915570Y4621061D01*
X11663680Y4672070D01*
X10464800Y4672070D01*
X10229483Y4627792D01*
X10013359Y4488720D01*
X9868369Y4276520D01*
X9817360Y4024630D01*
X7392004Y4024630D01*
X7189861Y4327157D01*
X6789380Y4594750D01*
X6316980Y4688716D01*
X5844580Y4594750D01*
X5444099Y4327157D01*
X5317490Y4137673D01*
X5190881Y4327157D01*
X4790400Y4594750D01*
X4318000Y4688716D01*
X3845600Y4594750D01*
X3468375Y4342696D01*
X3382550Y4476071D01*
X3281519Y4545103D01*
X3676661Y4544758D01*
X4190303Y4756990D01*
X4583629Y5149630D01*
X4796757Y5662900D01*
X4797242Y6218661D01*
X4585010Y6732303D01*
X4192370Y7125629D01*
X3679100Y7338757D01*
X3123339Y7339242D01*
X2609697Y7127010D01*
X2216371Y6734370D01*
X2003243Y6221100D01*
X2002758Y5665339D01*
X2214990Y5151697D01*
X2607630Y4758371D01*
X2815466Y4672070D01*
X1719580Y4672070D01*
X1484263Y4627792D01*
X1268139Y4488720D01*
X1123149Y4276520D01*
X1072140Y4024630D01*
X710000Y4024630D01*
X710000Y8915339D01*
X1502758Y8915339D01*
X1714990Y8401697D01*
X2107630Y8008371D01*
X2620900Y7795243D01*
X3176661Y7794758D01*
X3690303Y8006990D01*
X4083629Y8399630D01*
X4296757Y8912900D01*
X4297242Y9468661D01*
X4085010Y9982303D01*
X3692370Y10375629D01*
X3179100Y10588757D01*
X2623339Y10589242D01*
X2109697Y10377010D01*
X1716371Y9984370D01*
X1503243Y9471100D01*
X1502758Y8915339D01*
X710000Y8915339D01*
X710000Y10705930D01*
X23961960Y10705930D01*
X23976920Y10631723D01*
X24238550Y10150974D01*
X24664239Y9806941D01*
X25189180Y9652000D01*
X25527000Y9652000D01*
X25527000Y10922000D01*
X25781000Y10922000D01*
X25781000Y9652000D01*
X26118820Y9652000D01*
X26643761Y9806941D01*
X27069450Y10150974D01*
X27331080Y10631723D01*
X27346040Y10705930D01*
X27223540Y10922000D01*
X25781000Y10922000D01*
X25527000Y10922000D01*
X24084460Y10922000D01*
X23961960Y10705930D01*
X710000Y10705930D01*
X710000Y11915339D01*
X1502758Y11915339D01*
X1714990Y11401697D01*
X2107630Y11008371D01*
X2620900Y10795243D01*
X3176661Y10794758D01*
X3690303Y11006990D01*
X4083629Y11399630D01*
X4296757Y11912900D01*
X4297242Y12468661D01*
X4085010Y12982303D01*
X3692370Y13375629D01*
X3179100Y13588757D01*
X2623339Y13589242D01*
X2109697Y13377010D01*
X1716371Y12984370D01*
X1503243Y12471100D01*
X1502758Y11915339D01*
X710000Y11915339D01*
X710000Y14211787D01*
X2099392Y14211787D01*
X2168857Y13969603D01*
X2692302Y13782856D01*
X3247368Y13810638D01*
X3631143Y13969603D01*
X3700608Y14211787D01*
X3561395Y14351000D01*
X23906740Y14351000D01*
X23906740Y12827000D01*
X23951018Y12591683D01*
X24090090Y12375559D01*
X24302290Y12230569D01*
X24531867Y12184079D01*
X24238550Y11947026D01*
X23976920Y11466277D01*
X23961960Y11392070D01*
X24084460Y11176000D01*
X25527000Y11176000D01*
X25527000Y11196000D01*
X25781000Y11196000D01*
X25781000Y11176000D01*
X27223540Y11176000D01*
X27346040Y11392070D01*
X27331080Y11466277D01*
X27069450Y11947026D01*
X26776454Y12183819D01*
X26989137Y12223838D01*
X27205261Y12362910D01*
X27350251Y12575110D01*
X27401260Y12827000D01*
X27401260Y14351000D01*
X27356982Y14586317D01*
X27217910Y14802441D01*
X27005710Y14947431D01*
X26753820Y14998440D01*
X24554180Y14998440D01*
X24318863Y14954162D01*
X24102739Y14815090D01*
X23957749Y14602890D01*
X23906740Y14351000D01*
X3561395Y14351000D01*
X2900000Y15012395D01*
X2099392Y14211787D01*
X710000Y14211787D01*
X710000Y15399698D01*
X1490856Y15399698D01*
X1518638Y14844632D01*
X1677603Y14460857D01*
X1919787Y14391392D01*
X2720395Y15192000D01*
X3079605Y15192000D01*
X3880213Y14391392D01*
X4122397Y14460857D01*
X4309144Y14984302D01*
X4281362Y15539368D01*
X4122397Y15923143D01*
X3880213Y15992608D01*
X3079605Y15192000D01*
X2720395Y15192000D01*
X1919787Y15992608D01*
X1677603Y15923143D01*
X1490856Y15399698D01*
X710000Y15399698D01*
X710000Y16172213D01*
X2099392Y16172213D01*
X2900000Y15371605D01*
X3700608Y16172213D01*
X3631143Y16414397D01*
X3107698Y16601144D01*
X2552632Y16573362D01*
X2168857Y16414397D01*
X2099392Y16172213D01*
X710000Y16172213D01*
X710000Y18165339D01*
X2002758Y18165339D01*
X2214990Y17651697D01*
X2607630Y17258371D01*
X3120900Y17045243D01*
X3676661Y17044758D01*
X4190303Y17256990D01*
X4583629Y17649630D01*
X4796757Y18162900D01*
X4797242Y18718661D01*
X4654035Y19065250D01*
X19670000Y19065250D01*
X19670000Y18474691D01*
X19766673Y18241302D01*
X19945301Y18062673D01*
X20178690Y17966000D01*
X20669250Y17966000D01*
X20828000Y18124750D01*
X20828000Y19224000D01*
X21082000Y19224000D01*
X21082000Y18124750D01*
X21240750Y17966000D01*
X21731310Y17966000D01*
X21964699Y18062673D01*
X22143327Y18241302D01*
X22240000Y18474691D01*
X22240000Y19065250D01*
X22081250Y19224000D01*
X21082000Y19224000D01*
X20828000Y19224000D01*
X19828750Y19224000D01*
X19670000Y19065250D01*
X4654035Y19065250D01*
X4585010Y19232303D01*
X4192370Y19625629D01*
X3679100Y19838757D01*
X3123339Y19839242D01*
X2609697Y19627010D01*
X2216371Y19234370D01*
X2003243Y18721100D01*
X2002758Y18165339D01*
X710000Y18165339D01*
X710000Y29187339D01*
X16382758Y29187339D01*
X16594990Y28673697D01*
X16987630Y28280371D01*
X17020000Y28266930D01*
X17020000Y24184463D01*
X16987808Y24152327D01*
X16845162Y23808799D01*
X16844838Y23436833D01*
X16986883Y23093057D01*
X17249673Y22829808D01*
X17593201Y22687162D01*
X17965167Y22686838D01*
X18288371Y22820383D01*
X18452900Y22752064D01*
X18574383Y22458053D01*
X18837173Y22194804D01*
X19180701Y22052158D01*
X19552667Y22051834D01*
X19657560Y22095175D01*
X19657560Y21301000D01*
X19701838Y21065683D01*
X19840910Y20849559D01*
X20053110Y20704569D01*
X20086490Y20697809D01*
X19945301Y20639327D01*
X19766673Y20460698D01*
X19670000Y20227309D01*
X19670000Y19636750D01*
X19828750Y19478000D01*
X20828000Y19478000D01*
X20828000Y19498000D01*
X21082000Y19498000D01*
X21082000Y19478000D01*
X22081250Y19478000D01*
X22240000Y19636750D01*
X22240000Y20227309D01*
X22143327Y20460698D01*
X21964699Y20639327D01*
X21828713Y20695654D01*
X21840317Y20697838D01*
X22056441Y20836910D01*
X22142281Y20962542D01*
X29094190Y20962542D01*
X29304686Y20453103D01*
X29694113Y20062996D01*
X29722982Y20051009D01*
X29777852Y19775161D01*
X29942599Y19528599D01*
X30196599Y19274599D01*
X30443160Y19109852D01*
X30734000Y19052000D01*
X31817258Y19052000D01*
X31840838Y18926683D01*
X31925225Y18795543D01*
X31847569Y18681890D01*
X31818836Y18540000D01*
X30734000Y18540000D01*
X30443160Y18482148D01*
X30196599Y18317401D01*
X29942599Y18063401D01*
X29777852Y17816839D01*
X29723083Y17541497D01*
X29696163Y17530374D01*
X29306056Y17140947D01*
X29094671Y16631876D01*
X29094190Y16080662D01*
X29304686Y15571223D01*
X29694113Y15181116D01*
X30203184Y14969731D01*
X30754398Y14969250D01*
X31263837Y15179746D01*
X31653944Y15569173D01*
X31865329Y16078244D01*
X31865810Y16629458D01*
X31704441Y17020000D01*
X31817258Y17020000D01*
X31840838Y16894683D01*
X31979910Y16678559D01*
X32192110Y16533569D01*
X32444000Y16482560D01*
X33944000Y16482560D01*
X34179317Y16526838D01*
X34395441Y16665910D01*
X34540431Y16878110D01*
X34547191Y16911490D01*
X34605673Y16770301D01*
X34784302Y16591673D01*
X35017691Y16495000D01*
X35608250Y16495000D01*
X35767000Y16653750D01*
X35767000Y17653000D01*
X36021000Y17653000D01*
X36021000Y16653750D01*
X36179750Y16495000D01*
X36770309Y16495000D01*
X37003698Y16591673D01*
X37182327Y16770301D01*
X37279000Y17003690D01*
X37279000Y17494250D01*
X37120250Y17653000D01*
X36021000Y17653000D01*
X35767000Y17653000D01*
X35747000Y17653000D01*
X35747000Y17907000D01*
X35767000Y17907000D01*
X35767000Y19685000D01*
X36021000Y19685000D01*
X36021000Y17907000D01*
X37120250Y17907000D01*
X37279000Y18065750D01*
X37279000Y18556310D01*
X37182327Y18789699D01*
X37176026Y18796000D01*
X37182327Y18802301D01*
X37279000Y19035690D01*
X37279000Y19526250D01*
X37120250Y19685000D01*
X36021000Y19685000D01*
X35767000Y19685000D01*
X35747000Y19685000D01*
X35747000Y19939000D01*
X35767000Y19939000D01*
X35767000Y20938250D01*
X36021000Y20938250D01*
X36021000Y19939000D01*
X37120250Y19939000D01*
X37279000Y20097750D01*
X37279000Y20588310D01*
X37182327Y20821699D01*
X37003698Y21000327D01*
X36770309Y21097000D01*
X36179750Y21097000D01*
X36021000Y20938250D01*
X35767000Y20938250D01*
X35608250Y21097000D01*
X35017691Y21097000D01*
X34784302Y21000327D01*
X34605673Y20821699D01*
X34549346Y20685713D01*
X34547162Y20697317D01*
X34408090Y20913441D01*
X34195890Y21058431D01*
X33944000Y21109440D01*
X32444000Y21109440D01*
X32208683Y21065162D01*
X31992559Y20926090D01*
X31847569Y20713890D01*
X31818836Y20572000D01*
X31704166Y20572000D01*
X31865329Y20960124D01*
X31865810Y21511338D01*
X31655314Y22020777D01*
X31265887Y22410884D01*
X30756816Y22622269D01*
X30205602Y22622750D01*
X29696163Y22412254D01*
X29306056Y22022827D01*
X29094671Y21513756D01*
X29094190Y20962542D01*
X22142281Y20962542D01*
X22201431Y21049110D01*
X22235227Y21216000D01*
X22305000Y21216000D01*
X22624541Y21279561D01*
X22895434Y21460566D01*
X23021333Y21586465D01*
X23261943Y21685883D01*
X23525192Y21948673D01*
X23667838Y22292201D01*
X23668162Y22664167D01*
X23526117Y23007943D01*
X23263327Y23271192D01*
X22919799Y23413838D01*
X22547833Y23414162D01*
X22204057Y23272117D01*
X22114169Y23182386D01*
X22069090Y23252441D01*
X21856890Y23397431D01*
X21813932Y23406130D01*
X24396634Y25988832D01*
X24592899Y26069927D01*
X24655529Y26132448D01*
X24655338Y25913333D01*
X24797383Y25569557D01*
X25060173Y25306308D01*
X25403701Y25163662D01*
X25775667Y25163338D01*
X26119443Y25305383D01*
X26382692Y25568173D01*
X26525338Y25911701D01*
X26525662Y26283667D01*
X26425500Y26526078D01*
X26425500Y26531000D01*
X29267614Y26531000D01*
X29394110Y26444569D01*
X29531120Y26416824D01*
X29410683Y26394162D01*
X29247257Y26289000D01*
X29169750Y26289000D01*
X29106750Y26226000D01*
X28493645Y26226000D01*
X28380799Y26272858D01*
X28008833Y26273182D01*
X27665057Y26131137D01*
X27401808Y25868347D01*
X27259162Y25524819D01*
X27258838Y25152853D01*
X27400883Y24809077D01*
X27663673Y24545828D01*
X28007201Y24403182D01*
X28379167Y24402858D01*
X28722943Y24544903D01*
X28884321Y24706000D01*
X29171331Y24706000D01*
X29181910Y24689559D01*
X29394110Y24544569D01*
X29646000Y24493560D01*
X30777280Y24493560D01*
X30837885Y24402858D01*
X30905566Y24301566D01*
X31667566Y23539566D01*
X31938460Y23358560D01*
X32258000Y23295000D01*
X33100766Y23295000D01*
X33341201Y23195162D01*
X33713167Y23194838D01*
X34056943Y23336883D01*
X34320192Y23599673D01*
X34462838Y23943201D01*
X34462979Y24105197D01*
X34476000Y24102560D01*
X35976000Y24102560D01*
X36211317Y24146838D01*
X36427441Y24285910D01*
X36572431Y24498110D01*
X36579191Y24531490D01*
X36637673Y24390301D01*
X36816302Y24211673D01*
X37049691Y24115000D01*
X37640250Y24115000D01*
X37799000Y24273750D01*
X37799000Y25273000D01*
X37779000Y25273000D01*
X37779000Y25527000D01*
X37799000Y25527000D01*
X37799000Y27305000D01*
X37779000Y27305000D01*
X37779000Y27559000D01*
X37799000Y27559000D01*
X37799000Y29337000D01*
X37779000Y29337000D01*
X37779000Y29591000D01*
X37799000Y29591000D01*
X37799000Y30590250D01*
X37640250Y30749000D01*
X37049691Y30749000D01*
X36816302Y30652327D01*
X36637673Y30473699D01*
X36581346Y30337713D01*
X36579162Y30349317D01*
X36440090Y30565441D01*
X36227890Y30710431D01*
X35976000Y30761440D01*
X34476000Y30761440D01*
X34240683Y30717162D01*
X34024559Y30578090D01*
X33879569Y30365890D01*
X33866023Y30299000D01*
X32766000Y30299000D01*
X32446459Y30235439D01*
X32264713Y30114000D01*
X32175566Y30054434D01*
X31872725Y29751593D01*
X31665010Y30254303D01*
X31315000Y30604925D01*
X31315000Y34417000D01*
X31251439Y34736541D01*
X31070434Y35007434D01*
X30943434Y35134434D01*
X30862610Y35188439D01*
X30672541Y35315439D01*
X30353000Y35379000D01*
X20937734Y35379000D01*
X20697299Y35478838D01*
X20325333Y35479162D01*
X19981557Y35337117D01*
X19718308Y35074327D01*
X19575662Y34730799D01*
X19575338Y34358833D01*
X19717383Y34015057D01*
X19980173Y33751808D01*
X20323701Y33609162D01*
X20695667Y33608838D01*
X20938078Y33709000D01*
X29645000Y33709000D01*
X29645000Y30604391D01*
X29296371Y30256370D01*
X29216605Y30064273D01*
X29162397Y30195143D01*
X28920213Y30264608D01*
X28119605Y29464000D01*
X28920213Y28663392D01*
X29162397Y28732857D01*
X29212509Y28873318D01*
X29294990Y28673697D01*
X29632246Y28335852D01*
X29410683Y28294162D01*
X29265905Y28201000D01*
X28573119Y28201000D01*
X28671143Y28241603D01*
X28740608Y28483787D01*
X27940000Y29284395D01*
X27139392Y28483787D01*
X27208857Y28241603D01*
X27322666Y28201000D01*
X26001552Y28201000D01*
X26190303Y28278990D01*
X26583629Y28671630D01*
X26663395Y28863727D01*
X26717603Y28732857D01*
X26959787Y28663392D01*
X27760395Y29464000D01*
X26959787Y30264608D01*
X26717603Y30195143D01*
X26667491Y30054682D01*
X26585010Y30254303D01*
X26395432Y30444213D01*
X27139392Y30444213D01*
X27940000Y29643605D01*
X28740608Y30444213D01*
X28671143Y30686397D01*
X28147698Y30873144D01*
X27592632Y30845362D01*
X27208857Y30686397D01*
X27139392Y30444213D01*
X26395432Y30444213D01*
X26192370Y30647629D01*
X25679100Y30860757D01*
X25123339Y30861242D01*
X24609697Y30649010D01*
X24216371Y30256370D01*
X24130051Y30048488D01*
X24045010Y30254303D01*
X23652370Y30647629D01*
X23139100Y30860757D01*
X22583339Y30861242D01*
X22069697Y30649010D01*
X21676371Y30256370D01*
X21590051Y30048488D01*
X21505010Y30254303D01*
X21112370Y30647629D01*
X20599100Y30860757D01*
X20043339Y30861242D01*
X19529697Y30649010D01*
X19136371Y30256370D01*
X19050051Y30048488D01*
X18965010Y30254303D01*
X18572370Y30647629D01*
X18059100Y30860757D01*
X17503339Y30861242D01*
X16989697Y30649010D01*
X16596371Y30256370D01*
X16383243Y29743100D01*
X16382758Y29187339D01*
X710000Y29187339D01*
X710000Y39290000D01*
X34327975Y39290000D01*
X34259673Y39221698D01*
X34259673Y39221698D01*
G37*
X34259673Y39221698D02*
X34163000Y38988309D01*
X34163000Y38385750D01*
X34321750Y38227000D01*
X35433000Y38227000D01*
X35433000Y38247000D01*
X35687000Y38247000D01*
X35687000Y38227000D01*
X35707000Y38227000D01*
X35707000Y37973000D01*
X35687000Y37973000D01*
X35687000Y37953000D01*
X35433000Y37953000D01*
X35433000Y37973000D01*
X34321750Y37973000D01*
X34163000Y37814250D01*
X34163000Y37211691D01*
X34259673Y36978302D01*
X34438301Y36799673D01*
X34671690Y36703000D01*
X34727614Y36703000D01*
X34376371Y36352370D01*
X34163243Y35839100D01*
X34162758Y35283339D01*
X34374990Y34769697D01*
X34767630Y34376371D01*
X34975512Y34290051D01*
X34769697Y34205010D01*
X34376371Y33812370D01*
X34163243Y33299100D01*
X34162758Y32743339D01*
X34374990Y32229697D01*
X34767630Y31836371D01*
X35280900Y31623243D01*
X35836661Y31622758D01*
X36350303Y31834990D01*
X36743629Y32227630D01*
X36829949Y32435512D01*
X36914990Y32229697D01*
X37307630Y31836371D01*
X37820900Y31623243D01*
X38376661Y31622758D01*
X38890303Y31834990D01*
X39283629Y32227630D01*
X39290000Y32242973D01*
X39290000Y30291008D01*
X39214327Y30473699D01*
X39035698Y30652327D01*
X38802309Y30749000D01*
X38211750Y30749000D01*
X38053000Y30590250D01*
X38053000Y29591000D01*
X38073000Y29591000D01*
X38073000Y29337000D01*
X38053000Y29337000D01*
X38053000Y27559000D01*
X38073000Y27559000D01*
X38073000Y27305000D01*
X38053000Y27305000D01*
X38053000Y25527000D01*
X38073000Y25527000D01*
X38073000Y25273000D01*
X38053000Y25273000D01*
X38053000Y24273750D01*
X38211750Y24115000D01*
X38802309Y24115000D01*
X39035698Y24211673D01*
X39214327Y24390301D01*
X39290000Y24572992D01*
X39290000Y16362510D01*
X38984531Y16489352D01*
X38234759Y16490006D01*
X37541809Y16203686D01*
X37011178Y15673979D01*
X36723648Y14981531D01*
X36723194Y14460737D01*
X36714467Y14504609D01*
X36411635Y14957828D01*
X35958416Y15260660D01*
X35423807Y15367000D01*
X34680193Y15367000D01*
X34145584Y15260660D01*
X33692365Y14957828D01*
X33547819Y14741500D01*
X32621734Y14741500D01*
X32381299Y14841338D01*
X32009333Y14841662D01*
X31665557Y14699617D01*
X31402308Y14436827D01*
X31259662Y14093299D01*
X31259338Y13721333D01*
X31401383Y13377557D01*
X31664173Y13114308D01*
X32007701Y12971662D01*
X32379667Y12971338D01*
X32622078Y13071500D01*
X33632678Y13071500D01*
X33692365Y12982172D01*
X33916130Y12832657D01*
X33716863Y12795162D01*
X33500739Y12656090D01*
X33355749Y12443890D01*
X33304740Y12192000D01*
X33304740Y10668000D01*
X33349018Y10432683D01*
X33488090Y10216559D01*
X33700290Y10071569D01*
X33952180Y10020560D01*
X36151820Y10020560D01*
X36387137Y10064838D01*
X36603261Y10203910D01*
X36733406Y10394384D01*
X36734072Y10369616D01*
X36982141Y9770725D01*
X37274911Y9641517D01*
X38428395Y10795000D01*
X37274911Y11948483D01*
X36982141Y11819275D01*
X36799260Y11341871D01*
X36799260Y12192000D01*
X36754982Y12427317D01*
X36615910Y12643441D01*
X36403710Y12788431D01*
X36187276Y12832260D01*
X36411635Y12982172D01*
X36714467Y13435391D01*
X36820807Y13970000D01*
X36811206Y14018270D01*
X37009314Y13538809D01*
X37539021Y13008178D01*
X38231469Y12720648D01*
X38981241Y12719994D01*
X39290000Y12847570D01*
X39290000Y12551975D01*
X38932117Y12689071D01*
X38182616Y12668928D01*
X37583725Y12420859D01*
X37454517Y12128089D01*
X38608000Y10974605D01*
X38622142Y10988748D01*
X38801748Y10809142D01*
X38787605Y10795000D01*
X38801748Y10780857D01*
X38622142Y10601252D01*
X38608000Y10615395D01*
X37454517Y9461911D01*
X37583725Y9169141D01*
X38283883Y8900929D01*
X39033384Y8921072D01*
X39290000Y9027366D01*
X39290000Y710000D01*
X710000Y710000D01*
X710000Y4024630D01*
X1072140Y4024630D01*
X1072140Y2325370D01*
X1116418Y2090053D01*
X1255490Y1873929D01*
X1467690Y1728939D01*
X1719580Y1677930D01*
X2918460Y1677930D01*
X3153777Y1722208D01*
X3369901Y1861280D01*
X3469267Y2006708D01*
X3845600Y1755250D01*
X4318000Y1661284D01*
X4790400Y1755250D01*
X5190881Y2022843D01*
X5317490Y2212327D01*
X5444099Y2022843D01*
X5844580Y1755250D01*
X6316980Y1661284D01*
X6789380Y1755250D01*
X7189861Y2022843D01*
X7457454Y2423324D01*
X7551420Y2895724D01*
X7551420Y3454276D01*
X7457454Y3926676D01*
X7392004Y4024630D01*
X9817360Y4024630D01*
X9817360Y2325370D01*
X9861638Y2090053D01*
X10000710Y1873929D01*
X10212910Y1728939D01*
X10464800Y1677930D01*
X11663680Y1677930D01*
X11898997Y1722208D01*
X12115121Y1861280D01*
X12215284Y2007873D01*
X12593360Y1755250D01*
X13065760Y1661284D01*
X13538160Y1755250D01*
X13938641Y2022843D01*
X14206234Y2423324D01*
X14300200Y2895724D01*
X14300200Y3454276D01*
X14206234Y3926676D01*
X14140784Y4024630D01*
X16454380Y4024630D01*
X16454380Y2325370D01*
X16498658Y2090053D01*
X16637730Y1873929D01*
X16849930Y1728939D01*
X17101820Y1677930D01*
X18300700Y1677930D01*
X18536017Y1722208D01*
X18752141Y1861280D01*
X18851507Y2006708D01*
X19227840Y1755250D01*
X19700240Y1661284D01*
X20172640Y1755250D01*
X20573121Y2022843D01*
X20703318Y2217696D01*
X20872803Y1993432D01*
X21292327Y1747101D01*
X21384239Y1731905D01*
X21574760Y1856643D01*
X21574760Y3048000D01*
X21554760Y3048000D01*
X21554760Y3302000D01*
X21574760Y3302000D01*
X21574760Y4493357D01*
X21828760Y4493357D01*
X21828760Y3302000D01*
X21848760Y3302000D01*
X21848760Y3048000D01*
X21828760Y3048000D01*
X21828760Y1856643D01*
X22019281Y1731905D01*
X22111193Y1747101D01*
X22530717Y1993432D01*
X22698854Y2215912D01*
X22827859Y2022843D01*
X23228340Y1755250D01*
X23700740Y1661284D01*
X24173140Y1755250D01*
X24573621Y2022843D01*
X24785539Y2340000D01*
X27940000Y2340000D01*
X28259541Y2403561D01*
X28530434Y2584566D01*
X30137978Y4192110D01*
X31005592Y4192110D01*
X31170362Y3793337D01*
X31475193Y3487974D01*
X31873677Y3322509D01*
X32305150Y3322132D01*
X32703923Y3486902D01*
X33009286Y3791733D01*
X33174751Y4190217D01*
X33174752Y4192110D01*
X35404872Y4192110D01*
X35569642Y3793337D01*
X35874473Y3487974D01*
X36272957Y3322509D01*
X36704430Y3322132D01*
X37103203Y3486902D01*
X37408566Y3791733D01*
X37574031Y4190217D01*
X37574408Y4621690D01*
X37409638Y5020463D01*
X37104807Y5325826D01*
X36706323Y5491291D01*
X36274850Y5491668D01*
X35876077Y5326898D01*
X35570714Y5022067D01*
X35405249Y4623583D01*
X35404872Y4192110D01*
X33174752Y4192110D01*
X33175128Y4621690D01*
X33010358Y5020463D01*
X32705527Y5325826D01*
X32307043Y5491291D01*
X31875570Y5491668D01*
X31476797Y5326898D01*
X31171434Y5022067D01*
X31005969Y4623583D01*
X31005592Y4192110D01*
X30137978Y4192110D01*
X31959434Y6013566D01*
X32096474Y6218661D01*
X32140439Y6284459D01*
X32204000Y6604000D01*
X32204000Y8716766D01*
X32303838Y8957201D01*
X32304162Y9329167D01*
X32162117Y9672943D01*
X31899327Y9936192D01*
X31555799Y10078838D01*
X31183833Y10079162D01*
X30840057Y9937117D01*
X30576808Y9674327D01*
X30434162Y9330799D01*
X30433838Y8958833D01*
X30534000Y8716422D01*
X30534000Y6949868D01*
X27594132Y4010000D01*
X24785539Y4010000D01*
X24573621Y4327157D01*
X24173140Y4594750D01*
X23700740Y4688716D01*
X23228340Y4594750D01*
X22827859Y4327157D01*
X22698854Y4134088D01*
X22530717Y4356568D01*
X22111193Y4602899D01*
X22019281Y4618095D01*
X21828760Y4493357D01*
X21574760Y4493357D01*
X21384239Y4618095D01*
X21292327Y4602899D01*
X20872803Y4356568D01*
X20703318Y4132304D01*
X20573121Y4327157D01*
X20172640Y4594750D01*
X19700240Y4688716D01*
X19227840Y4594750D01*
X18850615Y4342696D01*
X18764790Y4476071D01*
X18552590Y4621061D01*
X18300700Y4672070D01*
X17101820Y4672070D01*
X16866503Y4627792D01*
X16650379Y4488720D01*
X16505389Y4276520D01*
X16454380Y4024630D01*
X14140784Y4024630D01*
X13938641Y4327157D01*
X13538160Y4594750D01*
X13065760Y4688716D01*
X12593360Y4594750D01*
X12214358Y4341509D01*
X12127770Y4476071D01*
X11915570Y4621061D01*
X11663680Y4672070D01*
X10464800Y4672070D01*
X10229483Y4627792D01*
X10013359Y4488720D01*
X9868369Y4276520D01*
X9817360Y4024630D01*
X7392004Y4024630D01*
X7189861Y4327157D01*
X6789380Y4594750D01*
X6316980Y4688716D01*
X5844580Y4594750D01*
X5444099Y4327157D01*
X5317490Y4137673D01*
X5190881Y4327157D01*
X4790400Y4594750D01*
X4318000Y4688716D01*
X3845600Y4594750D01*
X3468375Y4342696D01*
X3382550Y4476071D01*
X3281519Y4545103D01*
X3676661Y4544758D01*
X4190303Y4756990D01*
X4583629Y5149630D01*
X4796757Y5662900D01*
X4797242Y6218661D01*
X4585010Y6732303D01*
X4192370Y7125629D01*
X3679100Y7338757D01*
X3123339Y7339242D01*
X2609697Y7127010D01*
X2216371Y6734370D01*
X2003243Y6221100D01*
X2002758Y5665339D01*
X2214990Y5151697D01*
X2607630Y4758371D01*
X2815466Y4672070D01*
X1719580Y4672070D01*
X1484263Y4627792D01*
X1268139Y4488720D01*
X1123149Y4276520D01*
X1072140Y4024630D01*
X710000Y4024630D01*
X710000Y8915339D01*
X1502758Y8915339D01*
X1714990Y8401697D01*
X2107630Y8008371D01*
X2620900Y7795243D01*
X3176661Y7794758D01*
X3690303Y8006990D01*
X4083629Y8399630D01*
X4296757Y8912900D01*
X4297242Y9468661D01*
X4085010Y9982303D01*
X3692370Y10375629D01*
X3179100Y10588757D01*
X2623339Y10589242D01*
X2109697Y10377010D01*
X1716371Y9984370D01*
X1503243Y9471100D01*
X1502758Y8915339D01*
X710000Y8915339D01*
X710000Y10705930D01*
X23961960Y10705930D01*
X23976920Y10631723D01*
X24238550Y10150974D01*
X24664239Y9806941D01*
X25189180Y9652000D01*
X25527000Y9652000D01*
X25527000Y10922000D01*
X25781000Y10922000D01*
X25781000Y9652000D01*
X26118820Y9652000D01*
X26643761Y9806941D01*
X27069450Y10150974D01*
X27331080Y10631723D01*
X27346040Y10705930D01*
X27223540Y10922000D01*
X25781000Y10922000D01*
X25527000Y10922000D01*
X24084460Y10922000D01*
X23961960Y10705930D01*
X710000Y10705930D01*
X710000Y11915339D01*
X1502758Y11915339D01*
X1714990Y11401697D01*
X2107630Y11008371D01*
X2620900Y10795243D01*
X3176661Y10794758D01*
X3690303Y11006990D01*
X4083629Y11399630D01*
X4296757Y11912900D01*
X4297242Y12468661D01*
X4085010Y12982303D01*
X3692370Y13375629D01*
X3179100Y13588757D01*
X2623339Y13589242D01*
X2109697Y13377010D01*
X1716371Y12984370D01*
X1503243Y12471100D01*
X1502758Y11915339D01*
X710000Y11915339D01*
X710000Y14211787D01*
X2099392Y14211787D01*
X2168857Y13969603D01*
X2692302Y13782856D01*
X3247368Y13810638D01*
X3631143Y13969603D01*
X3700608Y14211787D01*
X3561395Y14351000D01*
X23906740Y14351000D01*
X23906740Y12827000D01*
X23951018Y12591683D01*
X24090090Y12375559D01*
X24302290Y12230569D01*
X24531867Y12184079D01*
X24238550Y11947026D01*
X23976920Y11466277D01*
X23961960Y11392070D01*
X24084460Y11176000D01*
X25527000Y11176000D01*
X25527000Y11196000D01*
X25781000Y11196000D01*
X25781000Y11176000D01*
X27223540Y11176000D01*
X27346040Y11392070D01*
X27331080Y11466277D01*
X27069450Y11947026D01*
X26776454Y12183819D01*
X26989137Y12223838D01*
X27205261Y12362910D01*
X27350251Y12575110D01*
X27401260Y12827000D01*
X27401260Y14351000D01*
X27356982Y14586317D01*
X27217910Y14802441D01*
X27005710Y14947431D01*
X26753820Y14998440D01*
X24554180Y14998440D01*
X24318863Y14954162D01*
X24102739Y14815090D01*
X23957749Y14602890D01*
X23906740Y14351000D01*
X3561395Y14351000D01*
X2900000Y15012395D01*
X2099392Y14211787D01*
X710000Y14211787D01*
X710000Y15399698D01*
X1490856Y15399698D01*
X1518638Y14844632D01*
X1677603Y14460857D01*
X1919787Y14391392D01*
X2720395Y15192000D01*
X3079605Y15192000D01*
X3880213Y14391392D01*
X4122397Y14460857D01*
X4309144Y14984302D01*
X4281362Y15539368D01*
X4122397Y15923143D01*
X3880213Y15992608D01*
X3079605Y15192000D01*
X2720395Y15192000D01*
X1919787Y15992608D01*
X1677603Y15923143D01*
X1490856Y15399698D01*
X710000Y15399698D01*
X710000Y16172213D01*
X2099392Y16172213D01*
X2900000Y15371605D01*
X3700608Y16172213D01*
X3631143Y16414397D01*
X3107698Y16601144D01*
X2552632Y16573362D01*
X2168857Y16414397D01*
X2099392Y16172213D01*
X710000Y16172213D01*
X710000Y18165339D01*
X2002758Y18165339D01*
X2214990Y17651697D01*
X2607630Y17258371D01*
X3120900Y17045243D01*
X3676661Y17044758D01*
X4190303Y17256990D01*
X4583629Y17649630D01*
X4796757Y18162900D01*
X4797242Y18718661D01*
X4654035Y19065250D01*
X19670000Y19065250D01*
X19670000Y18474691D01*
X19766673Y18241302D01*
X19945301Y18062673D01*
X20178690Y17966000D01*
X20669250Y17966000D01*
X20828000Y18124750D01*
X20828000Y19224000D01*
X21082000Y19224000D01*
X21082000Y18124750D01*
X21240750Y17966000D01*
X21731310Y17966000D01*
X21964699Y18062673D01*
X22143327Y18241302D01*
X22240000Y18474691D01*
X22240000Y19065250D01*
X22081250Y19224000D01*
X21082000Y19224000D01*
X20828000Y19224000D01*
X19828750Y19224000D01*
X19670000Y19065250D01*
X4654035Y19065250D01*
X4585010Y19232303D01*
X4192370Y19625629D01*
X3679100Y19838757D01*
X3123339Y19839242D01*
X2609697Y19627010D01*
X2216371Y19234370D01*
X2003243Y18721100D01*
X2002758Y18165339D01*
X710000Y18165339D01*
X710000Y29187339D01*
X16382758Y29187339D01*
X16594990Y28673697D01*
X16987630Y28280371D01*
X17020000Y28266930D01*
X17020000Y24184463D01*
X16987808Y24152327D01*
X16845162Y23808799D01*
X16844838Y23436833D01*
X16986883Y23093057D01*
X17249673Y22829808D01*
X17593201Y22687162D01*
X17965167Y22686838D01*
X18288371Y22820383D01*
X18452900Y22752064D01*
X18574383Y22458053D01*
X18837173Y22194804D01*
X19180701Y22052158D01*
X19552667Y22051834D01*
X19657560Y22095175D01*
X19657560Y21301000D01*
X19701838Y21065683D01*
X19840910Y20849559D01*
X20053110Y20704569D01*
X20086490Y20697809D01*
X19945301Y20639327D01*
X19766673Y20460698D01*
X19670000Y20227309D01*
X19670000Y19636750D01*
X19828750Y19478000D01*
X20828000Y19478000D01*
X20828000Y19498000D01*
X21082000Y19498000D01*
X21082000Y19478000D01*
X22081250Y19478000D01*
X22240000Y19636750D01*
X22240000Y20227309D01*
X22143327Y20460698D01*
X21964699Y20639327D01*
X21828713Y20695654D01*
X21840317Y20697838D01*
X22056441Y20836910D01*
X22142281Y20962542D01*
X29094190Y20962542D01*
X29304686Y20453103D01*
X29694113Y20062996D01*
X29722982Y20051009D01*
X29777852Y19775161D01*
X29942599Y19528599D01*
X30196599Y19274599D01*
X30443160Y19109852D01*
X30734000Y19052000D01*
X31817258Y19052000D01*
X31840838Y18926683D01*
X31925225Y18795543D01*
X31847569Y18681890D01*
X31818836Y18540000D01*
X30734000Y18540000D01*
X30443160Y18482148D01*
X30196599Y18317401D01*
X29942599Y18063401D01*
X29777852Y17816839D01*
X29723083Y17541497D01*
X29696163Y17530374D01*
X29306056Y17140947D01*
X29094671Y16631876D01*
X29094190Y16080662D01*
X29304686Y15571223D01*
X29694113Y15181116D01*
X30203184Y14969731D01*
X30754398Y14969250D01*
X31263837Y15179746D01*
X31653944Y15569173D01*
X31865329Y16078244D01*
X31865810Y16629458D01*
X31704441Y17020000D01*
X31817258Y17020000D01*
X31840838Y16894683D01*
X31979910Y16678559D01*
X32192110Y16533569D01*
X32444000Y16482560D01*
X33944000Y16482560D01*
X34179317Y16526838D01*
X34395441Y16665910D01*
X34540431Y16878110D01*
X34547191Y16911490D01*
X34605673Y16770301D01*
X34784302Y16591673D01*
X35017691Y16495000D01*
X35608250Y16495000D01*
X35767000Y16653750D01*
X35767000Y17653000D01*
X36021000Y17653000D01*
X36021000Y16653750D01*
X36179750Y16495000D01*
X36770309Y16495000D01*
X37003698Y16591673D01*
X37182327Y16770301D01*
X37279000Y17003690D01*
X37279000Y17494250D01*
X37120250Y17653000D01*
X36021000Y17653000D01*
X35767000Y17653000D01*
X35747000Y17653000D01*
X35747000Y17907000D01*
X35767000Y17907000D01*
X35767000Y19685000D01*
X36021000Y19685000D01*
X36021000Y17907000D01*
X37120250Y17907000D01*
X37279000Y18065750D01*
X37279000Y18556310D01*
X37182327Y18789699D01*
X37176026Y18796000D01*
X37182327Y18802301D01*
X37279000Y19035690D01*
X37279000Y19526250D01*
X37120250Y19685000D01*
X36021000Y19685000D01*
X35767000Y19685000D01*
X35747000Y19685000D01*
X35747000Y19939000D01*
X35767000Y19939000D01*
X35767000Y20938250D01*
X36021000Y20938250D01*
X36021000Y19939000D01*
X37120250Y19939000D01*
X37279000Y20097750D01*
X37279000Y20588310D01*
X37182327Y20821699D01*
X37003698Y21000327D01*
X36770309Y21097000D01*
X36179750Y21097000D01*
X36021000Y20938250D01*
X35767000Y20938250D01*
X35608250Y21097000D01*
X35017691Y21097000D01*
X34784302Y21000327D01*
X34605673Y20821699D01*
X34549346Y20685713D01*
X34547162Y20697317D01*
X34408090Y20913441D01*
X34195890Y21058431D01*
X33944000Y21109440D01*
X32444000Y21109440D01*
X32208683Y21065162D01*
X31992559Y20926090D01*
X31847569Y20713890D01*
X31818836Y20572000D01*
X31704166Y20572000D01*
X31865329Y20960124D01*
X31865810Y21511338D01*
X31655314Y22020777D01*
X31265887Y22410884D01*
X30756816Y22622269D01*
X30205602Y22622750D01*
X29696163Y22412254D01*
X29306056Y22022827D01*
X29094671Y21513756D01*
X29094190Y20962542D01*
X22142281Y20962542D01*
X22201431Y21049110D01*
X22235227Y21216000D01*
X22305000Y21216000D01*
X22624541Y21279561D01*
X22895434Y21460566D01*
X23021333Y21586465D01*
X23261943Y21685883D01*
X23525192Y21948673D01*
X23667838Y22292201D01*
X23668162Y22664167D01*
X23526117Y23007943D01*
X23263327Y23271192D01*
X22919799Y23413838D01*
X22547833Y23414162D01*
X22204057Y23272117D01*
X22114169Y23182386D01*
X22069090Y23252441D01*
X21856890Y23397431D01*
X21813932Y23406130D01*
X24396634Y25988832D01*
X24592899Y26069927D01*
X24655529Y26132448D01*
X24655338Y25913333D01*
X24797383Y25569557D01*
X25060173Y25306308D01*
X25403701Y25163662D01*
X25775667Y25163338D01*
X26119443Y25305383D01*
X26382692Y25568173D01*
X26525338Y25911701D01*
X26525662Y26283667D01*
X26425500Y26526078D01*
X26425500Y26531000D01*
X29267614Y26531000D01*
X29394110Y26444569D01*
X29531120Y26416824D01*
X29410683Y26394162D01*
X29247257Y26289000D01*
X29169750Y26289000D01*
X29106750Y26226000D01*
X28493645Y26226000D01*
X28380799Y26272858D01*
X28008833Y26273182D01*
X27665057Y26131137D01*
X27401808Y25868347D01*
X27259162Y25524819D01*
X27258838Y25152853D01*
X27400883Y24809077D01*
X27663673Y24545828D01*
X28007201Y24403182D01*
X28379167Y24402858D01*
X28722943Y24544903D01*
X28884321Y24706000D01*
X29171331Y24706000D01*
X29181910Y24689559D01*
X29394110Y24544569D01*
X29646000Y24493560D01*
X30777280Y24493560D01*
X30837885Y24402858D01*
X30905566Y24301566D01*
X31667566Y23539566D01*
X31938460Y23358560D01*
X32258000Y23295000D01*
X33100766Y23295000D01*
X33341201Y23195162D01*
X33713167Y23194838D01*
X34056943Y23336883D01*
X34320192Y23599673D01*
X34462838Y23943201D01*
X34462979Y24105197D01*
X34476000Y24102560D01*
X35976000Y24102560D01*
X36211317Y24146838D01*
X36427441Y24285910D01*
X36572431Y24498110D01*
X36579191Y24531490D01*
X36637673Y24390301D01*
X36816302Y24211673D01*
X37049691Y24115000D01*
X37640250Y24115000D01*
X37799000Y24273750D01*
X37799000Y25273000D01*
X37779000Y25273000D01*
X37779000Y25527000D01*
X37799000Y25527000D01*
X37799000Y27305000D01*
X37779000Y27305000D01*
X37779000Y27559000D01*
X37799000Y27559000D01*
X37799000Y29337000D01*
X37779000Y29337000D01*
X37779000Y29591000D01*
X37799000Y29591000D01*
X37799000Y30590250D01*
X37640250Y30749000D01*
X37049691Y30749000D01*
X36816302Y30652327D01*
X36637673Y30473699D01*
X36581346Y30337713D01*
X36579162Y30349317D01*
X36440090Y30565441D01*
X36227890Y30710431D01*
X35976000Y30761440D01*
X34476000Y30761440D01*
X34240683Y30717162D01*
X34024559Y30578090D01*
X33879569Y30365890D01*
X33866023Y30299000D01*
X32766000Y30299000D01*
X32446459Y30235439D01*
X32264713Y30114000D01*
X32175566Y30054434D01*
X31872725Y29751593D01*
X31665010Y30254303D01*
X31315000Y30604925D01*
X31315000Y34417000D01*
X31251439Y34736541D01*
X31070434Y35007434D01*
X30943434Y35134434D01*
X30862610Y35188439D01*
X30672541Y35315439D01*
X30353000Y35379000D01*
X20937734Y35379000D01*
X20697299Y35478838D01*
X20325333Y35479162D01*
X19981557Y35337117D01*
X19718308Y35074327D01*
X19575662Y34730799D01*
X19575338Y34358833D01*
X19717383Y34015057D01*
X19980173Y33751808D01*
X20323701Y33609162D01*
X20695667Y33608838D01*
X20938078Y33709000D01*
X29645000Y33709000D01*
X29645000Y30604391D01*
X29296371Y30256370D01*
X29216605Y30064273D01*
X29162397Y30195143D01*
X28920213Y30264608D01*
X28119605Y29464000D01*
X28920213Y28663392D01*
X29162397Y28732857D01*
X29212509Y28873318D01*
X29294990Y28673697D01*
X29632246Y28335852D01*
X29410683Y28294162D01*
X29265905Y28201000D01*
X28573119Y28201000D01*
X28671143Y28241603D01*
X28740608Y28483787D01*
X27940000Y29284395D01*
X27139392Y28483787D01*
X27208857Y28241603D01*
X27322666Y28201000D01*
X26001552Y28201000D01*
X26190303Y28278990D01*
X26583629Y28671630D01*
X26663395Y28863727D01*
X26717603Y28732857D01*
X26959787Y28663392D01*
X27760395Y29464000D01*
X26959787Y30264608D01*
X26717603Y30195143D01*
X26667491Y30054682D01*
X26585010Y30254303D01*
X26395432Y30444213D01*
X27139392Y30444213D01*
X27940000Y29643605D01*
X28740608Y30444213D01*
X28671143Y30686397D01*
X28147698Y30873144D01*
X27592632Y30845362D01*
X27208857Y30686397D01*
X27139392Y30444213D01*
X26395432Y30444213D01*
X26192370Y30647629D01*
X25679100Y30860757D01*
X25123339Y30861242D01*
X24609697Y30649010D01*
X24216371Y30256370D01*
X24130051Y30048488D01*
X24045010Y30254303D01*
X23652370Y30647629D01*
X23139100Y30860757D01*
X22583339Y30861242D01*
X22069697Y30649010D01*
X21676371Y30256370D01*
X21590051Y30048488D01*
X21505010Y30254303D01*
X21112370Y30647629D01*
X20599100Y30860757D01*
X20043339Y30861242D01*
X19529697Y30649010D01*
X19136371Y30256370D01*
X19050051Y30048488D01*
X18965010Y30254303D01*
X18572370Y30647629D01*
X18059100Y30860757D01*
X17503339Y30861242D01*
X16989697Y30649010D01*
X16596371Y30256370D01*
X16383243Y29743100D01*
X16382758Y29187339D01*
X710000Y29187339D01*
X710000Y39290000D01*
X34327975Y39290000D01*
X34259673Y39221698D01*
M02*
