G04 #@! TF.FileFunction,Legend,Bot*
%FSLAX46Y46*%
G04 Gerber Fmt 4.6, Leading zero omitted, Abs format (unit mm)*
G04 Created by KiCad (PCBNEW 0.201512031508+6343~38~ubuntu14.04.1-stable) date Do 07 Jan 2016 08:44:42 CET*
%MOMM*%
G01*
G04 APERTURE LIST*
%ADD10C,0.150000*%
%ADD11C,0.175000*%
G04 APERTURE END LIST*
D10*
D11*
X27018570Y23721143D02*
X26789999Y23721143D01*
X26675713Y23664000D01*
X26561427Y23549714D01*
X26504285Y23321143D01*
X26504285Y22921143D01*
X26561427Y22692571D01*
X26675713Y22578286D01*
X26789999Y22521143D01*
X27018570Y22521143D01*
X27132856Y22578286D01*
X27247142Y22692571D01*
X27304285Y22921143D01*
X27304285Y23321143D01*
X27247142Y23549714D01*
X27132856Y23664000D01*
X27018570Y23721143D01*
X25989999Y23321143D02*
X25989999Y22121143D01*
X25989999Y23264000D02*
X25875713Y23321143D01*
X25647142Y23321143D01*
X25532856Y23264000D01*
X25475713Y23206857D01*
X25418570Y23092571D01*
X25418570Y22749714D01*
X25475713Y22635429D01*
X25532856Y22578286D01*
X25647142Y22521143D01*
X25875713Y22521143D01*
X25989999Y22578286D01*
X24447142Y22578286D02*
X24561428Y22521143D01*
X24789999Y22521143D01*
X24904285Y22578286D01*
X24961428Y22692571D01*
X24961428Y23149714D01*
X24904285Y23264000D01*
X24789999Y23321143D01*
X24561428Y23321143D01*
X24447142Y23264000D01*
X24389999Y23149714D01*
X24389999Y23035429D01*
X24961428Y22921143D01*
X23875714Y23321143D02*
X23875714Y22521143D01*
X23875714Y23206857D02*
X23818571Y23264000D01*
X23704285Y23321143D01*
X23532857Y23321143D01*
X23418571Y23264000D01*
X23361428Y23149714D01*
X23361428Y22521143D01*
X22790000Y22521143D02*
X22790000Y23721143D01*
X22790000Y23149714D02*
X22104285Y23149714D01*
X22104285Y22521143D02*
X22104285Y23721143D01*
X21018571Y23321143D02*
X21018571Y22521143D01*
X21532857Y23321143D02*
X21532857Y22692571D01*
X21475714Y22578286D01*
X21361428Y22521143D01*
X21190000Y22521143D01*
X21075714Y22578286D01*
X21018571Y22635429D01*
X20447143Y22521143D02*
X20447143Y23321143D01*
X20447143Y23206857D02*
X20390000Y23264000D01*
X20275714Y23321143D01*
X20104286Y23321143D01*
X19990000Y23264000D01*
X19932857Y23149714D01*
X19932857Y22521143D01*
X19932857Y23149714D02*
X19875714Y23264000D01*
X19761428Y23321143D01*
X19590000Y23321143D01*
X19475714Y23264000D01*
X19418571Y23149714D01*
X19418571Y22521143D01*
X18847143Y22521143D02*
X18847143Y23321143D01*
X18847143Y23721143D02*
X18904286Y23664000D01*
X18847143Y23606857D01*
X18790000Y23664000D01*
X18847143Y23721143D01*
X18847143Y23606857D01*
X17761428Y22521143D02*
X17761428Y23721143D01*
X17761428Y22578286D02*
X17875714Y22521143D01*
X18104285Y22521143D01*
X18218571Y22578286D01*
X18275714Y22635429D01*
X18332857Y22749714D01*
X18332857Y23092571D01*
X18275714Y23206857D01*
X18218571Y23264000D01*
X18104285Y23321143D01*
X17875714Y23321143D01*
X17761428Y23264000D01*
X17018571Y22521143D02*
X17132857Y22578286D01*
X17190000Y22635429D01*
X17247143Y22749714D01*
X17247143Y23092571D01*
X17190000Y23206857D01*
X17132857Y23264000D01*
X17018571Y23321143D01*
X16847143Y23321143D01*
X16732857Y23264000D01*
X16675714Y23206857D01*
X16618571Y23092571D01*
X16618571Y22749714D01*
X16675714Y22635429D01*
X16732857Y22578286D01*
X16847143Y22521143D01*
X17018571Y22521143D01*
X16104286Y22521143D02*
X16104286Y23321143D01*
X16104286Y23092571D02*
X16047143Y23206857D01*
X15990000Y23264000D01*
X15875714Y23321143D01*
X15761429Y23321143D01*
X27447142Y20723286D02*
X27275713Y20666143D01*
X26989999Y20666143D01*
X26875713Y20723286D01*
X26818570Y20780429D01*
X26761427Y20894714D01*
X26761427Y21009000D01*
X26818570Y21123286D01*
X26875713Y21180429D01*
X26989999Y21237571D01*
X27218570Y21294714D01*
X27332856Y21351857D01*
X27389999Y21409000D01*
X27447142Y21523286D01*
X27447142Y21637571D01*
X27389999Y21751857D01*
X27332856Y21809000D01*
X27218570Y21866143D01*
X26932856Y21866143D01*
X26761427Y21809000D01*
X25789999Y20723286D02*
X25904285Y20666143D01*
X26132856Y20666143D01*
X26247142Y20723286D01*
X26304285Y20837571D01*
X26304285Y21294714D01*
X26247142Y21409000D01*
X26132856Y21466143D01*
X25904285Y21466143D01*
X25789999Y21409000D01*
X25732856Y21294714D01*
X25732856Y21180429D01*
X26304285Y21066143D01*
X25218571Y21466143D02*
X25218571Y20666143D01*
X25218571Y21351857D02*
X25161428Y21409000D01*
X25047142Y21466143D01*
X24875714Y21466143D01*
X24761428Y21409000D01*
X24704285Y21294714D01*
X24704285Y20666143D01*
X24190000Y20723286D02*
X24075714Y20666143D01*
X23847142Y20666143D01*
X23732857Y20723286D01*
X23675714Y20837571D01*
X23675714Y20894714D01*
X23732857Y21009000D01*
X23847142Y21066143D01*
X24018571Y21066143D01*
X24132857Y21123286D01*
X24190000Y21237571D01*
X24190000Y21294714D01*
X24132857Y21409000D01*
X24018571Y21466143D01*
X23847142Y21466143D01*
X23732857Y21409000D01*
X22989999Y20666143D02*
X23104285Y20723286D01*
X23161428Y20780429D01*
X23218571Y20894714D01*
X23218571Y21237571D01*
X23161428Y21351857D01*
X23104285Y21409000D01*
X22989999Y21466143D01*
X22818571Y21466143D01*
X22704285Y21409000D01*
X22647142Y21351857D01*
X22589999Y21237571D01*
X22589999Y20894714D01*
X22647142Y20780429D01*
X22704285Y20723286D01*
X22818571Y20666143D01*
X22989999Y20666143D01*
X22075714Y20666143D02*
X22075714Y21466143D01*
X22075714Y21237571D02*
X22018571Y21351857D01*
X21961428Y21409000D01*
X21847142Y21466143D01*
X21732857Y21466143D01*
X20018571Y21294714D02*
X19847142Y21237571D01*
X19789999Y21180429D01*
X19732856Y21066143D01*
X19732856Y20894714D01*
X19789999Y20780429D01*
X19847142Y20723286D01*
X19961428Y20666143D01*
X20418571Y20666143D01*
X20418571Y21866143D01*
X20018571Y21866143D01*
X19904285Y21809000D01*
X19847142Y21751857D01*
X19789999Y21637571D01*
X19789999Y21523286D01*
X19847142Y21409000D01*
X19904285Y21351857D01*
X20018571Y21294714D01*
X20418571Y21294714D01*
X19047142Y20666143D02*
X19161428Y20723286D01*
X19218571Y20780429D01*
X19275714Y20894714D01*
X19275714Y21237571D01*
X19218571Y21351857D01*
X19161428Y21409000D01*
X19047142Y21466143D01*
X18875714Y21466143D01*
X18761428Y21409000D01*
X18704285Y21351857D01*
X18647142Y21237571D01*
X18647142Y20894714D01*
X18704285Y20780429D01*
X18761428Y20723286D01*
X18875714Y20666143D01*
X19047142Y20666143D01*
X17618571Y20666143D02*
X17618571Y21294714D01*
X17675714Y21409000D01*
X17790000Y21466143D01*
X18018571Y21466143D01*
X18132857Y21409000D01*
X17618571Y20723286D02*
X17732857Y20666143D01*
X18018571Y20666143D01*
X18132857Y20723286D01*
X18190000Y20837571D01*
X18190000Y20951857D01*
X18132857Y21066143D01*
X18018571Y21123286D01*
X17732857Y21123286D01*
X17618571Y21180429D01*
X17047143Y20666143D02*
X17047143Y21466143D01*
X17047143Y21237571D02*
X16990000Y21351857D01*
X16932857Y21409000D01*
X16818571Y21466143D01*
X16704286Y21466143D01*
X15790000Y20666143D02*
X15790000Y21866143D01*
X15790000Y20723286D02*
X15904286Y20666143D01*
X16132857Y20666143D01*
X16247143Y20723286D01*
X16304286Y20780429D01*
X16361429Y20894714D01*
X16361429Y21237571D01*
X16304286Y21351857D01*
X16247143Y21409000D01*
X16132857Y21466143D01*
X15904286Y21466143D01*
X15790000Y21409000D01*
X23304285Y19611143D02*
X23018571Y18811143D01*
X22732857Y19611143D01*
X22047142Y20011143D02*
X21932857Y20011143D01*
X21818571Y19954000D01*
X21761428Y19896857D01*
X21704285Y19782571D01*
X21647142Y19554000D01*
X21647142Y19268286D01*
X21704285Y19039714D01*
X21761428Y18925429D01*
X21818571Y18868286D01*
X21932857Y18811143D01*
X22047142Y18811143D01*
X22161428Y18868286D01*
X22218571Y18925429D01*
X22275714Y19039714D01*
X22332857Y19268286D01*
X22332857Y19554000D01*
X22275714Y19782571D01*
X22218571Y19896857D01*
X22161428Y19954000D01*
X22047142Y20011143D01*
X21132857Y18925429D02*
X21075714Y18868286D01*
X21132857Y18811143D01*
X21190000Y18868286D01*
X21132857Y18925429D01*
X21132857Y18811143D01*
X19989999Y20011143D02*
X20561428Y20011143D01*
X20618571Y19439714D01*
X20561428Y19496857D01*
X20447142Y19554000D01*
X20161428Y19554000D01*
X20047142Y19496857D01*
X19989999Y19439714D01*
X19932856Y19325429D01*
X19932856Y19039714D01*
X19989999Y18925429D01*
X20047142Y18868286D01*
X20161428Y18811143D01*
X20447142Y18811143D01*
X20561428Y18868286D01*
X20618571Y18925429D01*
M02*
