M48
METRIC,TZ
T1C0.400
T2C0.701
T3C0.762
T4C0.998
T5C1.001
%
G90
G05
T1
X165.Y-90.42
X165.565Y-86.364
X168.6Y-74.42
X170.5Y-90.92
T2
X132.797Y-88.32
X134.798Y-88.32
X136.8Y-88.32
X138.799Y-88.32
X140.8Y-88.32
X145.997Y-88.32
X147.998Y-88.32
X150.Y-88.32
X151.999Y-88.32
X156.798Y-88.32
X158.799Y-88.32
X160.801Y-88.32
X162.8Y-88.32
T3
X178.371Y-70.421
X178.371Y-72.962
X178.371Y-75.501
X178.371Y-78.041
X178.371Y-80.581
X178.371Y-83.121
X178.371Y-85.661
X178.371Y-88.201
X178.371Y-90.742
T4
X136.144Y-63.754
X138.684Y-63.754
X141.224Y-63.754
X143.764Y-63.754
X146.304Y-63.754
X148.844Y-63.754
X151.384Y-63.754
T5
X136.144Y-78.994
X138.684Y-78.994
X141.224Y-78.994
X143.764Y-78.994
X146.304Y-78.994
X148.844Y-78.994
X151.384Y-78.994
X153.924Y-63.754
X153.924Y-78.994
X156.464Y-63.754
X156.464Y-78.994
X159.004Y-63.754
X159.004Y-78.994
X161.544Y-63.754
X161.544Y-78.994
X164.084Y-63.754
X164.084Y-78.994
X166.624Y-63.754
X166.624Y-78.994
X169.164Y-63.754
X169.164Y-78.994
X171.704Y-63.754
X171.704Y-78.994
T0
M30
